<!DOCTYPE svg PUBLIC "-//W3C//DTD SVG 1.1//EN" "http://www.w3.org/Graphics/SVG/1.1/DTD/svg11.dtd">
<!-- Uploaded to: SVG Repo, www.svgrepo.com, Transformed by: SVG Repo Mixer Tools -->
<svg height="800px" width="800px" version="1.1" id="Layer_1" xmlns="http://www.w3.org/2000/svg" xmlns:xlink="http://www.w3.org/1999/xlink" viewBox="0 0 512 512" xml:space="preserve" fill="#000000">
<g id="SVGRepo_bgCarrier" stroke-width="0"/>
<g id="SVGRepo_tracerCarrier" stroke-linecap="round" stroke-linejoin="round"/>
<g id="SVGRepo_iconCarrier"> <path style="fill:#4b4f91;" d="M233.412,376.471h-45.176V150.588c0-24.91-20.266-45.176-45.176-45.176V60.235 c49.821,0,90.353,40.532,90.353,90.353V376.471z"/> <path style="fill:#4d589b;" d="M323.765,376.471h-45.176V150.588c0-49.821,40.532-90.353,90.353-90.353v45.176 c-24.91,0-45.176,20.266-45.176,45.176V376.471z"/> <circle style="fill:#5b99dc;" cx="165.647" cy="67.765" r="67.765"/> <circle style="fill:#ffffff;" cx="165.647" cy="67.765" r="22.588"/> <circle style="fill:#5b99dc;" cx="346.353" cy="67.765" r="67.765"/> <circle style="fill:#ffffff;" cx="346.353" cy="67.765" r="22.588"/> <path style="fill:#5b99dc;" d="M384,466.824c-12.475,0-22.588-10.114-22.588-22.588V286.118 c0-58.217-47.194-105.412-105.412-105.412S150.588,227.9,150.588,286.118v158.118c0,12.475-10.114,22.588-22.588,22.588 s-37.647,0-37.647,0V512h331.294v-45.176C421.647,466.824,396.475,466.824,384,466.824z"/> <path style="fill:#5b99dc;" d="M384,466.824c-12.475,0-22.588-10.114-22.588-22.588V286.118 c0-58.217-47.194-105.412-105.412-105.412V512h165.647v-45.176C421.647,466.824,396.475,466.824,384,466.824z"/> <path style="fill:#ffffff;" d="M210.824,271.059c0,24.949,20.227,45.176,45.176,45.176l0,0c24.949,0,45.176-20.227,45.176-45.176 H210.824z"/> <path style="fill:#ffffff;" d="M256,271.059v45.176c24.949,0,45.176-20.227,45.176-45.176H256z"/> </g>
</svg>