<?xml version="1.0" encoding="UTF-8"?>
<svg version="1.1" xmlns="http://www.w3.org/2000/svg" width="512" height="512">
<path d="M0 0 C1.69863823 1.70446899 3.39711939 3.40909453 5.09545898 5.11386108 C6.91788968 6.93221974 8.74095645 8.74994109 10.56460571 10.56707764 C14.97579819 14.96502288 19.37895518 19.37092636 23.77915613 23.77986598 C27.35783465 27.36535388 30.93947217 30.94786132 34.52318192 34.52832031 C35.03561668 35.04029537 35.54805144 35.55227044 36.07601453 36.0797599 C37.11738981 37.1201759 38.15877178 38.16058522 39.20016034 39.20098794 C48.93335765 48.92565844 58.65738743 58.65945388 68.37823673 68.39646542 C76.70325462 76.73489612 85.03612303 85.06541362 93.37475586 93.39022827 C103.08450991 103.08389931 112.78934264 112.78245449 122.48645937 122.48876858 C123.52186699 123.52513174 124.55728083 124.56148869 125.59270096 125.59783936 C126.35665799 126.36249062 126.35665799 126.36249062 127.13604849 127.14258939 C130.71036979 130.71949152 134.28814064 134.29292034 137.8672905 137.86499023 C142.68928974 142.67765931 147.50320574 147.49829168 152.31188583 152.32426834 C154.0737099 154.0900467 155.83806876 155.85330028 157.60518646 157.61378098 C160.02412456 160.02447242 162.43355673 162.44429579 164.84091187 164.86654663 C165.5353708 165.5543134 166.22982974 166.24208017 166.94533288 166.95068836 C173.28774681 173.36899067 178.91324918 180.55361643 182.53149414 188.87557983 C183.11543945 190.1846228 183.11543945 190.1846228 183.71118164 191.52011108 C187.78377271 202.47571763 187.21302751 217.71168234 182.92993164 228.44979858 C176.14163528 242.38038223 167.01179959 252.00601959 152.53149414 258.09432983 C138.83444883 262.70963858 124.8493232 261.6823401 111.65649414 256.06307983 C101.28956174 250.77991175 93.62372308 242.57117437 85.54638672 234.40707397 C84.0579585 232.91751569 82.56864543 231.42884116 81.07852173 229.940979 C77.0599673 225.92356643 73.05381657 221.89399176 69.04986787 217.86202931 C64.85439163 213.64145124 60.64749169 209.43229057 56.44181824 205.22187805 C48.49032557 197.25798139 40.54907963 189.28394864 32.61151284 181.3061747 C23.56979627 172.21966021 14.51664152 163.14457846 5.46253359 154.07041371 C-13.15218626 135.41394791 -31.75257911 116.74325314 -50.34350586 98.06307983 C-54.52550326 99.69990373 -57.30749259 102.769232 -60.3936615 105.90637207 C-60.99635614 106.5108857 -61.59905079 107.11539932 -62.22000891 107.73823154 C-64.2411268 109.76777171 -66.25499809 111.80435433 -68.26904297 113.84091187 C-69.71603485 115.29665272 -71.16350562 116.75191769 -72.61141968 118.20674133 C-75.7314038 121.34322829 -78.84840234 124.48264247 -81.96327019 127.62421036 C-86.89613093 132.59843575 -91.83821886 137.56342276 -96.78211975 142.52667236 C-110.84067877 156.64280138 -124.88936156 170.76870668 -138.92285156 184.90975952 C-146.67161474 192.71775517 -154.42942895 200.51664182 -162.19712645 208.30580223 C-167.10606097 213.22931893 -172.00374229 218.16367322 -176.8932656 223.10646367 C-179.95160809 226.19271337 -183.02054296 229.26826167 -186.09246445 232.34099007 C-187.50565898 233.7587212 -188.91460495 235.18070331 -190.31873131 236.60741615 C-203.62906347 250.12295804 -216.32526255 260.0361491 -235.99975586 261.04745483 C-250.40818622 261.11478395 -263.72197792 255.81937095 -274.34350586 246.06307983 C-286.80164147 231.80268229 -289.37740138 217.28644578 -288.34350586 199.06307983 C-287.81001021 195.41451212 -286.88804006 192.40069396 -285.34350586 189.06307983 C-284.97612305 188.21229858 -284.60874023 187.36151733 -284.23022461 186.48495483 C-281.62072284 181.09660311 -278.32392442 176.67235669 -274.23452759 172.33135986 C-273.71651349 171.77634792 -273.19849939 171.22133598 -272.66478789 170.6495055 C-265.12234507 162.62811011 -257.3069993 154.87023897 -249.5246582 147.08309937 C-247.75569635 145.30949885 -245.98692843 143.5357049 -244.21833801 141.76173401 C-239.45037306 136.98075481 -234.67919056 132.20300264 -229.90692854 127.42631388 C-226.9205655 124.43716957 -223.93493267 121.44729663 -220.94942093 118.45730209 C-212.66059901 110.15631437 -204.37084994 101.85625502 -196.07764244 93.55964851 C-195.28534159 92.76701832 -195.28534159 92.76701832 -194.47703467 91.95837539 C-193.68303398 91.16404728 -193.68303398 91.16404728 -192.87299287 90.35367215 C-191.80066231 89.28089814 -190.72833331 88.20812258 -189.65600586 87.13534546 C-189.12411371 86.60323188 -188.59222156 86.0711183 -188.04421146 85.52288006 C-179.41020371 76.88491717 -170.7829833 68.24020891 -162.15862887 59.59260894 C-153.27517285 50.68540453 -144.38606754 41.78387048 -135.49131167 32.88794982 C-130.50867816 27.90440247 -125.52845547 22.91849933 -120.55448532 17.92630386 C-115.88110959 13.23586185 -111.20002442 8.55321511 -106.51372337 3.87568092 C-104.79952361 2.16225028 -103.08786798 0.44626982 -101.37901115 -1.27248955 C-99.03851098 -3.62575171 -96.68884222 -5.96947769 -94.33676147 -8.31115723 C-93.66981368 -8.98616142 -93.00286589 -9.66116562 -92.31570756 -10.35662448 C-60.71338224 -41.63507286 -27.45107596 -27.39752264 0 0 Z " fill="#000000" transform="translate(307.343505859375,139.93692016601563)"/>
</svg>
