<?xml version="1.0" encoding="UTF-8"?>
<svg version="1.1" xmlns="http://www.w3.org/2000/svg" width="512" height="512">
<path d="M0 0 C4.96534696 2.30533966 7.43193691 5.21347233 10 10 C10.57713879 13.44443201 10.54696107 16.84023916 10.51898193 20.3263855 C10.53023381 21.88378344 10.53023381 21.88378344 10.541713 23.47264397 C10.56200746 26.950553 10.55388368 30.4278112 10.54589844 33.90576172 C10.55463244 36.39923244 10.56511762 38.89269755 10.57722473 41.38615417 C10.59934612 46.75380541 10.60928588 52.12126739 10.60811615 57.48894882 C10.60644604 65.24962854 10.6267904 73.01012836 10.65247145 80.77076007 C10.69354301 93.36246409 10.71686296 105.95413573 10.72900391 118.54589844 C10.74083427 130.77607333 10.76103459 143.00618726 10.79248047 155.23632812 C10.79538462 156.36752844 10.79538462 156.36752844 10.79834744 157.52158128 C10.8081121 161.30492786 10.8180412 165.088274 10.82805204 168.87161994 C10.91086148 200.24772043 10.96455917 231.62380854 11 263 C11.44284395 262.55346888 11.8856879 262.10693775 12.34195137 261.64687538 C23.12287996 250.77757177 33.91488183 239.91939685 44.71930122 229.07345009 C49.9439947 223.82813999 55.16488452 218.5791467 60.37695312 213.32128906 C64.92032155 208.7380254 69.47070081 204.16185983 74.02960193 199.59404409 C76.44280365 197.1756322 78.85237205 194.75383661 81.25357437 192.3235054 C83.93733493 189.61075745 86.63330464 186.91073771 89.33251953 184.21337891 C90.12446213 183.40705521 90.91640472 182.60073151 91.73234558 181.76997375 C96.7555855 176.78404552 100.29547707 174.33076098 107.5 173.6875 C113.07578377 174.18533784 116.49460929 176.2059854 120.3125 180.1875 C123.38510237 184.04442455 124.23394119 187.12289081 124 192 C122.71343056 201.04005432 116.30059504 206.52948536 110.10620117 212.62255859 C108.97138383 213.76059882 107.83786756 214.8999377 106.70555115 216.04046631 C103.64050619 219.11999321 100.55713857 222.18053891 97.46963286 225.23752546 C94.23542686 228.44528915 91.01713884 231.66895223 87.79670715 234.89053345 C82.38888952 240.29554596 76.96960654 245.68883976 71.54272461 251.07470703 C65.27348357 257.2967408 59.02009194 263.53434693 52.77551287 269.78112543 C46.11766917 276.44099715 39.44845038 283.0893874 32.77583909 289.7344594 C30.85745451 291.64645835 28.94120298 293.56057313 27.02541161 295.47517014 C24.01274112 298.48482164 20.99251564 301.48668667 17.96633339 304.48274994 C16.85844614 305.58189413 15.75305983 306.68356592 14.65040588 307.78796005 C13.14214204 309.29770273 11.62494105 310.79786599 10.10514832 312.29598999 C8.8361533 313.5574437 8.8361533 313.5574437 7.54152203 314.84438133 C3.44317756 318.32043534 -0.52038103 320.42872023 -5.9375 320.4375 C-7.12666016 320.46650391 -7.12666016 320.46650391 -8.33984375 320.49609375 C-17.21258855 318.84141153 -23.21105354 311.23447272 -29.30371094 305.13208008 C-30.43227333 304.01250405 -31.56144536 302.89354228 -32.69117737 301.77514648 C-35.74569712 298.74703628 -38.79050869 295.70934466 -41.83280849 292.66896272 C-43.73628426 290.76762413 -45.64188227 288.8684397 -47.54825592 286.97000694 C-54.20529406 280.34068875 -60.85457185 273.70370028 -67.49658203 267.05932617 C-73.67855908 260.8755461 -79.87708099 254.70870321 -86.08358741 248.54955178 C-91.42101539 243.25139558 -96.74676701 237.94169106 -102.06363702 232.62290496 C-105.23526942 229.45050915 -108.41134315 226.28290388 -111.59923553 223.12684059 C-114.59710725 220.15809069 -117.5801304 217.17517355 -120.55256462 214.18096161 C-121.64261052 213.08778824 -122.73775111 211.99966652 -123.83841896 210.91718864 C-130.4479234 204.40985387 -135.66946241 198.81851836 -136.13671875 189.1796875 C-134.9561973 183.12309917 -132.79827679 180.11078063 -127.97265625 176.27734375 C-124.02533086 173.72135285 -120.59728507 173.69351433 -116 174 C-109.22094562 176.12620732 -105.22116484 180.23408288 -100.31079102 185.23510742 C-99.05104713 186.49397514 -99.05104713 186.49397514 -97.76585388 187.77827454 C-95.47801778 190.06841094 -93.19927261 192.36714176 -90.92434049 194.67008376 C-88.53993513 197.07958613 -86.14410837 199.47767805 -83.74949646 201.87702942 C-79.22257531 206.41635603 -74.70594282 210.96577711 -70.19296354 215.5189603 C-65.05211568 220.70460166 -59.89983144 225.87881617 -54.74657929 231.05212629 C-44.15165775 241.68879706 -33.5711046 252.33965479 -23 263 C-22.99853344 261.70163649 -22.99706688 260.40327297 -22.99555588 259.06556511 C-22.95985764 228.24840146 -22.90362196 197.43135145 -22.82207905 166.61427759 C-22.81206153 162.82162816 -22.80221741 159.02897829 -22.79248047 155.23632812 C-22.78956841 154.10375061 -22.78956841 154.10375061 -22.78659752 152.94829275 C-22.7555723 140.72091574 -22.73859542 128.49355751 -22.72680578 116.26614855 C-22.71439691 103.72066832 -22.68690153 91.17528664 -22.64538693 78.62986863 C-22.62024387 70.88798916 -22.6068833 63.14627313 -22.60857043 55.40435226 C-22.60860369 49.46888626 -22.58765183 43.53361113 -22.55883217 37.59821129 C-22.55030069 35.16255934 -22.54860512 32.72687255 -22.55419731 30.29121208 C-22.56080955 26.96923637 -22.54298179 23.6482605 -22.51898193 20.3263855 C-22.52674235 19.35945263 -22.53450277 18.39251976 -22.54249835 17.39628589 C-22.47014951 11.75096923 -21.79049427 8.46731888 -18 4 C-12.72867143 -1.00776214 -6.89190982 -0.92775709 0 0 Z " fill="#000000" transform="translate(262,96)"/>
</svg>
