<?xml version="1.0" standalone="no"?>
<!DOCTYPE svg PUBLIC "-//W3C//DTD SVG 20010904//EN"
 "http://www.w3.org/TR/2001/REC-SVG-20010904/DTD/svg10.dtd">
<svg version="1.0" xmlns="http://www.w3.org/2000/svg"
 width="512.000000pt" height="512.000000pt" viewBox="0 0 512.000000 512.000000"
 preserveAspectRatio="xMidYMid meet">

<g transform="translate(0.000000,512.000000) scale(0.100000,-0.100000)"
fill="#000000" stroke="none">
<path d="M662 4669 c-245 -41 -472 -214 -582 -443 -81 -169 -75 -57 -75 -1461
0 -1180 1 -1254 18 -1314 86 -301 321 -523 620 -585 42 -9 91 -16 109 -17 31
0 35 -5 67 -71 62 -129 186 -238 339 -296 59 -23 82 -26 192 -26 110 0 133 3
192 26 153 58 277 167 339 296 l34 71 620 0 620 0 34 -71 c62 -129 186 -238
339 -296 59 -23 82 -26 192 -26 110 0 133 3 192 26 152 57 277 166 339 295
l34 70 90 6 c343 23 637 269 720 601 29 117 -5 204 -97 250 -63 32 -117 33
-175 5 -57 -27 -89 -68 -109 -137 -53 -186 -192 -309 -362 -319 l-67 -4 -34
73 c-48 100 -158 210 -261 261 -176 87 -364 87 -540 0 -102 -50 -213 -161
-261 -260 l-34 -72 -620 0 -620 0 -34 72 c-48 99 -159 210 -261 260 -176 87
-364 87 -540 0 -102 -50 -213 -161 -261 -260 -38 -81 -43 -83 -129 -57 -114
34 -200 110 -254 224 l-31 65 -3 588 -3 587 1418 0 1417 0 175 -174 c196 -193
282 -256 414 -304 135 -49 197 -53 702 -50 l460 3 38 24 c21 13 50 42 65 64
26 40 27 44 26 191 0 163 -16 268 -61 410 -26 83 -509 1279 -546 1351 -48 97
-149 216 -237 280 -63 46 -173 100 -261 127 l-74 23 -1610 1 c-899 1 -1633 -2
-1663 -7z m398 -964 l0 -575 -331 0 -330 0 3 423 3 422 32 67 c40 85 97 147
172 186 82 44 115 50 294 51 l157 1 0 -575z m1050 0 l0 -575 -325 0 -325 0 0
575 0 575 325 0 325 0 0 -575z m1010 0 l0 -575 -305 0 -305 0 0 575 0 575 305
0 305 0 0 -575z m802 556 c59 -19 154 -88 192 -140 24 -33 117 -249 292 -677
223 -548 304 -770 304 -830 0 -12 -57 -14 -328 -14 -454 0 -438 -6 -689 243
l-173 171 0 634 0 634 183 -5 c101 -2 198 -9 219 -16z m-2465 -3047 c62 -39
88 -90 88 -171 0 -52 -5 -68 -30 -104 -17 -23 -50 -53 -74 -66 -152 -80 -330
66 -281 230 18 62 44 92 103 122 67 34 127 30 194 -11z m2370 0 c62 -39 88
-90 88 -171 0 -52 -5 -68 -30 -104 -17 -23 -50 -53 -74 -66 -152 -80 -330 66
-281 230 18 62 44 92 103 122 67 34 127 30 194 -11z"/>
</g>
</svg>
