<?xml version="1.0" standalone="no"?>
<!DOCTYPE svg PUBLIC "-//W3C//DTD SVG 20010904//EN"
 "http://www.w3.org/TR/2001/REC-SVG-20010904/DTD/svg10.dtd">
<svg version="1.0" xmlns="http://www.w3.org/2000/svg"
 width="512.000000pt" height="512.000000pt" viewBox="0 0 512.000000 512.000000"
 preserveAspectRatio="xMidYMid meet">

<g transform="translate(0.000000,512.000000) scale(0.100000,-0.100000)"
fill="#000000" stroke="none">
<path d="M1503 4009 c-120 -20 -241 -86 -329 -180 -27 -30 -83 -103 -124 -164
-325 -488 -318 -481 -468 -495 -48 -4 -108 -13 -132 -20 -80 -22 -178 -79
-247 -144 -78 -74 -123 -143 -161 -248 -26 -72 -26 -78 -27 -333 0 -221 3
-270 18 -325 57 -202 193 -369 372 -455 64 -31 153 -56 246 -70 30 -4 37 -11
48 -43 23 -66 89 -167 147 -226 217 -222 546 -265 813 -109 119 70 237 208
279 325 l17 48 613 0 c575 0 613 -1 618 -17 20 -63 85 -173 136 -228 256 -279
671 -296 947 -40 60 56 143 175 162 233 17 54 23 59 83 65 69 7 183 47 254 89
73 42 198 167 240 240 200 339 81 751 -259 902 -30 13 -234 69 -454 126 -220
56 -417 111 -437 121 -21 11 -49 36 -63 57 -13 20 -62 146 -109 279 -47 134
-100 271 -117 305 -46 91 -163 204 -259 252 -135 66 -142 66 -993 65 -419 -1
-785 -5 -814 -10z m1634 -406 c58 -32 86 -72 127 -188 20 -55 36 -103 36 -107
0 -5 -326 -8 -724 -8 -527 0 -732 -3 -757 -12 -153 -52 -181 -257 -47 -345
l42 -28 818 -3 818 -2 83 -84 c120 -121 151 -134 639 -259 224 -57 421 -113
439 -123 17 -11 46 -36 63 -57 27 -34 31 -48 34 -112 4 -62 0 -82 -21 -128
-39 -86 -118 -153 -203 -171 -30 -7 -31 -6 -78 89 -78 158 -206 271 -378 333
-66 24 -86 27 -213 27 -127 0 -147 -3 -213 -27 -102 -37 -174 -82 -252 -158
-68 -67 -123 -149 -155 -233 l-18 -47 -609 2 -610 3 -21 51 c-108 253 -348
414 -617 414 -182 0 -334 -64 -466 -195 -68 -68 -89 -97 -125 -174 l-44 -92
-38 6 c-88 13 -172 80 -216 174 -25 55 -26 60 -26 266 0 196 1 213 22 250 40
76 105 115 190 115 77 0 180 27 262 67 116 58 181 129 368 408 89 132 175 259
192 282 33 45 75 72 131 84 19 4 370 6 780 6 l745 -2 42 -22z m-1725 -1579
c193 -65 241 -323 85 -460 -170 -150 -447 -28 -447 197 0 81 26 145 80 200 74
74 181 98 282 63z m2524 -12 c23 -12 60 -42 83 -68 154 -175 30 -446 -204
-446 -102 0 -185 47 -235 135 -87 153 -12 342 160 398 43 14 152 4 196 -19z"/>
</g>
</svg>
