<?xml version="1.0" encoding="UTF-8"?>
<svg version="1.1" xmlns="http://www.w3.org/2000/svg" width="512" height="512">
<path d="M0 0 C0.84809235 -0.00525696 1.69618469 -0.01051392 2.56997681 -0.01593018 C5.35543588 -0.02906453 8.14031701 -0.02041547 10.92578125 -0.01025391 C12.87199004 -0.01227653 14.81819809 -0.01518954 16.7644043 -0.01895142 C20.83617392 -0.02336588 24.90774563 -0.01697197 28.97949219 -0.00292969 C34.18806209 0.0141616 39.39616816 0.00431572 44.60472107 -0.01364708 C48.62141387 -0.02450861 52.63799744 -0.02102769 56.6546936 -0.0132637 C58.57475846 -0.01126825 60.49483336 -0.01369787 62.41488647 -0.02070236 C65.1023775 -0.02835588 67.78912647 -0.01665825 70.4765625 0 C71.65661362 -0.00910904 71.65661362 -0.00910904 72.86050415 -0.0184021 C78.02973977 0.04069498 81.77622976 0.6693107 86.23828125 3.38818359 C88.76949478 8.2555905 89.69410601 12.30087079 90.12380981 17.81549072 C90.18283726 18.52989311 90.2418647 19.2442955 90.30268085 19.98034644 C90.49600333 22.35543858 90.67206105 24.73148269 90.84814453 27.10791016 C90.98384119 28.81842286 91.12061866 30.52885011 91.25839233 32.23919678 C91.62847235 36.87027543 91.98373872 41.50238597 92.33653879 46.13480854 C92.70862437 50.98412915 93.09507993 55.83230282 93.48019409 60.68060303 C94.20724138 69.85943671 94.92257766 79.03914072 95.63315284 88.21926284 C96.90720138 104.67362662 98.20184346 121.12637873 99.49974239 137.57887626 C99.95486517 143.35394078 100.40507795 149.12936179 100.85119271 154.90512896 C101.12874937 158.49127933 101.40926324 162.07719438 101.6904335 165.66306305 C101.82037139 167.32908831 101.94898469 168.99521748 102.07619476 170.66145325 C102.24959293 172.93085663 102.42759209 175.19985382 102.60671997 177.46881104 C102.70514254 178.74008976 102.8035651 180.01136848 102.90497017 181.32117081 C103.13262581 184.42435226 103.13262581 184.42435226 104.23828125 187.38818359 C105.31045898 186.66155518 106.38263672 185.93492676 107.48730469 185.1862793 C130.46645032 169.62017056 153.52069011 154.17698069 176.71582031 138.93432617 C177.59337982 138.35746567 178.47093933 137.78060516 179.37509155 137.18626404 C181.06583149 136.07620622 182.75770887 134.96787849 184.45083618 133.86146545 C187.96719618 131.56041276 191.46705152 129.24824257 194.90283203 126.828125 C195.94294434 126.10157715 196.98305664 125.3750293 198.0546875 124.62646484 C198.90619385 124.01456299 199.7577002 123.40266113 200.63500977 122.7722168 C203.87650024 121.04887351 206.58908585 120.62493229 210.23828125 120.38818359 C214.25347188 121.90334987 215.84196478 122.79370889 218.23828125 126.38818359 C218.47879028 129.21659851 218.47879028 129.21659851 218.46533203 132.69555664 C218.46518097 133.99667892 218.46502991 135.29780121 218.46487427 136.63835144 C218.45466094 138.05886996 218.44422895 139.47938692 218.43359375 140.89990234 C218.42986308 142.35292873 218.42701636 143.80595763 218.42501831 145.25898743 C218.41738606 149.08129841 218.39774117 152.90345714 218.37561035 156.72570801 C218.35514308 160.62685079 218.34601471 164.52801821 218.3359375 168.42919922 C218.31449482 176.08226338 218.28036389 183.73520215 218.23828125 191.38818359 C231.65228403 182.71264229 231.65228403 182.71264229 245.05078125 174.01318359 C246.74478841 172.91161609 248.43879893 171.81005374 250.1328125 170.70849609 C250.97666504 170.15967773 251.82051758 169.61085938 252.68994141 169.04541016 C256.87223988 166.3255939 261.05529429 163.60694081 265.23828125 160.88818359 C266.90495164 159.80485598 268.5716183 158.72152265 270.23828125 157.63818359 C273.57161458 155.47151693 276.90494792 153.30485026 280.23828125 151.13818359 C281.06400635 150.6014502 281.88973145 150.0647168 282.74047852 149.51171875 C284.3997763 148.43319952 286.05911843 147.3547485 287.71850586 146.27636719 C292.8800887 142.92187088 298.04001097 139.56483949 303.19848633 136.20556641 C305.72511064 134.5623954 308.25499321 132.92433582 310.78515625 131.28662109 C313.43869573 129.56706502 316.07679046 127.83037316 318.69140625 126.05224609 C327.48959958 120.1627451 327.48959958 120.1627451 333.23828125 120.38818359 C337.25347188 121.90334987 338.84196478 122.79370889 341.23828125 126.38818359 C341.47879028 129.21659851 341.47879028 129.21659851 341.46533203 132.69555664 C341.46518097 133.99667892 341.46502991 135.29780121 341.46487427 136.63835144 C341.45466094 138.05886996 341.44422895 139.47938692 341.43359375 140.89990234 C341.42986308 142.35292873 341.42701636 143.80595763 341.42501831 145.25898743 C341.41738606 149.08129841 341.39774117 152.90345714 341.37561035 156.72570801 C341.35514308 160.62685079 341.34601471 164.52801821 341.3359375 168.42919922 C341.31449482 176.08226338 341.28036389 183.73520215 341.23828125 191.38818359 C352.23888042 184.49534396 363.16236877 177.5211705 373.92578125 170.26318359 C381.54871508 165.14491276 389.19438957 160.09135824 397.02416992 155.29394531 C403.70836642 151.16354638 410.21233339 146.76200674 416.73828125 142.38818359 C432.03184369 132.14816665 432.03184369 132.14816665 439.48828125 127.45068359 C440.08833984 127.06847656 440.68839844 126.68626953 441.30664062 126.29248047 C451.27233178 120.088293 451.27233178 120.088293 456.92578125 120.95068359 C460.50779836 122.50514385 461.98096696 123.22447718 464.23828125 126.38818359 C464.84543498 129.83467559 464.77735697 133.25243517 464.74621582 136.74412537 C464.75245578 137.8098224 464.75869575 138.87551944 464.7651248 139.97351032 C464.78112245 143.55653765 464.76842352 147.13889105 464.75585938 150.72192383 C464.76127749 153.28580117 464.76839839 155.8496754 464.77709961 158.4135437 C464.79347426 164.66189943 464.79103788 170.91000424 464.77944905 177.15836339 C464.77042026 182.23642622 464.76918831 187.31443519 464.77354431 192.39250374 C464.77415724 193.11488745 464.77477018 193.83727116 464.77540168 194.58154528 C464.77668057 196.04900751 464.77797742 197.51646971 464.77929205 198.98393191 C464.7907026 212.74965896 464.77757714 226.51527953 464.75609058 240.28098912 C464.73822293 252.09387358 464.74131999 263.9066008 464.75976562 275.71948242 C464.78117051 289.43395501 464.78959993 303.1483342 464.77731657 316.86282116 C464.77604236 318.32522999 464.77478488 319.78763883 464.77354431 321.25004768 C464.77292721 321.96959695 464.77231011 322.68914622 464.77167431 323.43050001 C464.76821997 328.5022423 464.77405162 333.57392537 464.78346252 338.64565849 C464.79585104 345.47223858 464.78703376 352.2984756 464.7638855 359.12504196 C464.75858689 361.63369184 464.76013173 364.14236667 464.76893616 366.6510067 C464.7798293 370.06943094 464.76620206 373.48689547 464.74621582 376.90525818 C464.75513871 377.903503 464.76406159 378.90174782 464.77325487 379.93024248 C464.72376627 384.27920295 464.6544161 386.71322575 462.33153534 390.48086643 C458.51233325 393.96082126 455.13005537 393.53160417 450.19746685 393.52240467 C449.3524703 393.5247569 448.50747375 393.52710913 447.63687125 393.52953264 C444.77439628 393.53624751 441.91196645 393.53576367 439.04948425 393.53535461 C436.98892071 393.53865169 434.92835782 393.54237692 432.86779577 393.54649609 C427.18117966 393.55654192 421.49457411 393.56023702 415.80795038 393.5628854 C409.68444707 393.56678078 403.56095218 393.57635957 397.43745422 393.58509827 C383.33767738 393.60394814 369.23790247 393.61412155 355.13811657 393.62255895 C348.17383391 393.62676296 341.20955211 393.63198525 334.24527018 393.63724348 C310.41597051 393.65513434 286.58667061 393.67013166 262.75736523 393.67756367 C261.26092323 393.67803843 259.76448124 393.67851432 258.26803925 393.67899133 C257.52592318 393.67922771 256.78380712 393.67946408 256.0192027 393.67970762 C252.25913968 393.68090885 248.49907668 393.68212429 244.73901367 393.68334961 C243.619711 393.68370983 243.619711 393.68370983 242.47779616 393.68407734 C218.27518299 393.69197316 194.07261878 393.71541048 169.870027 393.74790555 C144.29463644 393.78218124 118.71927455 393.80191267 93.14386064 393.80520791 C90.33783836 393.80562546 87.5318161 393.80610503 84.72579384 393.80663109 C84.03484871 393.80675428 83.34390359 393.80687747 82.63202073 393.8070044 C71.49927055 393.80933917 60.3665771 393.82501449 49.23384716 393.84547293 C38.04983809 393.86570002 26.86589636 393.87088884 15.68186613 393.8617023 C9.6195402 393.85714059 3.55739901 393.85915208 -2.50490189 393.87846375 C-8.04967364 393.8959749 -13.59412422 393.89519634 -19.13889881 393.87956645 C-21.14968571 393.87717196 -23.16049416 393.8816082 -25.17124794 393.8933951 C-27.89568817 393.90838214 -30.61897081 393.89893357 -33.34338093 393.88316822 C-34.13184689 393.89339043 -34.92031284 393.90361263 -35.73267171 393.91414461 C-39.45588193 393.86682399 -41.56216747 393.51651608 -44.72536486 391.48224705 C-48.29737204 387.80901042 -47.92049948 384.61856266 -47.89176655 379.74219704 C-47.88892907 378.97918816 -47.88609159 378.21617928 -47.88316812 377.43004892 C-47.81719886 369.83512624 -47.30434212 362.29162971 -46.68095398 354.72396851 C-46.56290799 353.22940179 -46.44544708 351.73478877 -46.32851058 350.24013484 C-46.00970205 346.1869929 -45.68260054 342.13455913 -45.35394919 338.08220506 C-44.99933823 333.69144025 -44.65256121 329.30005521 -44.3046875 324.90875244 C-43.62379888 316.33029556 -42.93549994 307.75244924 -42.24424084 299.17482238 C-41.68253718 292.2041502 -41.12310649 285.23329923 -40.56525612 278.26231766 C-38.80954707 256.32556193 -37.04577462 234.38946904 -35.27594999 212.45384784 C-33.88063696 195.15604596 -32.49787218 177.85726697 -31.12082031 160.55800264 C-29.70502446 142.77368453 -28.28024517 124.99010638 -26.84593993 107.20727122 C-26.04151911 97.23169398 -25.24076398 87.25585424 -24.44959068 77.27921677 C-23.77671599 68.795334 -23.09546253 60.31217579 -22.40329894 51.82984404 C-22.05049283 47.50334804 -21.70159944 43.17663041 -21.36322212 38.84897995 C-21.05335597 34.88725604 -20.73231859 30.92660156 -20.40238164 26.96650012 C-20.2850489 25.53452785 -20.17179615 24.10221413 -20.06305822 22.66956358 C-19.01358307 8.89937811 -19.01358307 8.89937811 -15.76171875 3.38818359 C-10.57588778 0.22828836 -5.96672832 -0.04605831 0 0 Z " fill="#000000" transform="translate(47.76171875,118.61181640625)"/>
<path d="M0 0 C0.00546844 1.18604073 0.00546844 1.18604073 0.01104736 2.39604187 C0.04894956 9.85584447 0.10582677 17.31514888 0.18390274 24.77463055 C0.22337442 28.60945509 0.2555641 32.44405013 0.27099609 36.27905273 C0.28616521 39.98166097 0.32061388 43.68363825 0.36830902 47.38596535 C0.38312045 48.79685792 0.39104089 50.20784059 0.39188385 51.61881065 C0.39425557 53.59843867 0.42363126 55.57797812 0.45410156 57.55737305 C0.46298401 58.68322311 0.47186646 59.80907318 0.48101807 60.96903992 C1.11309639 64.66050594 2.41994252 66.33485568 5 69 C7.93080294 70.46540147 9.72099861 70.3555088 13 70 C15.91945101 68.66428313 18.52316143 66.90732107 21.1875 65.125 C22.39853394 64.33826904 22.39853394 64.33826904 23.6340332 63.53564453 C26.43447987 61.70770949 29.21828066 59.85630483 32 58 C33.61648438 56.92395508 33.61648438 56.92395508 35.265625 55.82617188 C39.92587019 52.72276275 44.58337659 49.61530265 49.23486328 46.4987793 C55.71241461 42.16248999 62.22554937 37.91252273 68.86499023 33.82885742 C75.23385567 29.89531731 81.48956377 25.79064121 87.75 21.6875 C88.87051826 20.95376714 89.99104233 20.22004315 91.11157227 19.48632812 C96.42789121 16.00296813 101.73966341 12.51284242 107.046875 9.015625 C108.86451776 7.82281674 110.68222237 6.63010272 112.5 5.4375 C113.75441895 4.60641724 113.75441895 4.60641724 115.03417969 3.75854492 C115.79633789 3.25943604 116.55849609 2.76032715 117.34375 2.24609375 C118.33665039 1.59145142 118.33665039 1.59145142 119.34960938 0.92358398 C121 0 121 0 123 0 C123.00546844 1.18604073 123.00546844 1.18604073 123.01104736 2.39604187 C123.04894956 9.85584447 123.10582677 17.31514888 123.18390274 24.77463055 C123.22337442 28.60945509 123.2555641 32.44405013 123.27099609 36.27905273 C123.28616521 39.98166097 123.32061388 43.68363825 123.36830902 47.38596535 C123.38312045 48.79685792 123.39104089 50.20784059 123.39188385 51.61881065 C123.39425557 53.59843867 123.42363126 55.57797812 123.45410156 57.55737305 C123.46298401 58.68322311 123.47186646 59.80907318 123.48101807 60.96903992 C124.11309639 64.66050594 125.41994252 66.33485568 128 69 C130.87369348 70.43684674 132.79849813 70.29966664 136 70 C138.42676062 68.78363107 140.51384788 67.56434493 142.75 66.0625 C143.42192383 65.62719971 144.09384766 65.19189941 144.78613281 64.7434082 C146.32243589 63.74501451 147.8543766 62.73988854 149.3828125 61.72949219 C152.28855304 59.80931812 155.20604524 57.90783583 158.125 56.0078125 C162.59592656 53.09447108 167.06195064 50.17386619 171.5234375 47.24609375 C177.13167868 43.56686999 182.74949329 39.9027586 188.375 36.25 C189.17647461 35.72946045 189.97794922 35.2089209 190.80371094 34.67260742 C192.40129829 33.6351478 193.99895392 32.59779332 195.59667969 31.56054688 C200.55599824 28.34031484 205.51312736 25.11671295 210.47070312 21.89379883 C214.81050894 19.07266816 219.15089933 16.25244288 223.4921875 13.43359375 C224.39324219 12.84835937 225.29429687 12.263125 226.22265625 11.66015625 C227.94121619 10.54397815 229.65995493 9.42807527 231.37890625 8.3125 C232.15878906 7.80589844 232.93867188 7.29929687 233.7421875 6.77734375 C234.47405273 6.30280762 235.20591797 5.82827148 235.95996094 5.33935547 C237.80662196 4.1269593 239.62643477 2.8823383 241.4453125 1.62890625 C244 0 244 0 246 0 C246 73.59 246 147.18 246 223 C138.09 223 30.18 223 -81 223 C-87.91542682 140.01487822 -87.91542682 140.01487822 -90.1350708 111.06134033 C-90.50814493 106.20136642 -90.88425025 101.34162602 -91.26003551 96.48186111 C-91.54945013 92.73884494 -91.83847246 88.99580086 -92.12580872 85.25262451 C-92.22649155 83.94432678 -92.32717438 82.63602905 -92.4309082 81.28808594 C-92.52057861 80.05517319 -92.61024902 78.82226044 -92.70263672 77.55198669 C-92.89947143 75.20080782 -93.14563438 72.85319447 -93.44287109 70.5125885 C-93.57234131 69.44471603 -93.70181152 68.37684357 -93.83520508 67.27661133 C-94.03065666 65.88361565 -94.03065666 65.88361565 -94.23005676 64.46247864 C-94 62 -94 62 -92.1214447 59.83381653 C-89.82781438 58.08364535 -87.45496813 56.60021253 -84.95690918 55.15985107 C-81.93974695 53.37159289 -79.05026898 51.3994321 -76.1368103 49.44822693 C-73.52143616 47.70035736 -70.89351995 45.97301113 -68.26123047 44.25073242 C-54.77294602 35.4245635 -41.29113457 26.59134847 -27.953125 17.5390625 C-27.09177948 16.95460861 -26.23043396 16.37015472 -25.34298706 15.76799011 C-21.25674878 12.9923808 -17.17582477 10.20923097 -13.10009766 7.41821289 C-11.64750067 6.42848987 -10.19486619 5.43882185 -8.7421875 4.44921875 C-7.75318451 3.76703781 -7.75318451 3.76703781 -6.74420166 3.07107544 C-2.22609048 0 -2.22609048 0 0 0 Z " fill="#FDB655" transform="translate(246,269)"/>
<path d="M0 0 C6.09930916 4.01270339 8.94123906 9.50031477 12.375 15.8125 C12.92027344 16.79154297 13.46554687 17.77058594 14.02734375 18.77929688 C15.36246269 21.18016866 16.68273882 23.58928415 18 26 C25.26 26 32.52 26 40 26 C40.79664063 24.54207031 41.59328125 23.08414062 42.4140625 21.58203125 C43.48373468 19.65849795 44.55408292 17.73534049 45.625 15.8125 C46.40810547 14.37293945 46.40810547 14.37293945 47.20703125 12.90429688 C50.22942497 7.51249574 52.82001099 3.45332601 58 0 C62.88476692 -1.05357718 65.74934641 0.2424634 69.93359375 2.6015625 C70.90498291 3.14433838 71.87637207 3.68711426 72.87719727 4.24633789 C73.90772217 4.82504639 74.93824707 5.40375488 76 6 C78.12152392 7.15914933 80.24393521 8.31667589 82.3671875 9.47265625 C84.53683979 10.66857905 86.70610797 11.86519896 88.875 13.0625 C89.97585938 13.66126953 91.07671875 14.26003906 92.2109375 14.87695312 C105.00591822 21.96543455 105.00591822 21.96543455 107.1875 28.625 C107.64477435 35.60170015 102.52866107 41.55294569 99.00390625 47.1953125 C98.36324219 48.24460938 97.72257813 49.29390625 97.0625 50.375 C96.45535156 51.33148438 95.84820312 52.28796875 95.22265625 53.2734375 C93.76993142 56.51306029 93.82524711 57.69076306 95 61 C96.31733115 63.57177853 96.31733115 63.57177853 97.9375 66.0625 C99.77602806 68.9942069 101.47571557 71.89446005 103 75 C103.87213135 75.01458252 104.7442627 75.02916504 105.64282227 75.04418945 C108.90659996 75.10557372 112.16957957 75.17978388 115.43286133 75.26245117 C116.8399778 75.29551994 118.24722116 75.32360704 119.65454102 75.34643555 C121.68820824 75.38031799 123.72073135 75.43264218 125.75390625 75.48828125 C127.58417358 75.52755737 127.58417358 75.52755737 129.45141602 75.56762695 C133.62086282 76.0756483 136.28274049 77.05997562 140 79 C142.13617077 82.20425616 142.25739977 83.07117597 142.29052734 86.75927734 C142.30328705 87.72392914 142.31604675 88.68858093 142.32919312 89.6824646 C142.33141876 90.72311066 142.33364441 91.76375671 142.3359375 92.8359375 C142.3459227 94.44319199 142.3459227 94.44319199 142.35610962 96.08291626 C142.36623987 98.35083295 142.37092652 100.61877946 142.37060547 102.88671875 C142.37497439 106.35466745 142.41127975 109.8213394 142.44921875 113.2890625 C142.45508765 115.49218315 142.45905655 117.69530984 142.4609375 119.8984375 C142.47530853 120.9350351 142.48967957 121.97163269 142.50448608 123.03964233 C142.45882128 130.24533961 142.45882128 130.24533961 140.09619141 134.13134766 C136.39413176 137.43155317 133.32927474 137.13206426 128.5859375 137.09765625 C127.85629791 137.0962413 127.12665833 137.09482635 126.37490845 137.09336853 C124.04156415 137.08776531 121.70831536 137.07521235 119.375 137.0625 C117.79427222 137.05748541 116.21354293 137.05292243 114.6328125 137.04882812 C110.75517146 137.03779484 106.87760193 137.02052811 103 137 C102.56059082 138.3921875 102.56059082 138.3921875 102.11230469 139.8125 C100.53349197 144.33685883 97.89808243 148.02022184 95.265625 152 C93.72249626 154.90892963 93.72249626 154.90892963 94.48046875 157.8515625 C96.79006616 162.63700084 99.58935152 167.07746688 102.45507812 171.546875 C105.4767183 176.46314125 107.08914947 180.16368159 107 186 C104.59047715 191.06914808 101.49160448 193.32584705 96.6875 196.0625 C95.73907227 196.60571899 95.73907227 196.60571899 94.77148438 197.15991211 C93.33953147 197.97795401 91.90424274 198.79017432 90.46630859 199.59765625 C87.67127047 201.1869157 84.90878796 202.82656416 82.14453125 204.46875 C80.09696134 205.6677042 78.04878515 206.8656236 76 208.0625 C75.02119873 208.64717041 74.04239746 209.23184082 73.03393555 209.83422852 C63.68035494 215.21821337 63.68035494 215.21821337 58 214 C51.79689594 210.27654293 49.00886095 204.4079555 45.625 198.1875 C45.07972656 197.20845703 44.53445313 196.22941406 43.97265625 195.22070312 C42.63741809 192.81961695 41.31370203 190.41291559 40 188 C32.77854015 186.60957485 25.03966106 185.38041701 18 188 C13.04552035 192.63874241 10.39023095 198.72915216 7.55859375 204.796875 C4.11600259 212.13392135 4.11600259 212.13392135 0 214 C-8.03049374 214.99090389 -14.7454436 210.27426808 -21.375 206.375 C-22.43460937 205.77042969 -23.49421875 205.16585937 -24.5859375 204.54296875 C-46.59451889 191.89342871 -46.59451889 191.89342871 -49 186 C-48.91456255 177.43726875 -44.50202387 171.5617698 -40.04101562 164.51367188 C-39.49767578 163.61841797 -38.95433594 162.72316406 -38.39453125 161.80078125 C-37.88768799 160.99809814 -37.38084473 160.19541504 -36.85864258 159.3684082 C-35.73116666 156.98059591 -35.73116666 156.98059591 -36.74243164 154.40380859 C-38.94772919 150.18844077 -41.23072126 146.02300637 -43.5390625 141.86328125 C-45 139 -45 139 -45 137 C-45.97348389 137.02094727 -46.94696777 137.04189453 -47.94995117 137.06347656 C-51.57463776 137.13608186 -55.19926055 137.18187335 -58.82446289 137.21972656 C-60.39097923 137.23979558 -61.95742109 137.26705751 -63.52368164 137.30175781 C-65.78029794 137.35048754 -68.03592083 137.3730147 -70.29296875 137.390625 C-70.98899704 137.41127014 -71.68502533 137.43191528 -72.40214539 137.45318604 C-75.99581935 137.45483032 -77.87681281 137.08015358 -80.91918945 135.10058594 C-83.89662809 132.09485063 -84.13071877 130.46678993 -84.19287109 126.35424805 C-84.20893402 125.38952072 -84.22499695 124.4247934 -84.24154663 123.43083191 C-84.28596513 119.01680163 -84.32706 114.60292216 -84.35009766 110.1887207 C-84.36666174 107.85984304 -84.39395742 105.53101631 -84.43212891 103.20239258 C-84.48686002 99.84689932 -84.50876647 96.49259809 -84.5234375 93.13671875 C-84.54610687 92.0969841 -84.56877625 91.05724945 -84.59213257 89.98600769 C-84.57106238 82.78391291 -84.57106238 82.78391291 -81.71728516 78.86645508 C-77.08127418 75.6820612 -73.86303724 75.92516012 -68.29296875 76.140625 C-66.28379881 76.16634554 -64.27462062 76.19190704 -62.26538086 76.21142578 C-60.88492886 76.23705278 -59.50470168 76.2841197 -58.12573242 76.35302734 C-53.48476729 76.57167379 -49.4132513 76.51459927 -45 75 C-41.62888813 71.02890445 -39.86033859 66.82431305 -38 62 C-37.34 61.01 -36.68 60.02 -36 59 C-36.3684182 55.79345752 -37.78633978 53.44626579 -39.46875 50.734375 C-40.20158203 49.52201172 -40.20158203 49.52201172 -40.94921875 48.28515625 C-41.97612638 46.60640801 -43.00990416 44.93184144 -44.05078125 43.26171875 C-47.18431313 38.04467754 -48.85228652 34.12339537 -49 28 C-46.38759102 21.61411138 -40.36550053 18.49380936 -34.59765625 15.21484375 C-33.99747177 14.87248184 -33.39728729 14.53011993 -32.77891541 14.17738342 C-31.51693323 13.45858939 -30.2537747 12.74185711 -28.98950195 12.02709961 C-27.06914175 10.94125549 -25.15246078 9.84914311 -23.23632812 8.75585938 C-6.26685378 -0.89526483 -6.26685378 -0.89526483 0 0 Z M15.6875 92.3125 C11.22235361 96.77764639 9.82819254 100.25182948 9.625 106.5 C9.81425002 112.5724573 11.34150299 116.07255753 15.3125 120.6875 C20.57315762 125.21411237 24.76514649 126.52102943 31.60546875 126.28515625 C37.51589123 125.58130496 41.22272526 122.38980577 45 118 C48.65224653 112.7105395 48.94435138 107.22212823 48 101 C45.93860556 95.90165408 42.69031712 91.90352964 38 89 C29.59115176 86.04952693 22.7465373 86.85538887 15.6875 92.3125 Z " fill="#010101" transform="translate(370,3)"/>
<path d="M0 0 C29.04 0 58.08 0 88 0 C92.12985651 49.13686421 96.16478344 98.27649465 99.99954224 147.43693542 C100.06959599 148.33499594 100.13964973 149.23305645 100.21182632 150.15833092 C100.35112264 151.94437994 100.49037231 153.73043261 100.62957382 155.51648903 C101.51019922 166.81205053 102.4066108 178.10613828 103.328125 189.3984375 C103.42587723 190.59997467 103.52362946 191.80151184 103.62434387 193.03945923 C104.05651703 198.34781729 104.49200485 203.65585694 104.93432617 208.96337891 C105.08005854 210.74640757 105.22565796 212.52944712 105.37109375 214.3125 C105.4363324 215.07678314 105.50157104 215.84106628 105.56878662 216.62850952 C105.98598102 221.80388675 106 226.7660946 106 232 C65.08 232 24.16 232 -18 232 C-18 218.5 -18 218.5 -17 212 C-15.79810028 211.99857498 -14.59620056 211.99714996 -13.35787964 211.99568176 C-2.02813151 211.97900842 9.30125761 211.9362242 20.63081551 211.86790943 C26.45542673 211.83362656 32.27977529 211.80852737 38.10449219 211.80444336 C43.72628127 211.8001633 49.3474777 211.771724 54.96908188 211.72656822 C57.11322451 211.71358401 59.25743804 211.70928878 61.40161514 211.71384621 C64.40657706 211.71874545 67.40980238 211.69268867 70.41455078 211.65942383 C71.30000076 211.66804947 72.18545074 211.67667511 73.09773254 211.68556213 C77.36813801 211.60637477 80.15820353 211.31281142 83.55148315 208.58769226 C86.04615592 206.29080451 86.04615592 206.29080451 86.76171875 203.9375 C86.73722656 203.298125 86.71273437 202.65875 86.6875 202 C86.69136719 201.360625 86.69523437 200.72125 86.69921875 200.0625 C85.55199184 196.67850108 83.7900368 195.21209591 81 193 C77.87478793 192.26405878 74.81941271 192.30920383 71.61987305 192.34057617 C70.21426369 192.32485062 70.21426369 192.32485062 68.78025818 192.30880737 C65.69040802 192.28006186 62.60167865 192.28634847 59.51171875 192.29296875 C57.36650692 192.27985345 55.22130743 192.26454975 53.0761261 192.24714661 C47.43559263 192.20726437 41.79538197 192.19710403 36.15472412 192.19311523 C30.39666939 192.18378996 24.63880481 192.14638015 18.88085938 192.11132812 C7.58724849 192.04671928 -3.70622048 192.01350617 -15 192 C-15.06252143 186.4614156 -14.9259894 181.01327593 -14.45263672 175.48925781 C-14.39387769 174.79075903 -14.33511866 174.09226025 -14.27457905 173.37259483 C-14.07973245 171.06579725 -13.87964917 168.75948432 -13.6796875 166.453125 C-13.53869746 164.79254409 -13.39810831 163.13192911 -13.25788879 161.47128296 C-12.95739327 157.91877997 -12.65486082 154.36645913 -12.35067749 150.81427002 C-11.54050119 141.34835347 -10.74450874 131.88123954 -9.94921875 122.4140625 C-9.82710116 120.96209787 -9.82710116 120.96209787 -9.70251656 119.48080063 C-7.74045771 96.12952046 -5.92247679 72.76740705 -4.13432407 49.40225029 C-3.89928417 46.33360051 -3.66323033 43.26502905 -3.42712975 40.19646072 C-3.2709969 38.16007417 -3.11673953 36.12354407 -2.96260071 34.08700562 C-2.08933189 22.71086527 -1.03336357 11.36699929 0 0 Z " fill="#FDF3CB" transform="translate(39,260)"/>
<path d="M0 0 C2.54878209 2.54878209 3.89171713 4.31247902 5.59375 7.37890625 C6.06683594 8.21744141 6.53992188 9.05597656 7.02734375 9.91992188 C8.01077604 11.684622 8.99254214 13.45025168 9.97265625 15.21679688 C10.44574219 16.05404297 10.91882813 16.89128906 11.40625 17.75390625 C11.83228516 18.52033447 12.25832031 19.2867627 12.69726562 20.07641602 C14.01479686 22.28277729 14.01479686 22.28277729 17 24 C18.95379499 24.27785432 18.95379499 24.27785432 21 24.1875 C21.680625 24.18105469 22.36125 24.17460938 23.0625 24.16796875 C25.21758209 24.05697746 25.21758209 24.05697746 28 23 C30.47032171 22.90164996 32.90534367 22.86022552 35.375 22.875 C36.08309814 22.87330811 36.79119629 22.87161621 37.52075195 22.86987305 C43.15810834 22.89324884 48.65185974 23.43166571 54.23046875 24.26953125 C57.38442684 23.96258751 58.64479758 23.09470651 60.7253418 20.7355957 C63.41071447 17.07914784 65.60321056 13.14298349 67.8125 9.1875 C68.31458984 8.30384766 68.81667969 7.42019531 69.33398438 6.50976562 C70.56329606 4.34383552 71.78500517 2.17398315 73 0 C74.89709988 0.93493439 76.79262578 1.87306296 78.6875 2.8125 C79.74324219 3.33457031 80.79898438 3.85664063 81.88671875 4.39453125 C84.66776696 5.8286728 87.33904567 7.35603378 90 9 C89.44254835 15.0015007 85.69601747 19.65925405 82.50585938 24.5859375 C79.65441734 29.19432866 78.06601083 32.42219056 79 38 C80.67947488 41.10555341 80.67947488 41.10555341 83 44 C88.18758852 51.66538125 92.76289493 58.8986867 95.9296875 67.671875 C96.89567239 70.30909936 96.89567239 70.30909936 100 72 C103.19990054 72.36999337 103.19990054 72.36999337 106.85546875 72.4140625 C107.51710526 72.43342865 108.17874176 72.4527948 108.86042786 72.4727478 C110.96932164 72.53242687 113.07827037 72.57888087 115.1875 72.625 C116.61916415 72.66319066 118.05080559 72.70224303 119.48242188 72.7421875 C122.98816165 72.83973852 126.49366577 72.91939462 130 73 C130 79.6 130 86.2 130 93 C127.89238281 93.01417969 125.78476562 93.02835937 123.61328125 93.04296875 C121.56111893 93.07362588 119.5092767 93.11270425 117.45727539 93.15258789 C116.03649298 93.17571503 114.61554042 93.19015126 113.19458008 93.19555664 C111.14557534 93.20488661 109.0992265 93.24595166 107.05078125 93.29296875 C105.82012939 93.3086792 104.58947754 93.32438965 103.3215332 93.34057617 C99.11148985 94.17639588 97.66605534 95.7025184 95 99 C93.79305884 101.52737909 92.74148733 103.95786122 91.75 106.5625 C88.97073462 113.46675533 85.62962553 118.60966278 80.72265625 124.25390625 C78.40231752 127.95276822 78.31028872 129.6748428 79 134 C81.05369093 138.50362668 83.69426887 142.65954973 86.265625 146.88085938 C86.76835937 147.73873047 87.27109375 148.59660156 87.7890625 149.48046875 C88.26037598 150.25285889 88.73168945 151.02524902 89.21728516 151.82104492 C90 154 90 154 89.34179688 156.14868164 C87.18718121 159.12147104 84.04739537 160.55386782 80.875 162.25 C80.21628906 162.61351562 79.55757812 162.97703125 78.87890625 163.3515625 C77.25799664 164.24423736 75.62968964 165.12345675 74 166 C69.77534784 161.10057701 66.81942979 155.61228402 63.7109375 149.97460938 C63.08058594 148.86762695 63.08058594 148.86762695 62.4375 147.73828125 C62.06496094 147.06837158 61.69242187 146.39846191 61.30859375 145.70825195 C59.74197101 143.66316626 58.38115617 142.93492172 56 142 C53.74080208 141.72335805 53.74080208 141.72335805 51.4375 141.8125 C50.67308594 141.81894531 49.90867187 141.82539063 49.12109375 141.83203125 C46.81102284 141.92946495 46.81102284 141.92946495 44 143 C41.54318899 143.0960133 39.08368167 143.12983042 36.625 143.125 C35.31789063 143.12757813 34.01078125 143.13015625 32.6640625 143.1328125 C29.60333519 143.02186929 26.96704178 142.68231623 24 142 C20.5 141.5 20.5 141.5 17 142 C12.02668425 146.0330869 9.27575312 151.28333119 6.1875 156.8125 C5.68541016 157.69615234 5.18332031 158.57980469 4.66601562 159.49023438 C3.43670394 161.65616448 2.21499483 163.82601685 1 166 C-4.83152493 162.88708633 -10.58700334 159.80372738 -16 156 C-14.31276885 150.05760898 -11.32997937 145.21385479 -8.1015625 140.00976562 C-5.45994925 135.5370341 -4.12426277 132.32791181 -5 127 C-6.44646585 124.62802885 -7.81882333 122.68223315 -9.5625 120.5625 C-14.02608703 114.79907718 -17.06598146 109.04519613 -19.66625977 102.24243164 C-21.20784964 98.32165638 -22.3176721 96.08934593 -26 94 C-29.28735828 93.49566229 -29.28735828 93.49566229 -32.953125 93.48828125 C-33.94345734 93.46135445 -33.94345734 93.46135445 -34.95379639 93.43388367 C-37.05246689 93.37991191 -39.15091177 93.34592957 -41.25 93.3125 C-42.67711464 93.27931505 -44.10419956 93.24482429 -45.53125 93.20898438 C-49.02086334 93.12174404 -52.50946253 93.06157274 -56 93 C-56 86.4 -56 79.8 -56 73 C-53.95296875 72.95101562 -51.9059375 72.90203125 -49.796875 72.8515625 C-47.80776094 72.79592295 -45.81864813 72.74021631 -43.82958984 72.68261719 C-42.45044757 72.64440662 -41.07120833 72.60953998 -39.69189453 72.578125 C-37.70583033 72.53230376 -35.72008321 72.47333737 -33.734375 72.4140625 C-32.54038086 72.3826416 -31.34638672 72.3512207 -30.11621094 72.31884766 C-27.14295861 72.01462739 -25.42746221 71.7046508 -23 70 C-21.76875405 67.51698734 -20.73619674 65.13871754 -19.75 62.5625 C-17.14092651 56.15559932 -14.1028509 50.80062065 -9.796875 45.33203125 C-7.07653043 41.8014971 -5.21003873 39.26641002 -4.46875 34.796875 C-5.21440845 29.46761021 -7.66626374 25.75473553 -10.5 21.25 C-11.53685678 19.57115819 -12.56837381 17.88900325 -13.59375 16.203125 C-14.05458984 15.46739258 -14.51542969 14.73166016 -14.99023438 13.97363281 C-16 12 -16 12 -16 9 C-10.72 6.03 -5.44 3.06 0 0 Z M23.6875 68.3125 C19.22235361 72.77764639 17.82819254 76.25182948 17.625 82.5 C17.81425002 88.5724573 19.34150299 92.07255753 23.3125 96.6875 C28.57315762 101.21411237 32.76514649 102.52102943 39.60546875 102.28515625 C45.51589123 101.58130496 49.22272526 98.38980577 53 94 C56.65224653 88.7105395 56.94435138 83.22212823 56 77 C53.93860556 71.90165408 50.69031712 67.90352964 46 65 C37.59115176 62.04952693 30.7465373 62.85538887 23.6875 68.3125 Z " fill="#FCF2CA" transform="translate(362,27)"/>
<path d="M0 0 C0.68461807 -0.00817749 1.36923615 -0.01635498 2.07460022 -0.02478027 C4.35018021 -0.04968024 6.62569752 -0.06616399 8.90136719 -0.08056641 C9.67752129 -0.08589008 10.45367538 -0.09121376 11.2533493 -0.09669876 C15.3633882 -0.12345345 19.47339651 -0.14281873 23.58349609 -0.15722656 C27.82857039 -0.1738584 32.07286586 -0.21861613 36.31764603 -0.26959801 C39.58106367 -0.30326958 42.84429675 -0.31480397 46.10787201 -0.32045364 C47.67239059 -0.32716911 49.2368969 -0.3423991 50.80124664 -0.36634445 C52.994442 -0.39799312 55.18554217 -0.39803453 57.37890625 -0.390625 C59.24968842 -0.40275528 59.24968842 -0.40275528 61.15826416 -0.41513062 C65.32327974 0.35458169 66.76930966 2.00186114 69.44824219 5.19287109 C69.94324219 5.68787109 69.94324219 5.68787109 70.44824219 6.19287109 C70.56749593 7.7256352 70.61833558 9.26379788 70.64111328 10.80102539 C70.65717621 11.78262131 70.67323914 12.76421722 70.68978882 13.77555847 C70.73414423 18.28404175 70.77532859 22.79237485 70.79833984 27.30102539 C70.81487982 29.67840375 70.84214361 32.05573279 70.88037109 34.43286133 C70.93518073 37.85703388 70.95702386 41.28003745 70.97167969 44.70458984 C70.99434906 45.76417404 71.01701843 46.82375824 71.04037476 47.91545105 C71.01680472 56.16367229 71.01680472 56.16367229 68.04052734 59.84838867 C64.14519708 63.371355 62.17122781 63.3302834 56.98242188 63.38574219 C55.98694588 63.39800842 55.98694588 63.39800842 54.97135925 63.41052246 C52.7709544 63.43537145 50.57061413 63.45189286 48.37011719 63.46630859 C47.24223156 63.47429411 47.24223156 63.47429411 46.09156036 63.48244095 C42.1100415 63.50917301 38.12855396 63.52854589 34.14697266 63.54296875 C30.03989692 63.55959864 25.93362644 63.60436104 21.82685471 63.65534019 C18.66462312 63.68904709 15.50258165 63.70054994 12.34018707 63.70619583 C10.82673249 63.71290108 9.3132901 63.72810452 7.80001068 63.75208664 C-5.53393734 63.95130789 -5.53393734 63.95130789 -9.46484375 60.78515625 C-12.22579279 57.35561052 -12.68082737 55.76512368 -12.74462891 51.45532227 C-12.76069183 50.47057419 -12.77675476 49.48582611 -12.79330444 48.47123718 C-12.83771576 43.96561328 -12.8788175 39.46013723 -12.90185547 34.9543457 C-12.9184203 32.57696752 -12.94571693 30.19963923 -12.98388672 27.82250977 C-13.03861037 24.39752322 -13.06052323 20.97370451 -13.07519531 17.54833984 C-13.09786469 16.48673141 -13.12053406 15.42512299 -13.14389038 14.3313446 C-13.12032835 6.11198547 -13.12032835 6.11198547 -10.08154297 3.0456543 C-9.24671387 2.43423584 -8.41188477 1.82281738 -7.55175781 1.19287109 C-5.67840898 -0.68047774 -2.49864383 0.02583074 0 0 Z " fill="#010100" transform="translate(298.5517578125,362.80712890625)"/>
<path d="M0 0 C0.65535736 -0.00817749 1.31071472 -0.01635498 1.9859314 -0.02478027 C4.16411414 -0.0496787 6.3422314 -0.06616379 8.52050781 -0.08056641 C9.63509243 -0.08855192 9.63509243 -0.08855192 10.77219391 -0.09669876 C14.70716827 -0.12345311 18.6421107 -0.14281826 22.57714844 -0.15722656 C26.64063638 -0.1738561 30.70331033 -0.21861169 34.76649094 -0.26959801 C37.89093951 -0.30327684 41.01519538 -0.31480475 44.13980865 -0.32045364 C45.63734386 -0.3271674 47.13486633 -0.34239303 48.63222504 -0.36634445 C50.73204935 -0.39800874 52.82968659 -0.39803252 54.9296875 -0.390625 C56.72052765 -0.40275528 56.72052765 -0.40275528 58.54754639 -0.41513062 C62.6253905 0.36549556 64.08559365 2.0758697 66.72363281 5.19287109 C67.21863281 5.68787109 67.21863281 5.68787109 67.72363281 6.19287109 C67.84288655 7.7256352 67.8937262 9.26379788 67.91650391 10.80102539 C67.93256683 11.78262131 67.94862976 12.76421722 67.96517944 13.77555847 C68.00953485 18.28404175 68.05071922 22.79237485 68.07373047 27.30102539 C68.09027045 29.67840375 68.11753424 32.05573279 68.15576172 34.43286133 C68.21057136 37.85703388 68.23241448 41.28003745 68.24707031 44.70458984 C68.26973969 45.76417404 68.29240906 46.82375824 68.31576538 47.91545105 C68.29219535 56.16367229 68.29219535 56.16367229 65.31591797 59.84838867 C61.49337205 63.30552829 59.61397923 63.32892129 54.53320312 63.38574219 C53.23135071 63.40180511 51.92949829 63.41786804 50.5881958 63.43441772 C49.15938978 63.44590574 47.73057645 63.45651419 46.30175781 63.46630859 C45.58293175 63.47163227 44.86410568 63.47695595 44.12349701 63.48244095 C40.31704271 63.50917161 36.51062116 63.52854471 32.70410156 63.54296875 C29.55732079 63.55629775 26.41119009 63.58412945 23.26464844 63.625 C19.46268226 63.67438332 15.66130488 63.69909679 11.85903168 63.70619583 C10.41256028 63.71289885 8.96610152 63.72809652 7.51981354 63.75208664 C-5.21928666 63.95129885 -5.21928666 63.95129885 -9.1484375 60.78515625 C-11.95902493 57.36124421 -12.4051153 55.7868375 -12.46923828 51.45532227 C-12.48530121 50.47057419 -12.50136414 49.48582611 -12.51791382 48.47123718 C-12.56232514 43.96561328 -12.60342687 39.46013723 -12.62646484 34.9543457 C-12.64302968 32.57696752 -12.67032631 30.19963923 -12.70849609 27.82250977 C-12.76321974 24.39752322 -12.78513261 20.97370451 -12.79980469 17.54833984 C-12.82247406 16.48673141 -12.84514343 15.42512299 -12.86849976 14.3313446 C-12.84493773 6.11198547 -12.84493773 6.11198547 -9.80615234 3.0456543 C-8.97132324 2.43423584 -8.13649414 1.82281738 -7.27636719 1.19287109 C-5.43627667 -0.64721942 -2.4678152 0.02665392 0 0 Z " fill="#010100" transform="translate(401.2763671875,362.80712890625)"/>
<path d="M0 0 C0.65535736 -0.00817749 1.31071472 -0.01635498 1.9859314 -0.02478027 C4.16411414 -0.0496787 6.3422314 -0.06616379 8.52050781 -0.08056641 C9.63509243 -0.08855192 9.63509243 -0.08855192 10.77219391 -0.09669876 C14.70716827 -0.12345311 18.6421107 -0.14281826 22.57714844 -0.15722656 C26.64063638 -0.1738561 30.70331033 -0.21861169 34.76649094 -0.26959801 C37.89093951 -0.30327684 41.01519538 -0.31480475 44.13980865 -0.32045364 C45.63734386 -0.3271674 47.13486633 -0.34239303 48.63222504 -0.36634445 C50.73204935 -0.39800874 52.82968659 -0.39803252 54.9296875 -0.390625 C56.72052765 -0.40275528 56.72052765 -0.40275528 58.54754639 -0.41513062 C62.6253905 0.36549556 64.08559365 2.0758697 66.72363281 5.19287109 C67.21863281 5.68787109 67.21863281 5.68787109 67.72363281 6.19287109 C67.84288655 7.7256352 67.8937262 9.26379788 67.91650391 10.80102539 C67.93256683 11.78262131 67.94862976 12.76421722 67.96517944 13.77555847 C68.00953485 18.28404175 68.05071922 22.79237485 68.07373047 27.30102539 C68.09027045 29.67840375 68.11753424 32.05573279 68.15576172 34.43286133 C68.21057136 37.85703388 68.23241448 41.28003745 68.24707031 44.70458984 C68.26973969 45.76417404 68.29240906 46.82375824 68.31576538 47.91545105 C68.29219535 56.16367229 68.29219535 56.16367229 65.31591797 59.84838867 C61.49337205 63.30552829 59.61397923 63.32892129 54.53320312 63.38574219 C53.23135071 63.40180511 51.92949829 63.41786804 50.5881958 63.43441772 C49.15938978 63.44590574 47.73057645 63.45651419 46.30175781 63.46630859 C45.58293175 63.47163227 44.86410568 63.47695595 44.12349701 63.48244095 C40.31704271 63.50917161 36.51062116 63.52854471 32.70410156 63.54296875 C29.55732079 63.55629775 26.41119009 63.58412945 23.26464844 63.625 C19.46268226 63.67438332 15.66130488 63.69909679 11.85903168 63.70619583 C10.41256028 63.71289885 8.96610152 63.72809652 7.51981354 63.75208664 C-5.21928666 63.95129885 -5.21928666 63.95129885 -9.1484375 60.78515625 C-11.95902493 57.36124421 -12.4051153 55.7868375 -12.46923828 51.45532227 C-12.48530121 50.47057419 -12.50136414 49.48582611 -12.51791382 48.47123718 C-12.56232514 43.96561328 -12.60342687 39.46013723 -12.62646484 34.9543457 C-12.64302968 32.57696752 -12.67032631 30.19963923 -12.70849609 27.82250977 C-12.76321974 24.39752322 -12.78513261 20.97370451 -12.79980469 17.54833984 C-12.82247406 16.48673141 -12.84514343 15.42512299 -12.86849976 14.3313446 C-12.84493773 6.11198547 -12.84493773 6.11198547 -9.80615234 3.0456543 C-8.97132324 2.43423584 -8.13649414 1.82281738 -7.27636719 1.19287109 C-5.43627667 -0.64721942 -2.4678152 0.02665392 0 0 Z " fill="#010100" transform="translate(198.2763671875,362.80712890625)"/>
<path d="M0 0 C11.56642309 5.86929453 17.75343486 13.66276657 22.4765625 25.71875 C25.56076754 36.84747141 22.8886578 47.56305161 17.66015625 57.4609375 C12.53940174 66.33990658 4.42673114 72.15530744 -5.26269531 75.19506836 C-9.2411944 76.15507649 -13.0979516 76.26609042 -17.17578125 76.21484375 C-18.42524536 76.20565918 -18.42524536 76.20565918 -19.69995117 76.19628906 C-25.76205294 76.04159808 -30.54943742 75.18712143 -35.67578125 71.77734375 C-36.74828125 71.11734375 -37.82078125 70.45734375 -38.92578125 69.77734375 C-43.68283146 66.31767087 -47.24187064 63.39723037 -50.36328125 58.33984375 C-51.23533203 56.94958984 -51.23533203 56.94958984 -52.125 55.53125 C-57.07637705 46.73850234 -58.43879925 35.8697133 -55.9921875 26.02734375 C-51.18447311 13.25996945 -43.14313524 4.53894643 -30.875 -1.27734375 C-21.51650806 -5.29999926 -9.13628737 -4.17468313 0 0 Z M-29.98828125 22.08984375 C-34.45342764 26.55499014 -35.84758871 30.02917323 -36.05078125 36.27734375 C-35.86153123 42.34980105 -34.33427826 45.84990128 -30.36328125 50.46484375 C-25.10262363 54.99145612 -20.91063476 56.29837318 -14.0703125 56.0625 C-8.15989002 55.35864871 -4.45305599 52.16714952 -0.67578125 47.77734375 C2.97646528 42.48788325 3.26857013 36.99947198 2.32421875 30.77734375 C0.26282431 25.67899783 -2.98546413 21.68087339 -7.67578125 18.77734375 C-16.08462949 15.82687068 -22.92924395 16.63273262 -29.98828125 22.08984375 Z " fill="#020202" transform="translate(415.67578125,73.22265625)"/>
<path d="M0 0 C4.40548376 2.12407253 4.40548376 2.12407253 6 5 C7.64700899 13.72085337 5.73901395 20.67856686 1 28 C0.401875 28.928125 -0.19625 29.85625 -0.8125 30.8125 C-8.84245488 38.84245488 -17.604358 40.3131127 -28.56640625 40.3359375 C-29.67805649 40.3425943 -30.78970673 40.3492511 -31.93504333 40.35610962 C-34.27918854 40.36621152 -36.62336235 40.3709274 -38.9675293 40.37060547 C-42.55370176 40.37498924 -46.13865356 40.41136577 -49.72460938 40.44921875 C-52.00520413 40.45508524 -54.28580472 40.45905576 -56.56640625 40.4609375 C-58.17280724 40.48249405 -58.17280724 40.48249405 -59.81166077 40.50448608 C-67.24031454 40.45883566 -67.24031454 40.45883566 -71.15209961 38.09619141 C-74.27425612 34.55452992 -74.39595505 31.8563475 -74.3515625 27.26171875 C-74 25 -74 25 -71.75 22 C-67.98622712 19.26271063 -65.04084171 18.88394007 -60.46264648 18.81054688 C-59.57169785 18.79382935 -58.68074921 18.77711182 -57.76280212 18.7598877 C-56.80853836 18.74631226 -55.8542746 18.73273682 -54.87109375 18.71875 C-53.88504654 18.70034058 -52.89899933 18.68193115 -51.8830719 18.66296387 C-47.66637916 18.58435813 -43.44952923 18.51649838 -39.23266602 18.44775391 C-36.15372833 18.39603098 -33.07492736 18.33878741 -29.99609375 18.28125 C-28.56166176 18.26088684 -28.56166176 18.26088684 -27.09825134 18.2401123 C-26.21045486 18.22339478 -25.32265839 18.20667725 -24.40795898 18.18945312 C-23.62726547 18.17692505 -22.84657196 18.16439697 -22.04222107 18.15148926 C-19.79818847 18.06894175 -19.79818847 18.06894175 -17 17 C-16.11440629 14.60287764 -16.11440629 14.60287764 -15.5625 11.75 C-14.46150098 7.2880566 -13.38304057 4.27391023 -10 1 C-6.74602524 -0.62698738 -3.51554334 -0.5273315 0 0 Z " fill="#000000" transform="translate(240,0)"/>
<path d="M0 0 C2.56272636 4.10036218 2.76418942 7.28900606 1.875 12 C0.382895 15.04908413 -0.71547449 16.51426499 -3.97265625 17.63671875 C-6.34690695 18.17534187 -8.7246056 18.5933953 -11.125 19 C-20.8604536 20.86777428 -27.85878072 23.45411271 -34 31.5 C-37.10772431 36.28111432 -38.12681685 40.98756143 -39 46.5625 C-39.76685908 51.03584465 -40.71942988 53.80727801 -44.125 57 C-47.32673254 58.60086627 -50.65077059 58.49917089 -54.125 58 C-56.9350346 56.20636089 -58.63440468 54.98119065 -60.125 52 C-61.31361639 37.85351644 -57.92417832 26.16630422 -49.125 15 C-42.65462252 7.95604317 -36.09300342 3.28730672 -27.125 0 C-26.073125 -0.4125 -25.02125 -0.825 -23.9375 -1.25 C-16.10013016 -3.33996529 -7.10053461 -4.54434215 0 0 Z " fill="#000000" transform="translate(104.125,22)"/>
<path d="M0 0 C0.72815918 -0.00570007 1.45631836 -0.01140015 2.20654297 -0.01727295 C3.7359881 -0.02665781 5.26545286 -0.03323076 6.79492188 -0.03710938 C9.11884914 -0.04684922 11.44190324 -0.07794681 13.765625 -0.109375 C15.26041148 -0.11590368 16.75520421 -0.12115468 18.25 -0.125 C18.93562012 -0.1373468 19.62124023 -0.1496936 20.32763672 -0.16241455 C25.37608867 -0.13937426 28.73766444 0.86859202 33.125 3.203125 C35.8040573 7.22171095 35.82110694 10.47954221 35.125 15.203125 C33.33106332 18.07342369 32.14236724 19.69444138 29.125 21.203125 C26.5100592 21.33582237 23.91736146 21.4130511 21.30078125 21.44921875 C19.69856268 21.48217812 18.09634927 21.51538939 16.49414062 21.54882812 C13.97082333 21.59607759 11.44752375 21.64046824 8.92407227 21.67993164 C6.486912 21.71992435 4.05019324 21.7714223 1.61328125 21.82421875 C0.49570183 21.83683998 0.49570183 21.83683998 -0.64445496 21.84971619 C-5.38000822 21.96012969 -9.41528657 22.55084945 -13.875 24.203125 C-15.21524623 26.62164051 -15.21524623 26.62164051 -15.5625 29.515625 C-16.52298709 34.03940061 -17.45755841 36.89592346 -20.875 40.203125 C-24.07673254 41.80399127 -27.40077059 41.70229589 -30.875 41.203125 C-33.6850346 39.40948589 -35.38440468 38.18431565 -36.875 35.203125 C-38.07090913 25.90833756 -36.06865653 18.94764824 -30.875 11.203125 C-22.97265799 1.83320519 -11.66337498 0.07229648 0 0 Z " fill="#000000" transform="translate(130.875,58.796875)"/>
<path d="M0 0 C27.06 0 54.12 0 82 0 C82.33 6.6 82.66 13.2 83 20 C55.28 20 27.56 20 -1 20 C-0.67 13.4 -0.34 6.8 0 0 Z " fill="#F93B63" transform="translate(42,220)"/>
<path d="M0 0 C24.42 0 48.84 0 74 0 C75 5 75 5 75 20 C49.92 20 24.84 20 -1 20 C-1 5 -1 5 0 0 Z " fill="#FCF2CB" transform="translate(46,180)"/>
<path d="M0 0 C22.44 0 44.88 0 68 0 C69 8 69 8 69 20 C45.9 20 22.8 20 -1 20 C-1 8 -1 8 0 0 Z " fill="#FA3B64" transform="translate(49,140)"/>
<path d="M0 0 C3.125 1.6875 3.125 1.6875 5 5 C6.41616716 13.68582522 4.94707473 20.7623619 0 28 C-2.5 30.875 -2.5 30.875 -5 33 C-5.763125 33.70125 -6.52625 34.4025 -7.3125 35.125 C-13.96114558 39.76358994 -20.93978405 41.17308307 -29 40 C-32.00197464 38.19881522 -33.45166366 37.09667268 -35 34 C-35.63132573 29.40936007 -35.69641229 26.06783218 -33.125 22.125 C-29.58380718 19.71698889 -26.44277825 18.74192682 -22.3046875 17.7734375 C-19.71637834 16.90481849 -18.6187059 16.18525296 -17 14 C-16.39616721 11.8980399 -16.39616721 11.8980399 -16.125 9.625 C-15.4571269 6.37574436 -14.86889671 4.79924809 -13 1.9375 C-8.66790787 -0.8603095 -5.01181479 -0.96128251 0 0 Z " fill="#000000" transform="translate(261,40)"/>
<path d="M0 0 C14.19 0 28.38 0 43 0 C43 7.59 43 15.18 43 23 C28.81 23 14.62 23 0 23 C0 15.41 0 7.82 0 0 Z " fill="#4CBAE9" transform="translate(306,383)"/>
<path d="M0 0 C13.2 0 26.4 0 40 0 C40 7.59 40 15.18 40 23 C26.8 23 13.6 23 0 23 C0 15.41 0 7.82 0 0 Z " fill="#4CBAE9" transform="translate(409,383)"/>
<path d="M0 0 C13.2 0 26.4 0 40 0 C40 7.59 40 15.18 40 23 C26.8 23 13.6 23 0 23 C0 15.41 0 7.82 0 0 Z " fill="#4CBAE9" transform="translate(206,383)"/>
<path d="M0 0 C2.37453302 3.70427151 2.33978135 7.16245258 1.5625 11.4375 C-0.23143668 14.30779869 -1.42013276 15.92881638 -4.4375 17.4375 C-11.52708838 18.0186138 -11.52708838 18.0186138 -15.375 15.5625 C-18.75748756 12.07751282 -18.83449445 9.40142543 -18.7890625 4.69921875 C-18.4375 2.4375 -18.4375 2.4375 -16.1875 -0.5625 C-10.50437273 -4.69568347 -5.96847198 -3.82594358 0 0 Z " fill="#000000" transform="translate(204.4375,62.5625)"/>
<path d="M0 0 C2.37453302 3.70427151 2.33978135 7.16245258 1.5625 11.4375 C-0.23143668 14.30779869 -1.42013276 15.92881638 -4.4375 17.4375 C-11.52708838 18.0186138 -11.52708838 18.0186138 -15.375 15.5625 C-18.75748756 12.07751282 -18.83449445 9.40142543 -18.7890625 4.69921875 C-18.4375 2.4375 -18.4375 2.4375 -16.1875 -0.5625 C-10.50437273 -4.69568347 -5.96847198 -3.82594358 0 0 Z " fill="#000000" transform="translate(144.4375,22.5625)"/>
</svg>
