<?xml version="1.0" standalone="no"?>
<!DOCTYPE svg PUBLIC "-//W3C//DTD SVG 20010904//EN"
 "http://www.w3.org/TR/2001/REC-SVG-20010904/DTD/svg10.dtd">
<svg version="1.0" xmlns="http://www.w3.org/2000/svg"
 width="32.000000pt" height="32.000000pt" viewBox="0 0 32.000000 32.000000"
 preserveAspectRatio="xMidYMid meet">

<g transform="translate(0.000000,32.000000) scale(0.100000,-0.100000)"
fill="#000000" stroke="none">
<path d="M209 289 c-27 -27 -20 -82 16 -118 l25 -26 25 26 c36 36 43 91 16
118 -11 11 -30 21 -41 21 -11 0 -30 -10 -41 -21z m57 -30 c10 -17 -13 -36 -27
-22 -12 12 -4 33 11 33 5 0 12 -5 16 -11z"/>
<path d="M29 149 c-27 -27 -20 -82 16 -118 l25 -26 25 26 c36 36 43 91 16 118
-11 11 -30 21 -41 21 -11 0 -30 -10 -41 -21z m57 -30 c10 -17 -13 -36 -27 -22
-12 12 -4 33 11 33 5 0 12 -5 16 -11z"/>
<path d="M162 158 c-16 -16 -15 -43 1 -56 7 -6 33 -12 57 -14 40 -3 45 -6 45
-28 0 -24 -3 -25 -70 -28 -99 -4 -109 -22 -13 -22 80 0 108 13 108 48 0 32
-19 46 -66 51 -50 6 -71 28 -35 38 11 3 18 9 15 14 -7 13 -28 11 -42 -3z"/>
</g>
</svg>
