<?xml version="1.0" encoding="UTF-8"?>
<svg version="1.1" xmlns="http://www.w3.org/2000/svg" width="1024" height="1024">
<path d="M0 0 C5.04450591 4.62542388 8.87277739 9.63291658 12.2890625 15.515625 C12.629375 16.08837158 12.9696875 16.66111816 13.3203125 17.2512207 C20.69924417 30.75147285 23.74870177 46.40553557 26.80767822 61.31903076 C27.85084769 66.38808889 28.93596462 71.4481012 30.0234375 76.5078125 C30.2375528 77.50450958 30.45166809 78.50120667 30.67227173 79.52810669 C37.48101201 110.97006523 45.25522477 146.59763205 64.5390625 173.015625 C65.17585938 173.89605469 65.81265625 174.77648437 66.46875 175.68359375 C70.58335904 181.10303017 74.79106841 185.36325376 80.5390625 189.015625 C81.5703125 189.675625 82.6015625 190.335625 83.6640625 191.015625 C87.46105317 192.33631741 88.94806835 191.7363097 92.5390625 190.015625 C95.56143207 188.27887746 95.56143207 188.27887746 98.5390625 186.015625 C99.07273437 185.64050781 99.60640625 185.26539063 100.15625 184.87890625 C110.86978467 176.65861352 117.10802763 163.05811908 122.5390625 151.015625 C122.86229492 150.30148437 123.18552734 149.58734375 123.51855469 148.8515625 C137.0417698 118.38732467 144.03766157 84.41928874 150.58618164 51.86328125 C152.27393478 43.47948925 153.97484168 35.41723646 157.3515625 27.515625 C157.87085327 26.26785278 157.87085327 26.26785278 158.40063477 24.99487305 C164.16096612 11.51898931 172.48093359 -1.22099418 186.5390625 -6.984375 C214.83569132 -16.94059625 251.95078957 -6.05386089 277.9140625 6.140625 C293.93144478 13.86287295 308.00371358 23.94225144 322.3203125 34.39697266 C343.99127711 50.20666625 365.66980776 64.22799468 391.5390625 72.015625 C392.39886719 72.30050781 393.25867188 72.58539063 394.14453125 72.87890625 C406.37987783 76.67205821 419.68864774 77.64724893 432.40478516 78.68041992 C452.11028008 80.33117212 467.61138274 86.79597129 482.5390625 100.015625 C483.17585937 100.56863281 483.81265625 101.12164062 484.46875 101.69140625 C500.98396497 117.02696301 510.27714179 140.84187536 511.5390625 163.015625 C511.97945719 186.13634613 504.15242765 210.61976151 488.5390625 228.015625 C487.8790625 228.015625 487.2190625 228.015625 486.5390625 228.015625 C486.2709375 228.61375 486.0028125 229.211875 485.7265625 229.828125 C484.53988844 232.01410354 483.44307137 233.42895094 481.5390625 235.015625 C480.8790625 235.015625 480.2190625 235.015625 479.5390625 235.015625 C479.5390625 235.675625 479.5390625 236.335625 479.5390625 237.015625 C477.65342606 238.57809419 475.77265351 240.02540077 473.7890625 241.453125 C473.25023437 241.84822266 472.71140625 242.24332031 472.15625 242.65039062 C470.62017418 243.7762218 469.07971148 244.89606013 467.5390625 246.015625 C466.20444389 247.013909 464.87084348 248.01355853 463.5390625 249.015625 C464.1875415 249.27666016 464.83602051 249.53769531 465.50415039 249.80664062 C509.6042838 267.6419137 509.6042838 267.6419137 514.5 276.81640625 C514.55991826 280.18980442 513.14928104 282.93631003 511.7890625 285.953125 C506.58363924 297.76640351 504.97820137 309.27490304 505.0390625 322.140625 C505.03982788 322.81450256 505.04059326 323.48838013 505.04138184 324.18267822 C505.0972501 337.87242643 507.18090336 349.96446017 512.9140625 362.453125 C514.5390625 366.015625 514.5390625 366.015625 514.4921875 367.97265625 C508.35722982 381.12258603 479.39191561 390.07069925 466.79931641 394.84375 C454.82953429 399.14620276 442.55383436 402.92185631 430.25390625 406.14453125 C428.91005859 406.57572266 428.91005859 406.57572266 427.5390625 407.015625 C427.2090625 407.675625 426.8790625 408.335625 426.5390625 409.015625 C427.11785156 409.26054688 427.69664062 409.50546875 428.29296875 409.7578125 C432.9568552 412.36958891 436.11125267 416.98825126 439.5390625 421.015625 C440.03116211 421.58619629 440.52326172 422.15676758 441.03027344 422.74462891 C474.94768672 462.2655124 494.70068406 513.55394185 491.5390625 566.015625 C491.2469771 569.35382868 490.90887248 572.68518516 490.5390625 576.015625 C489.57983887 575.92063721 488.62061523 575.82564941 487.63232422 575.7277832 C476.00755058 574.57846106 464.38099467 573.44790683 452.75354004 572.3260498 C450.60140002 572.11821583 448.44930068 571.90996033 446.29724121 571.70129395 C432.74865731 570.38769695 419.19765576 569.1176076 405.63722229 567.93202209 C399.00958388 567.34671247 392.3937258 566.693135 385.77890015 565.97779846 C381.68723396 565.54597396 377.5918931 565.1641995 373.4942627 564.79373169 C371.59824612 564.61144702 369.70410761 564.40813273 367.81286621 564.18161011 C357.79663343 562.99279651 350.64399195 562.69235642 342.42578125 569.1015625 C340.63058523 570.59276343 338.87044553 572.11331725 337.12619019 573.66369629 C333.55329994 576.70711425 329.37691463 578.87242569 325.2890625 581.140625 C324.40992188 581.63578613 323.53078125 582.13094727 322.625 582.64111328 C314.59283864 587.10454392 306.36475874 591.11052913 297.99243164 594.8918457 C296.20140501 595.71223535 294.42061282 596.55507474 292.64624023 597.41088867 C284.14726246 601.46782821 275.53254438 604.64475473 266.6015625 607.578125 C265.88051331 607.816521 265.15946411 608.05491699 264.41656494 608.30053711 C244.76252396 614.77292173 223.41664671 621.015625 202.5390625 621.015625 C202.42425537 620.38922119 202.30944824 619.76281738 202.19116211 619.11743164 C192.14225697 564.99472567 172.00330013 504.04560292 131.234375 464.796875 C129.5390625 463.015625 129.5390625 463.015625 129.5390625 461.015625 C128.8790625 461.015625 128.2190625 461.015625 127.5390625 461.015625 C127.5390625 460.355625 127.5390625 459.695625 127.5390625 459.015625 C127.00152344 458.79648437 126.46398437 458.57734375 125.91015625 458.3515625 C122.72607582 456.55756661 120.23514342 454.1394034 117.6015625 451.640625 C116.57306676 450.67293341 115.54313541 449.70676521 114.51171875 448.7421875 C114.06062744 448.31502441 113.60953613 447.88786133 113.14477539 447.44775391 C112.61489014 446.97515137 112.08500488 446.50254883 111.5390625 446.015625 C110.82339111 445.31687256 110.10771973 444.61812012 109.37036133 443.89819336 C105.72049501 441.47134856 102.5204564 441.28406666 98.265625 441.16796875 C97.46872253 441.13790237 96.67182007 441.107836 95.85076904 441.07685852 C93.28785518 441.00123723 90.72800815 440.96979307 88.1640625 440.953125 C86.86749725 440.93868347 86.86749725 440.93868347 85.54473877 440.9239502 C72.30383765 440.75125434 72.30383765 440.75125434 60.70849609 446.47875977 C58.0075597 449.16830445 55.77449111 451.92041616 53.5390625 455.015625 C51.328125 457.4375 51.328125 457.4375 49.5390625 459.015625 C48.8790625 459.015625 48.2190625 459.015625 47.5390625 459.015625 C47.15234375 459.89927734 47.15234375 459.89927734 46.7578125 460.80078125 C45.43753796 463.20012633 44.04907944 464.60374466 42.0390625 466.453125 C19.36474733 488.67884761 4.19650972 519.96128718 -7.4609375 549.015625 C-7.99195068 550.33216064 -7.99195068 550.33216064 -8.53369141 551.67529297 C-17.39247348 573.96151104 -23.24455679 597.43718025 -27.4609375 621.015625 C-49.14677367 619.00326413 -69.71008948 614.64629979 -90.4609375 608.015625 C-91.34265625 607.73799316 -92.224375 607.46036133 -93.1328125 607.17431641 C-116.54413983 599.66761619 -139.9175947 588.48273963 -160.390625 574.859375 C-161.04748291 574.42584717 -161.70434082 573.99231934 -162.38110352 573.5456543 C-164.4609375 572.015625 -164.4609375 572.015625 -166.71069336 569.87036133 C-172.52363705 564.69948292 -176.9182603 563.34082598 -184.48046875 563.71484375 C-188.087587 563.96563171 -191.67729079 564.32939249 -195.2734375 564.703125 C-197.24739489 564.87560411 -199.22169397 565.04421022 -201.19628906 565.20922852 C-206.51340363 565.66477963 -211.82397503 566.17505606 -217.1350708 566.69555664 C-222.74989798 567.23590557 -228.36928437 567.72403034 -233.98828125 568.21875 C-247.4856111 569.4185955 -260.97369708 570.70788527 -274.4609375 572.015625 C-276.58885836 572.22112011 -278.71678792 572.42652506 -280.84472656 572.63183594 C-292.38480517 573.74623262 -303.92360693 574.87313275 -315.4609375 576.015625 C-320.80596021 521.97495938 -303.87842895 469.59705792 -269.8359375 427.578125 C-258.48965897 413.83014129 -258.48965897 413.83014129 -253.4609375 409.015625 C-252.8009375 409.015625 -252.1409375 409.015625 -251.4609375 409.015625 C-252.31201697 406.74134712 -252.31201697 406.74134712 -254.99511719 406.08935547 C-256.11305664 405.77369629 -257.23099609 405.45803711 -258.3828125 405.1328125 C-259.62587158 404.77437256 -260.86893066 404.41593262 -262.1496582 404.04663086 C-262.81228668 403.85841766 -263.47491516 403.67020447 -264.15762329 403.47628784 C-290.72048687 395.89981362 -317.83359524 386.79810641 -339.4609375 369.015625 C-338.63159128 364.00268786 -336.75503563 359.62474442 -334.8125 354.953125 C-330.95967155 344.42263649 -329.90818762 334.04167295 -329.9609375 322.890625 C-329.96170288 322.21674744 -329.96246826 321.54286987 -329.96325684 320.84857178 C-330.0191251 307.15882357 -332.10277836 295.06678983 -337.8359375 282.578125 C-339.4609375 279.015625 -339.4609375 279.015625 -339.3359375 277.01953125 C-334.08843319 265.00180933 -308.52107244 256.8448942 -297.2734375 252.390625 C-294.34205568 251.24803309 -291.40471112 250.1261318 -288.4609375 249.015625 C-289.28078125 248.40074219 -290.100625 247.78585937 -290.9453125 247.15234375 C-294.1171875 244.7734375 -297.2890625 242.39453125 -300.4609375 240.015625 C-301.24984375 239.46519531 -302.03875 238.91476562 -302.8515625 238.34765625 C-303.64820313 237.68830078 -303.64820313 237.68830078 -304.4609375 237.015625 C-304.4609375 236.355625 -304.4609375 235.695625 -304.4609375 235.015625 C-305.0590625 234.7475 -305.6571875 234.479375 -306.2734375 234.203125 C-308.45941604 233.01645094 -309.87426344 231.91963387 -311.4609375 230.015625 C-311.4609375 229.355625 -311.4609375 228.695625 -311.4609375 228.015625 C-312.1209375 228.015625 -312.7809375 228.015625 -313.4609375 228.015625 C-329.5773024 208.48874304 -338.26966432 183.65261147 -335.99609375 158.34765625 C-333.26724825 133.94240569 -322.09180401 112.63165797 -303.58203125 96.5078125 C-288.60571178 84.74212876 -273.55075614 80.0837318 -254.7109375 78.515625 C-244.4769795 77.58567421 -234.43693346 76.59983866 -224.4609375 74.015625 C-223.8097998 73.84836914 -223.15866211 73.68111328 -222.48779297 73.50878906 C-190.50255454 65.13756501 -165.13342784 47.69953316 -138.83984375 28.3515625 C-106.03247621 4.35018513 -38.26651262 -30.85617208 0 0 Z " fill="#C2A078" transform="translate(424.4609375,290.984375)"/>
<path d="M0 0 C1.13554447 -0.00073643 2.27108894 -0.00147285 3.44104385 -0.0022316 C42.35758974 -0.02272005 81.1001455 0.70732374 119.9375 3.25 C120.84884705 3.30800781 121.76019409 3.36601563 122.69915771 3.42578125 C133.19893696 4.09558229 143.66992262 4.96181647 154.14135742 5.9798584 C157.37828874 6.29258559 160.61587305 6.5980456 163.85351562 6.90332031 C171.09796581 7.58818878 178.34091167 8.28785786 185.58322906 8.99483871 C187.5157903 9.1829533 189.44853651 9.36916444 191.38128662 9.55532837 C208.99499974 11.2618448 226.45762259 13.49777766 243.9375 16.25 C245.99587604 16.56879574 248.05430605 16.88724326 250.11279297 17.20532227 C256.09963094 18.13571108 262.08206835 19.09182943 268.0625 20.0625 C269.108685 20.23230377 270.15487 20.40210754 271.23275757 20.57705688 C289.60854377 23.57622949 307.79212584 27.08356704 325.9375 31.25 C327.70171912 31.637192 329.46603124 32.02396066 331.23046875 32.41015625 C359.17773549 38.7468049 387.28152889 48.61570221 411.9375 63.25 C411.5 65 411.0625 66.75 410.625 68.5 C410.21701172 70.13582031 410.21701172 70.13582031 409.80078125 71.8046875 C409.24060971 74.04030424 408.67578046 76.27476102 408.10546875 78.5078125 C407.84378906 79.53648437 407.58210937 80.56515625 407.3125 81.625 C406.95285156 83.02878906 406.95285156 83.02878906 406.5859375 84.4609375 C401.69156189 105.51264947 406.77499727 125.8153653 411.9375 146.25 C396.40254525 154.93656803 380.84987447 161.7336287 363.9375 167.25 C362.89754883 167.59514648 361.85759766 167.94029297 360.78613281 168.29589844 C316.0449864 183.05257881 268.83824108 190.16588695 222.25 196.4375 C220.66324463 196.65140381 220.66324463 196.65140381 219.04443359 196.86962891 C215.34472152 197.35249062 211.64221645 197.80758838 207.9375 198.25 C207.02957703 198.35902649 206.12165405 198.46805298 205.18621826 198.5803833 C186.6384421 200.78447371 168.06485249 202.40367888 149.4375 203.75 C148.71058456 203.80264889 147.98366913 203.85529778 147.23472595 203.90954208 C135.80528276 204.73487131 124.37297506 205.51303243 112.9375 206.25 C111.89990036 206.31692425 111.89990036 206.31692425 110.84133911 206.3852005 C73.82794132 208.75892848 36.88514212 209.52850958 -0.19868469 209.55962753 C-3.23951799 209.56243267 -6.28033793 209.56794374 -9.32116699 209.57363892 C-48.43865051 209.62675176 -87.47746729 208.15885264 -126.5 205.4375 C-127.71481049 205.35418427 -128.92962097 205.27086853 -130.1812439 205.18502808 C-320.10514893 192.05718423 -320.10514893 192.05718423 -408.0625 146.25 C-407.60416667 144.41666667 -407.14583333 142.58333333 -406.6875 140.75 C-406.41292969 139.6465625 -406.13835937 138.543125 -405.85546875 137.40625 C-405.40991848 135.63282824 -404.95882867 133.86070356 -404.48828125 132.09375 C-403.97428756 130.15290984 -403.50778168 128.20776737 -403.0625 126.25 C-402.87558594 125.44046875 -402.68867188 124.6309375 -402.49609375 123.796875 C-398.74621006 105.02123359 -400.72008999 85.3695958 -407.29296875 67.47265625 C-408.0625 65.25 -408.0625 65.25 -408.0625 63.25 C-384.23419696 49.20626584 -358.62072155 40.26985037 -331.76293945 33.9206543 C-328.54052467 33.1203674 -325.34581499 32.23255338 -322.14453125 31.3515625 C-313.22111192 28.93369616 -304.19142935 27.10468469 -295.125 25.3125 C-294.25733002 25.13980591 -293.38966003 24.96711182 -292.49569702 24.78918457 C-276.94867351 21.70388708 -261.37336098 19.0412747 -245.68603516 16.77490234 C-242.32343664 16.28779907 -238.96447638 15.78069582 -235.60546875 15.26953125 C-199.78035851 9.95028295 -163.58802765 6.23730576 -127.41796875 4.43994141 C-121.25304065 4.09096629 -115.10723672 3.53015454 -108.96069336 2.94628906 C-95.89758044 1.71955989 -82.80458419 1.07035524 -69.69140625 0.703125 C-68.96543306 0.68243202 -68.23945988 0.66173904 -67.4914875 0.64041901 C-44.99947953 0.01730227 -22.49906384 0.0067111 0 0 Z " fill="#DB0126" transform="translate(510.0625,508.75)"/>
<path d="M0 0 C33.32373417 31.90931422 63.60246374 78.03871076 64.68945312 125.80004883 C64.71154497 129.68495053 64.70051358 133.56824666 64.67578125 137.453125 C64.67075612 138.81380044 64.66619501 140.17447767 64.66210938 141.53515625 C64.65038584 144.84119225 64.63397552 148.14713501 64.61328125 151.453125 C47.58759916 150.88632125 30.67562449 149.36039938 13.72741699 147.71966553 C10.21314999 147.38049483 6.69835029 147.04694311 3.18359375 146.71289062 C-6.73235054 145.76907194 -16.64749004 144.81697163 -26.56152344 143.85327148 C-41.08408833 142.43599927 -41.08408833 142.43599927 -55.63671875 141.390625 C-57.31314453 141.24463867 -57.31314453 141.24463867 -59.0234375 141.09570312 C-64.83276649 140.78436688 -68.49450517 140.94551087 -73.16015625 144.609375 C-74.57482071 145.88420679 -75.98389597 147.16527413 -77.38671875 148.453125 C-105.21425915 168.60743437 -138.30400035 182.68369292 -171.38671875 191.453125 C-172.12954102 191.65518555 -172.87236328 191.85724609 -173.63769531 192.06542969 C-183.58220992 194.74028158 -193.08167205 196.15312364 -203.38671875 196.453125 C-203.61838745 195.39460327 -203.61838745 195.39460327 -203.85473633 194.31469727 C-216.9850458 135.21171997 -240.89226772 80.1537334 -283.94921875 36.765625 C-284.46218506 36.24790527 -284.97515137 35.73018555 -285.50366211 35.19677734 C-288.18995003 32.48649815 -288.18995003 32.48649815 -291.38671875 30.453125 C-291.38671875 29.793125 -291.38671875 29.133125 -291.38671875 28.453125 C-289.47777832 28.38581177 -289.47777832 28.38581177 -287.53027344 28.31713867 C-208.85634052 25.51288076 -130.70526434 20.5134614 -53.01171875 7.453125 C-51.55694626 7.21088196 -51.55694626 7.21088196 -50.07278442 6.96374512 C-38.47882537 5.02421004 -27.00702932 2.82045367 -15.58486938 0.02758789 C-4.17311873 -2.70467269 -4.17311873 -2.70467269 0 0 Z " fill="#DF1622" transform="translate(839.38671875,702.546875)"/>
<path d="M0 0 C1.92520222 0.38684513 3.85049891 0.77322037 5.77587891 1.15917969 C6.77403625 1.35991089 7.7721936 1.56064209 8.80059814 1.76745605 C26.03922627 5.22219603 43.21269079 8.38316284 60.65722656 10.61181641 C64.44713708 11.11490657 68.22732596 11.67369603 72.0078125 12.2421875 C138.22681401 22.11286026 205.27796804 25.40522441 272.140625 27.07421875 C269.17900804 30.04739449 266.19834195 32.99530282 263.171875 35.90234375 C253.1326324 45.65224864 244.21182038 55.64399413 236.140625 67.07421875 C235.70347168 67.68265625 235.26631836 68.29109375 234.81591797 68.91796875 C207.99778773 106.44483454 193.44991696 150.61367282 183.140625 195.07421875 C175.4965411 195.41359668 168.69985438 194.16812788 161.265625 192.44921875 C160.0688916 192.17561523 158.8721582 191.90201172 157.63916016 191.62011719 C121.18918519 183.10061411 75.30525166 167.23884541 48.140625 140.07421875 C46.71188334 140.03588674 45.28110422 140.07002574 43.85327148 140.13378906 C42.94255386 140.17300476 42.03183624 140.21222046 41.09352112 140.25262451 C40.09715134 140.30203186 39.10078156 140.35143921 38.07421875 140.40234375 C37.04050644 140.45094543 36.00679413 140.49954712 34.9417572 140.54962158 C23.67985718 141.10503996 12.44247018 141.93008075 1.203125 142.82421875 C0.12675781 142.90837036 -0.94960937 142.99252197 -2.05859375 143.07922363 C-20.87967776 144.55686076 -39.65193901 146.40237263 -58.41381836 148.49902344 C-76.356021 150.48177595 -76.356021 150.48177595 -84.859375 150.07421875 C-86.022721 94.63332443 -66.70362566 48.62942131 -29.421875 7.88671875 C-28.71442139 7.11207275 -28.71442139 7.11207275 -27.99267578 6.32177734 C-26.64475859 4.87747811 -25.25235739 3.47510458 -23.859375 2.07421875 C-23.16690674 1.32857666 -23.16690674 1.32857666 -22.46044922 0.56787109 C-16.45498176 -5.31615112 -7.46938337 -1.52641348 0 0 Z " fill="#DF1622" transform="translate(204.859375,703.92578125)"/>
<path d="M0 0 C31.31390612 2.55623723 58.69916102 22.11504015 83.09204102 40.2734375 C95.83650838 49.74230669 108.70785655 58.43047107 122.75 65.875 C123.57677246 66.31545654 124.40354492 66.75591309 125.25537109 67.2097168 C136.18274893 72.86281073 147.53140212 76.68196956 159.4375 79.6875 C160.62762695 79.99002686 161.81775391 80.29255371 163.04394531 80.60424805 C172.85033302 83.04912274 182.28183136 84.71265865 192.3828125 85.33984375 C214.54991992 86.79594356 231.00936084 92.75903543 246.65625 109.21875 C259.45632487 124.40817218 266.39955192 142.10959426 266.25 162 C266.25773437 163.02867187 266.26546875 164.05734375 266.2734375 165.1171875 C266.21684274 187.35892877 255.73037083 206.93972626 240.4375 222.62890625 C233.89396268 228.85858204 226.92783205 233.71013863 219 238 C218.23429687 238.4228125 217.46859375 238.845625 216.6796875 239.28125 C208.4945351 241.47668446 199.29269153 237.62236568 191.36914062 235.47869873 C133.13260352 219.81242402 72.9207009 212.52420061 12.93273926 207.67301941 C8.76432095 207.3319461 4.60251761 206.96984125 0.44458008 206.51757812 C-17.97537564 204.53741916 -36.49241761 203.87879647 -54.99047852 203.00842285 C-59.73796705 202.7839655 -64.48518013 202.55382615 -69.23242188 202.32421875 C-78.48802572 201.87736992 -87.74390961 201.43664664 -97 201 C-94.15643344 198.15643344 -90.66773804 197.40076492 -86.9375 196.125 C-67.65457582 189.22930532 -49.48495366 180.17739445 -33 168 C-32.01515625 167.27683594 -31.0303125 166.55367187 -30.015625 165.80859375 C-16.80277658 155.50804476 -4.88798998 143.2200084 4 129 C4.38736328 128.38721191 4.77472656 127.77442383 5.17382812 127.14306641 C11.69444752 116.66656878 16.26914739 105.74297068 20 94 C20.3388623 92.96286865 20.3388623 92.96286865 20.68457031 91.90478516 C28.08544514 68.50278696 25.44096427 41.15221658 14.25 19.4375 C11.07488712 13.79824099 7.13861746 8.95045714 3 4 C1.99095305 2.67350008 0.98772602 1.34245115 0 0 Z " fill="#C71220" transform="translate(658,295)"/>
<path d="M0 0 C-0.556875 0.55945313 -1.11375 1.11890625 -1.6875 1.6953125 C-18.62093377 19.48685947 -24.55645578 41.627834 -24.49169922 65.78393555 C-24.22902513 76.28181284 -22.10540091 86.0033888 -19 96 C-18.78069824 96.71591309 -18.56139648 97.43182617 -18.33544922 98.16943359 C-5.9354792 137.37563092 25.4126196 165.61265577 60.9465332 184.20800781 C72.49394568 190.07308173 84.66654768 195.04850557 97 199 C97 199.33 97 199.66 97 200 C95.86836426 200.04487549 94.73672852 200.08975098 93.57080078 200.13598633 C79.37806827 200.70437116 65.18854623 201.33560509 51 202 C50.00029175 202.04620483 49.0005835 202.09240967 47.97058105 202.14001465 C-18.44504279 205.23226807 -85.87342199 211.30456158 -151 225 C-151.7251178 225.15188782 -152.4502356 225.30377563 -153.19732666 225.46026611 C-177.67784448 230.55760004 -177.67784448 230.55760004 -201.75073242 237.2734375 C-207.66038852 239.10984782 -212.44017704 240.09238956 -218.359375 237.56640625 C-240.01201016 224.76939953 -256.06216737 207.46660625 -264.25 183.3125 C-269.4250447 160.45605256 -266.04676964 137.99874281 -254 118 C-251.55739564 114.42603431 -248.92016926 111.19141028 -246 108 C-245.40960938 107.31808594 -244.81921875 106.63617188 -244.2109375 105.93359375 C-231.38261605 91.98620596 -214.82748127 86.27648681 -196.4375 84.625 C-152.51988626 80.29026737 -118.21417142 65.07438214 -83 39 C-21.26228532 -6.71377658 -21.26228532 -6.71377658 0 0 Z " fill="#C71220" transform="translate(366,296)"/>
<path d="M0 0 C11.72110111 8.66169505 19.41191272 20.46205065 23.4921875 34.390625 C23.67096436 34.9993042 23.84974121 35.6079834 24.03393555 36.23510742 C25.87089376 43.3022825 25.8234983 50.31339587 25.8046875 57.578125 C25.82080078 58.80337891 25.83691406 60.02863281 25.85351562 61.29101562 C25.85993151 73.46194287 23.52490511 84.7335044 19.1796875 96.078125 C18.87337402 96.88846191 18.56706055 97.69879883 18.25146484 98.53369141 C11.84179598 115.11385505 1.73046958 128.71330141 -10.5078125 141.390625 C-11.17425781 142.10863281 -11.84070313 142.82664062 -12.52734375 143.56640625 C-39.2300409 171.61829231 -86.92134038 192.87552843 -125.5078125 194.3828125 C-126.1678125 194.38539063 -126.8278125 194.38796875 -127.5078125 194.390625 C-124.83665457 192.33912758 -122.10908393 190.49286192 -119.2578125 188.703125 C-99.14258383 175.28198063 -90.47771788 151.12269042 -82.5078125 129.390625 C-82.19457031 128.54822266 -81.88132812 127.70582031 -81.55859375 126.83789062 C-73.60928286 105.22895601 -68.94342307 82.52115493 -64.26394653 60.02230835 C-53.67016305 9.11865764 -53.67016305 9.11865764 -34.1953125 -3.671875 C-23.10973527 -10.20237228 -10.15665187 -6.51797597 0 0 Z " fill="#99001A" transform="translate(646.5078125,299.609375)"/>
<path d="M0 0 C15.35892389 9.04497802 22.4929792 26.96411032 26.80541992 43.51586914 C27.9929674 48.32597945 29.06192628 53.16116544 30.125 58 C30.51646359 59.73753778 30.90897181 61.47484051 31.30249023 63.21191406 C33.12599998 71.29376835 34.87856694 79.38808701 36.56347656 87.5 C43.58757282 121.11793546 54.56785546 171.75837333 85.10546875 192.6796875 C89.14738985 195.17529019 93.11813474 197.24816756 97.5625 198.9375 C97.5625 199.2675 97.5625 199.5975 97.5625 199.9375 C89.25219274 199.45289744 81.43671255 197.97651609 73.375 195.9375 C71.55101685 195.47718384 71.55101685 195.47718384 69.69018555 195.00756836 C57.6270765 191.85660988 46.06002423 187.73918081 34.5625 182.9375 C33.3863916 182.44878418 33.3863916 182.44878418 32.18652344 181.95019531 C-5.04938339 166.18334578 -36.20045327 138.2403552 -52.30957031 100.91699219 C-61.17261827 78.85608078 -63.11612686 52.83563153 -53.70703125 30.73828125 C-48.0445467 18.27502241 -40.27171173 9.04179589 -28.4375 1.9375 C-27.73109375 1.50308594 -27.0246875 1.06867188 -26.296875 0.62109375 C-18.23554641 -3.66335311 -8.27025212 -3.80734168 0 0 Z " fill="#99011A" transform="translate(410.4375,295.0625)"/>
<path d="M0 0 C2.8125 0.8125 2.8125 0.8125 3.8125 1.8125 C3.61748882 8.12306192 1.611487 10.97648759 -2.625 15.25 C-3.16850098 15.81420654 -3.71200195 16.37841309 -4.27197266 16.9597168 C-15.74827459 28.67601744 -29.16618951 36.43610698 -44.1875 42.8125 C-41.28510833 48.21767868 -37.95869277 52.89386785 -34.0625 57.625 C-33.48701416 58.32496094 -32.91152832 59.02492188 -32.31860352 59.74609375 C-21.18777216 73.13582458 -8.13237613 85.99812374 9.8125 88.8125 C21.71031689 89.68004915 32.55808596 89.16056944 42.5625 81.78515625 C47.20776339 77.71248609 48.2186682 73.86958435 48.8125 67.8125 C48.02875 67.709375 47.245 67.60625 46.4375 67.5 C43.8125 66.8125 43.8125 66.8125 41.8125 63.8125 C41.5625 61.25 41.5625 61.25 41.8125 58.8125 C43.8125 56.8125 43.8125 56.8125 46.6875 56.375 C49.8125 56.8125 49.8125 56.8125 51.75 59.375 C52.430625 60.179375 53.11125 60.98375 53.8125 61.8125 C59.17909319 62.12211115 62.72846036 60.10326033 66.73168945 56.78344727 C72.17060793 51.63169449 75.82860913 44.94126109 79.28515625 38.3671875 C80.17170898 36.72363281 80.17170898 36.72363281 81.07617188 35.046875 C82.28572003 32.78800114 83.45726189 30.50840311 84.59179688 28.2109375 C86.44318779 24.87008172 87.95649137 22.35813481 90.8125 19.8125 C95.63410066 18.82956264 99.96715771 19.08576241 104.8125 19.8125 C100.68249541 28.42751858 96.07297485 36.63244256 91.1796875 44.83203125 C90.58692017 45.82879883 90.58692017 45.82879883 89.98217773 46.84570312 C89.20119931 48.15890751 88.41684144 49.47010787 87.62915039 50.77929688 C85.54332759 54.31035962 84.19998509 56.64739861 84.8125 60.8125 C85.1425 61.1425 85.4725 61.4725 85.8125 61.8125 C93.0786023 61.38508222 97.28713316 58.65532463 102.08203125 53.38671875 C106.36271074 48.43046816 109.39147201 42.92518631 112.5 37.1875 C114.12408064 34.22982468 115.75277791 31.27567149 117.40478516 28.33349609 C118.2440939 26.83042601 119.06390016 25.31578483 119.84130859 23.77978516 C120.75390625 22.125 120.75390625 22.125 122.8125 19.8125 C126.265625 19.2265625 126.265625 19.2265625 130.0625 19.4375 C131.32578125 19.49164062 132.5890625 19.54578125 133.890625 19.6015625 C134.85484375 19.67117188 135.8190625 19.74078125 136.8125 19.8125 C132.2198816 29.3522435 127.01296445 38.39760497 121.49609375 47.42773438 C120.89152344 48.44029297 120.28695312 49.45285156 119.6640625 50.49609375 C119.11572754 51.39900146 118.56739258 52.30190918 118.00244141 53.23217773 C116.71599129 56.02177381 116.48502774 57.77856584 116.8125 60.8125 C117.87228933 62.09862676 117.87228933 62.09862676 120.31640625 61.91015625 C121.32574219 61.89855469 122.33507812 61.88695312 123.375 61.875 C124.38691406 61.86597656 125.39882813 61.85695313 126.44140625 61.84765625 C127.22386719 61.83605469 128.00632812 61.82445312 128.8125 61.8125 C128.956875 61.173125 129.10125 60.53375 129.25 59.875 C129.8125 57.8125 129.8125 57.8125 130.8125 56.8125 C133.625 56.4375 133.625 56.4375 136.8125 56.8125 C137.451875 57.658125 138.09125 58.50375 138.75 59.375 C139.430625 60.179375 140.11125 60.98375 140.8125 61.8125 C146.26210378 61.91341859 149.63534268 60.18977613 153.8125 56.8125 C159.27518307 51.03810891 163.03378788 44.64655808 166.9375 37.75 C168.71316458 34.64164449 170.49231123 31.53617378 172.29492188 28.44335938 C173.18796964 26.89518004 174.05910036 25.33332609 174.87695312 23.74414062 C175.7890625 22.08984375 175.7890625 22.08984375 177.8125 19.8125 C181.265625 19.2265625 181.265625 19.2265625 185.0625 19.4375 C186.32578125 19.49164062 187.5890625 19.54578125 188.890625 19.6015625 C189.85484375 19.67117188 190.8190625 19.74078125 191.8125 19.8125 C187.72141967 28.44368168 183.07065617 36.63632792 178.1796875 44.83203125 C177.78458984 45.49726807 177.38949219 46.16250488 176.98242188 46.84790039 C176.20367692 48.15561338 175.41852134 49.45953044 174.62695312 50.75952148 C172.27951986 54.69458826 171.36209207 57.19581874 171.8125 61.8125 C178.61747953 61.8125 182.44844759 60.59232524 187.359375 55.8359375 C193.96305248 47.69701016 199.3306178 38.05666866 203.86328125 28.62109375 C205.6260205 25.1824311 207.01927029 22.48656462 209.8125 19.8125 C214.70349187 18.74624255 218.89994992 19.14587086 223.8125 19.8125 C219.23346298 29.33358533 214.03339474 38.34869305 208.49609375 47.33984375 C207.89152344 48.34917969 207.28695313 49.35851562 206.6640625 50.3984375 C205.84156006 51.74494385 205.84156006 51.74494385 205.00244141 53.11865234 C203.63536213 56.21351339 203.58833764 58.46480409 203.8125 61.8125 C211.81900433 62.49101732 219.0935818 61.47306966 225.8125 56.8125 C229.28151421 52.45372735 231.38788394 47.231946 233.67382812 42.19238281 C235.61743748 38.13013925 237.93457131 34.2961304 240.25 30.4375 C240.67563232 29.71852539 241.10126465 28.99955078 241.53979492 28.25878906 C243.23803591 25.39779777 244.96665504 22.58126744 246.8125 19.8125 C250.0703125 19.51953125 250.0703125 19.51953125 253.9375 19.625 C255.85949219 19.66560547 255.85949219 19.66560547 257.8203125 19.70703125 C258.80773437 19.74183594 259.79515625 19.77664063 260.8125 19.8125 C259.36154763 23.71880666 257.53281599 27.2109872 255.44140625 30.8125 C254.78462891 31.946875 254.12785156 33.08125 253.45117188 34.25 C252.7591574 35.43752495 252.06709973 36.62502474 251.375 37.8125 C250.68655107 38.99982732 249.99839727 40.18732583 249.31054688 41.375 C244.10499491 50.3483315 244.10499491 50.3483315 242.10913086 53.515625 C240.60438896 56.1811516 240.47751065 57.79759583 240.8125 60.8125 C241.89723412 62.1041351 241.89723412 62.1041351 244.5 62.125 C251.44239056 61.47005749 255.26862419 56.54403223 259.64599609 51.56518555 C263.59247706 46.5509222 266.59566829 41.00404379 269.6875 35.4375 C270.35573457 34.250718 271.02500067 33.06451622 271.6953125 31.87890625 C272.91407774 29.72129543 274.12804757 27.56096305 275.33544922 25.39697266 C276.42350983 23.49313636 277.59614118 21.63703823 278.8125 19.8125 C282.0703125 19.51953125 282.0703125 19.51953125 285.9375 19.625 C287.85949219 19.66560547 287.85949219 19.66560547 289.8203125 19.70703125 C290.80773437 19.74183594 291.79515625 19.77664063 292.8125 19.8125 C291.45096404 23.40622771 289.8510227 26.71311119 287.9765625 30.06640625 C287.41291992 31.07606445 286.84927734 32.08572266 286.26855469 33.12597656 C285.66430664 34.1981543 285.06005859 35.27033203 284.4375 36.375 C283.81262695 37.48456055 283.18775391 38.59412109 282.54394531 39.73730469 C254.40166129 89.50336092 254.40166129 89.50336092 233.91479492 95.35449219 C230.26060383 96.15059746 226.60253634 96.12163189 222.875 96.1875 C221.67713867 96.24357422 221.67713867 96.24357422 220.45507812 96.30078125 C216.06694694 96.36622148 214.34172128 96.2173173 210.73828125 93.4609375 C208.8125 90.8125 208.8125 90.8125 208.9375 88.0625 C209.8125 85.8125 209.8125 85.8125 210.8125 84.8125 C213.5625 84.375 213.5625 84.375 216.8125 84.8125 C217.97110323 86.35730431 219.12872551 87.9029439 220.26953125 89.4609375 C222.40999441 91.33587485 223.93414975 91.34490104 226.75 91.4375 C232.63311985 91.02038072 235.71557622 89.10398372 239.70703125 84.7421875 C244.89734765 78.56938291 248.93470186 71.86524536 252.8125 64.8125 C249.89635088 65.726748 249.89635088 65.726748 247.53125 66.84765625 C242.44265038 68.65352422 237.12448419 68.49945314 231.8125 67.8125 C229.18395716 66.40116662 228.46585594 65.38438701 226.8125 62.8125 C226.8125 62.1525 226.8125 61.4925 226.8125 60.8125 C225.75933594 61.3178125 224.70617187 61.823125 223.62109375 62.34375 C214.28127976 66.62794839 205.25657176 70.23058558 194.8125 67.8125 C191.53949245 65.18336279 189.2886026 63.09742337 188.8125 58.8125 C188.30460937 59.29460938 187.79671875 59.77671875 187.2734375 60.2734375 C180.30762724 66.66528587 175.08303168 68.35214567 165.6015625 68.19921875 C162.8125 67.8125 162.8125 67.8125 159.625 65.5625 C157.99807635 63.09406411 157.40594575 61.61787989 156.8125 58.8125 C156.38839844 59.21082031 155.96429688 59.60914063 155.52734375 60.01953125 C149.18851513 65.74537425 143.71441146 68.27953619 135.09765625 68.05859375 C132.8125 67.8125 132.8125 67.8125 130.125 66.6875 C127.24913506 65.59933489 125.86608557 66.33707837 123.0390625 67.27734375 C118.04031734 68.47879653 112.89080556 68.47227986 107.8125 67.8125 C103.98103588 65.15994792 102.75882299 63.2412916 101.8125 58.8125 C101.38839844 59.21082031 100.96429688 59.60914063 100.52734375 60.01953125 C93.71770539 66.17065513 87.80773415 68.46569735 78.56640625 68.234375 C75.8125 67.8125 75.8125 67.8125 72.625 65.5625 C70.99807635 63.09406411 70.40594575 61.61787989 69.8125 58.8125 C69.41160156 59.21082031 69.01070312 59.60914063 68.59765625 60.01953125 C64.04002739 64.26711733 59.81989397 66.25956823 53.8125 67.8125 C53.750625 68.8025 53.68875 69.7925 53.625 70.8125 C52.51406446 78.25877067 47.62305077 83.61884315 41.98828125 88.27734375 C29.7852249 96.88739967 13.8207638 97.70146834 -0.54345703 95.44189453 C-28.70834609 89.28902834 -46.63799991 66.31036672 -62.1875 43.8125 C-67.23324798 51.91670417 -72.14773848 60.08599685 -76.94873047 68.33764648 C-80.08433146 73.70933146 -80.08433146 73.70933146 -81.1875 74.8125 C-83.54063555 74.88521741 -85.89583668 74.89620868 -88.25 74.875 C-90.18552734 74.86146484 -90.18552734 74.86146484 -92.16015625 74.84765625 C-93.15917969 74.83605469 -94.15820312 74.82445312 -95.1875 74.8125 C-82.92754377 52.21364007 -70.06881403 29.94070379 -56.875 7.875 C-56.50793945 7.26011719 -56.14087891 6.64523437 -55.76269531 6.01171875 C-53.31111354 1.93611354 -53.31111354 1.93611354 -52.1875 0.8125 C-49.83436445 0.73978259 -47.47916332 0.72879132 -45.125 0.75 C-43.83464844 0.75902344 -42.54429687 0.76804687 -41.21484375 0.77734375 C-40.21582031 0.78894531 -39.21679688 0.80054688 -38.1875 0.8125 C-38.64898437 1.61429688 -39.11046875 2.41609375 -39.5859375 3.2421875 C-44.04765309 11.01932811 -48.44006601 18.83143719 -52.77294922 26.68115234 C-54.84768198 30.43300937 -56.9492558 34.15452808 -59.1875 37.8125 C-47.20070272 39.03012049 -35.68923573 33.90873301 -26.1875 26.8125 C-19.22096443 20.7852726 -13.77022721 14.27389985 -8.94140625 6.44140625 C-4.46857653 -0.26285744 -4.46857653 -0.26285744 0 0 Z " fill="#FDF7F8" transform="translate(243.1875,571.1875)"/>
<path d="M0 0 C1.01610352 -0.01522705 1.01610352 -0.01522705 2.05273438 -0.03076172 C6.67206773 0.04970263 9.84781498 1.11294907 13.8125 3.4375 C13.8125 4.0975 13.8125 4.7575 13.8125 5.4375 C14.49699219 4.78265625 15.18148437 4.1278125 15.88671875 3.453125 C19.4551265 0.99478268 21.34703856 1.01465307 25.625 1.1875 C26.78644531 1.22359375 27.94789063 1.2596875 29.14453125 1.296875 C30.02496094 1.34328125 30.90539062 1.3896875 31.8125 1.4375 C30.30415898 5.51973356 28.352018 9.17303623 26.1875 12.9453125 C25.83993652 13.552612 25.49237305 14.1599115 25.13427734 14.78561401 C24.40288229 16.06220957 23.66994459 17.33792241 22.93554688 18.61279297 C21.81303894 20.56156435 20.6951799 22.51294247 19.578125 24.46484375 C14.14148915 33.94401627 14.14148915 33.94401627 11.8125 37.4375 C11.5622843 40.52115871 11.5622843 40.52115871 11.8125 43.4375 C12.92937541 44.75278459 12.92937541 44.75278459 15.75 44.875 C22.5141418 44.68173881 27.66930876 40.65027537 32.21875 35.953125 C40.0501863 26.34181682 45.76483504 15.31387981 51.66430664 4.45605469 C52.8125 2.4375 52.8125 2.4375 53.8125 1.4375 C56.16563555 1.36478259 58.52083668 1.35379132 60.875 1.375 C62.16535156 1.38402344 63.45570313 1.39304687 64.78515625 1.40234375 C65.78417969 1.41394531 66.78320312 1.42554688 67.8125 1.4375 C67.8125 2.4275 67.8125 3.4175 67.8125 4.4375 C69.3284375 3.4475 69.3284375 3.4475 70.875 2.4375 C77.04065607 -0.65084293 84.10282727 -0.55652559 90.8125 0.4375 C94.66520271 2.49468084 97.45706486 4.17522805 98.8125 8.4375 C100.33101812 18.50209685 96.27997246 27.21246415 90.5546875 35.2734375 C83.39819022 44.16289825 74.74354423 49.44060568 63.30078125 50.87890625 C58.61067749 51.04469099 54.19013348 51.1436306 50 48.8125 C47.8125 46.4375 47.8125 46.4375 47.3125 43.3125 C47.8125 40.4375 47.8125 40.4375 49.8125 38.4375 C52.63374201 38.07580231 54.17906913 38.00767191 56.5625 39.625 C58.10088998 41.85566548 58.45255447 43.7739031 58.8125 46.4375 C60.21245496 46.03489857 61.60732862 45.61461618 63 45.1875 C63.77730469 44.95546875 64.55460938 44.7234375 65.35546875 44.484375 C76.32446954 39.81077848 81.83874297 25.65948135 86.125 15.25 C86.94701062 11.8872293 87.01535205 8.88598492 86.8125 5.4375 C85.63069318 4.05104631 85.63069318 4.05104631 82.3125 4 C75.11544496 4.11566696 69.89597269 9.24991181 64.875 13.9375 C56.2611359 23.04021353 50.03078054 33.56955155 43.86541748 44.40039062 C42.81431816 46.24680612 41.75805837 48.0902061 40.70166016 49.93359375 C37.67791593 55.23296579 34.71802517 60.53408361 32.0546875 66.02734375 C29.94117233 70.2645802 28.04790757 73.94384453 24.8125 77.4375 C19.85805802 78.79580815 15.79693254 78.53637346 10.8125 77.4375 C12.24978461 73.60020055 14.0206244 70.11688155 16.03515625 66.55078125 C16.65583984 65.44798828 17.27652344 64.34519531 17.91601562 63.20898438 C18.56248047 62.06751953 19.20894531 60.92605469 19.875 59.75 C21.15843369 57.47575678 22.44042704 55.20070404 23.72265625 52.92578125 C24.29121338 51.92071533 24.85977051 50.91564941 25.44555664 49.88012695 C26.26498056 48.41587686 27.06210225 46.9382955 27.8125 45.4375 C26.75675781 45.97890625 26.75675781 45.97890625 25.6796875 46.53125 C17.85698129 50.20771767 10.4564734 52.00226422 1.8125 50.4375 C-1.046875 48.63671875 -1.046875 48.63671875 -3.1875 46.4375 C-4 42.6875 -4 42.6875 -4.1875 39.4375 C-4.909375 40.18 -5.63125 40.9225 -6.375 41.6875 C-12.09458967 47.27998768 -16.59609211 50.43898859 -24.75 50.75 C-29.64589396 50.6348025 -32.32898959 49.03966415 -36 45.875 C-37.1875 44.4375 -37.1875 44.4375 -37.1875 42.4375 C-38.27289062 42.84742188 -39.35828125 43.25734375 -40.4765625 43.6796875 C-41.92185269 44.22401757 -43.36716644 44.76828509 -44.8125 45.3125 C-45.52535156 45.58191406 -46.23820313 45.85132813 -46.97265625 46.12890625 C-64.14524585 52.58832069 -64.14524585 52.58832069 -71.12890625 49.609375 C-73.39943094 48.14310845 -74.96919392 46.87411216 -76.1875 44.4375 C-76.90972305 36.24227461 -73.19667445 31.38196289 -69.1875 24.4375 C-75.1275 24.4375 -81.0675 24.4375 -87.1875 24.4375 C-88.1775 26.9125 -88.1775 26.9125 -89.1875 29.4375 C-96.84360462 46.88111276 -96.84360462 46.88111276 -102.07373047 49.31542969 C-106.21810656 50.08816264 -110.14375399 49.44696068 -114.1875 48.4375 C-112.87441557 44.97974944 -111.36236529 41.80012539 -109.53515625 38.5859375 C-109.01187744 37.66047119 -108.48859863 36.73500488 -107.94946289 35.78149414 C-106.7982302 33.77026863 -105.64232145 31.76171377 -104.48217773 29.75561523 C-101.62292815 24.79908994 -98.85864877 19.85584067 -96.375 14.69921875 C-91.30462306 4.47520591 -91.30462306 4.47520591 -88.1875 1.4375 C-83.17924376 -0.1082581 -79.23480457 0.17751594 -74.1875 1.4375 C-76.17078431 8.10854722 -79.61826476 13.48877461 -83.1875 19.4375 C-77.2475 19.4375 -71.3075 19.4375 -65.1875 19.4375 C-64.5275 17.4575 -63.8675 15.4775 -63.1875 13.4375 C-61.45922419 8.80999929 -59.72611531 4.94273215 -56.1875 1.4375 C-51.00182058 0.3811579 -46.39881778 0.71314695 -41.1875 1.4375 C-44.2681242 7.21599121 -47.43809487 12.91684558 -50.8359375 18.515625 C-51.44824219 19.53140625 -52.06054688 20.5471875 -52.69140625 21.59375 C-53.95201338 23.67809415 -55.2230888 25.75613862 -56.50390625 27.828125 C-60.94408068 35.15025386 -60.94408068 35.15025386 -61.1875 43.4375 C-54.65886567 43.85870222 -50.3031971 43.03324724 -44.3515625 40.3125 C-42.1875 39.4375 -42.1875 39.4375 -39.1875 39.4375 C-39.290625 38.15875 -39.39375 36.88 -39.5 35.5625 C-39.44095869 26.13064993 -33.75097682 19.27489374 -27.51171875 12.6953125 C-24.27188279 9.54804329 -21.01859 6.83193125 -17.1875 4.4375 C-16.2284375 3.81875 -16.2284375 3.81875 -15.25 3.1875 C-10.31571778 0.49607334 -5.55221529 0.05946994 0 0 Z " fill="#FDF6F7" transform="translate(640.1875,589.5625)"/>
<path d="M0 0 C0.70125 0.66 1.4025 1.32 2.125 2 C2.64578125 1.67257812 3.1665625 1.34515625 3.703125 1.0078125 C6.87212009 -0.31089836 9.4548619 -0.19340276 12.875 -0.125 C14.04546875 -0.10695313 15.2159375 -0.08890625 16.421875 -0.0703125 C17.75992188 -0.03550781 17.75992188 -0.03550781 19.125 0 C17.77585193 4.54059871 15.94137308 8.29861571 13.5 12.3515625 C13.15243652 12.93287933 12.80487305 13.51419617 12.44677734 14.11312866 C11.34496757 15.95375582 10.23536267 17.78952223 9.125 19.625 C8.01619466 21.4685094 6.90905299 23.31299928 5.80322266 25.15829468 C4.80150547 26.82820066 3.79540148 28.49547284 2.7890625 30.16259766 C0.27568445 34.44817273 -1.1548266 36.96312124 -0.875 42 C5.18647405 41.58196731 8.03765413 40.46864491 13.125 37 C15.5 37.25 15.5 37.25 17.125 38 C12.55164722 44.36151204 6.05493772 48.15681065 -1.70703125 49.484375 C-6.50533606 49.62825221 -10.08639876 49.19663229 -13.875 46 C-16.0269437 42.77208445 -16.07586443 41.71599191 -15.875 38 C-16.535 38 -17.195 38 -17.875 38 C-17.875 38.66 -17.875 39.32 -17.875 40 C-19.95703125 41.69140625 -19.95703125 41.69140625 -22.6875 43.5625 C-23.58082031 44.18253906 -24.47414063 44.80257812 -25.39453125 45.44140625 C-30.59626364 48.70989637 -35.90757168 48.58135405 -41.875 48 C-46.58322746 46.03110488 -48.20346438 43.74671322 -50.25 39.25 C-50.80936178 37.8402264 -51.35717104 36.42555266 -51.875 35 C-52.57625 36.0725 -53.2775 37.145 -54 38.25 C-57.59699036 43.27968991 -62.08758219 45.97696457 -67.875 48 C-73.1460906 48.80854487 -78.29260467 49.06757159 -82.75 45.8125 C-87.28944867 41.20757851 -89.05845 35.06246204 -90.875 29 C-91.16503906 28.16597656 -91.45507812 27.33195313 -91.75390625 26.47265625 C-92.38474313 23.96254308 -92.54356857 22.50713214 -91.875 20 C-84.98241029 10.87370066 -70.19688751 1.12426632 -58.875 -1 C-54.59474334 -1.49936328 -52.67893188 -1.46183321 -48.9375 0.6875 C-46.875 3 -46.875 3 -46.4375 5.625 C-46.875 8 -46.875 8 -48.875 10 C-52.25 10.4375 -52.25 10.4375 -55.875 10 C-58.3125 7.5 -58.3125 7.5 -59.875 5 C-64.58820756 5.51518074 -67.61898212 6.76798818 -71.5625 9.375 C-72.96048828 10.28378906 -72.96048828 10.28378906 -74.38671875 11.2109375 C-77.37222433 13.35495697 -77.37222433 13.35495697 -79.875 16 C-79.71122938 23.53344862 -77.28251139 34.59248861 -71.875 40 C-67.62260943 41.10157165 -63.73661522 40.36187839 -59.75 38.6875 C-54.73679226 34.00124059 -51.66044401 28.01992734 -48.19140625 22.15234375 C-41.16209186 10.60998224 -33.01726932 2.68395517 -19.94921875 -1.63671875 C-13.71609098 -2.7283965 -5.45283034 -3.70949756 0 0 Z " fill="#FDF5F6" transform="translate(855.875,592)"/>
<path d="M0 0 C3.57426229 2.96050008 7.12346323 6.5424726 7.85546875 11.27734375 C8.30354656 19.76366584 5.12092937 25.74194007 -0.05859375 32.3203125 C-8.46866721 41.38960787 -20.13917823 46.46156511 -32.3359375 47.6640625 C-39.41323195 47.87511502 -45.76413102 47.88863278 -51.453125 43.28125 C-55.17189217 39.60931869 -57.59250183 36.44772485 -57.703125 31.15625 C-57.5176697 22.21159833 -54.01193476 17.04272891 -47.9140625 10.609375 C-36.51164776 -0.17767133 -14.8850709 -9.22084038 0 0 Z " fill="#FEF8F9" transform="translate(288.453125,591.71875)"/>
<path d="M0 0 C3.63671875 0.51953125 3.63671875 0.51953125 6.3125 1.1875 C4.32921569 7.85854722 0.88173524 13.23877461 -2.6875 19.1875 C3.2525 19.1875 9.1925 19.1875 15.3125 19.1875 C15.9725 17.2075 16.6325 15.2275 17.3125 13.1875 C19.04077581 8.55999929 20.77388469 4.69273215 24.3125 1.1875 C29.49817942 0.1311579 34.10118222 0.46314695 39.3125 1.1875 C36.2318758 6.96599121 33.06190513 12.66684558 29.6640625 18.265625 C29.05175781 19.28140625 28.43945312 20.2971875 27.80859375 21.34375 C26.54798662 23.42809415 25.2769112 25.50613862 23.99609375 27.578125 C19.55591932 34.90025386 19.55591932 34.90025386 19.3125 43.1875 C25.88234899 43.61136123 30.18915427 42.77422013 36.1484375 39.96484375 C38.3125 39.1875 38.3125 39.1875 41.3125 40.1875 C40.9825 41.1775 40.6525 42.1675 40.3125 43.1875 C37.58203125 44.50390625 37.58203125 44.50390625 34.125 45.75 C32.99707031 46.16378906 31.86914062 46.57757812 30.70703125 47.00390625 C29.02673828 47.58978516 29.02673828 47.58978516 27.3125 48.1875 C26.28511719 48.56003906 25.25773438 48.93257812 24.19921875 49.31640625 C19.40977808 50.76166372 14.08130309 51.36855886 9.37109375 49.359375 C7.10056906 47.89310845 5.53080608 46.62411216 4.3125 44.1875 C3.59027695 35.99227461 7.30332555 31.13196289 11.3125 24.1875 C5.3725 24.1875 -0.5675 24.1875 -6.6875 24.1875 C-7.6775 26.6625 -7.6775 26.6625 -8.6875 29.1875 C-16.34360462 46.63111276 -16.34360462 46.63111276 -21.57373047 49.06542969 C-25.71810656 49.83816264 -29.64375399 49.19696068 -33.6875 48.1875 C-32.37441557 44.72974944 -30.86236529 41.55012539 -29.03515625 38.3359375 C-28.51187744 37.41047119 -27.98859863 36.48500488 -27.44946289 35.53149414 C-26.2982302 33.52026863 -25.14232145 31.51171377 -23.98217773 29.50561523 C-21.12292815 24.54908994 -18.35864877 19.60584067 -15.875 14.44921875 C-8.72660463 0.0350466 -8.72660463 0.0350466 0 0 Z " fill="#FDF4F5" transform="translate(559.6875,589.8125)"/>
<path d="M0 0 C2.4375 1.4375 2.4375 1.4375 4 4 C5.84458768 14.48061179 0.41625804 24.42003984 -5 33 C-9.70505697 39.33699114 -14.58675066 44.68116408 -22.6875 45.9375 C-24.94921875 46.21484375 -24.94921875 46.21484375 -27 46 C-29.47554305 44.01163476 -30.8284439 42.23030229 -31.2734375 39.0390625 C-31.78371956 26.91005035 -25.64898493 17.001372 -18 8 C-12.5836248 2.52880319 -8.01530738 -0.85878293 0 0 Z " fill="#DB0429" transform="translate(277,591)"/>
<path d="M0 0 C1.5625 1.4375 1.5625 1.4375 2.5625 4.4375 C2.5625 15.30333273 -4.65318175 24.54243364 -11.96875 32.02734375 C-22.58996079 41.89675197 -22.58996079 41.89675197 -29.625 41.8125 C-33.4375 41.4375 -33.4375 41.4375 -35.4375 40.375 C-37.37916007 36.61303361 -36.90030398 33.14609081 -35.81640625 29.14453125 C-30.68198341 14.79096695 -17.03074099 -3.930171 0 0 Z " fill="#DB0429" transform="translate(851.4375,593.5625)"/>
<path d="M0 0 C2.20126655 2.96692448 1.69119896 5.31109721 1.4375 8.9375 C-2.66446079 20.85138613 -11.38870606 32.98669737 -22.58203125 39.171875 C-26.12454033 40.54136569 -29.7655404 41.22957382 -33.5625 40.9375 C-36.5625 38.9375 -36.5625 38.9375 -37.1015625 37.046875 C-37.50130361 26.07216447 -31.60241538 16.87691996 -24.625 8.875 C-17.56536987 1.64474437 -10.42200598 -4.32131955 0 0 Z " fill="#DB0328" transform="translate(648.5625,594.0625)"/>
<path d="M0 0 C0.50682442 3.01982884 1.00563335 6.04062817 1.5 9.0625 C1.64308594 9.91005859 1.78617187 10.75761719 1.93359375 11.63085938 C2.72200421 16.49272389 3.16037074 21.07528186 3 26 C4.98 26 6.96 26 9 26 C9.36088615 28.31146089 9.71354191 30.62420829 10.0625 32.9375 C10.35833984 34.86916016 10.35833984 34.86916016 10.66015625 36.83984375 C10.77230469 37.88269531 10.88445312 38.92554688 11 40 C10 41 10 41 6.9375 41.0625 C5.968125 41.041875 4.99875 41.02125 4 41 C3.01 37.535 3.01 37.535 2 34 C-1.3134921 34.47246708 -4.62558794 34.95409125 -7.9375 35.4375 C-8.88302734 35.57220703 -9.82855469 35.70691406 -10.80273438 35.84570312 C-11.70185547 35.97783203 -12.60097656 36.10996094 -13.52734375 36.24609375 C-14.35999756 36.36654053 -15.19265137 36.4869873 -16.05053711 36.61108398 C-17.99687359 36.81183994 -17.99687359 36.81183994 -19 38 C-18.71269945 40.33944736 -18.38063221 42.6739143 -18 45 C-21.465 45.495 -21.465 45.495 -25 46 C-26.43687342 40.88113844 -27.53695997 36.36959974 -27 31 C-26.01 30.34 -25.02 29.68 -24 29 C-23.74661399 26.3907274 -23.67207016 24.03988422 -23.75 21.4375 C-23.76643555 20.35855469 -23.76643555 20.35855469 -23.78320312 19.2578125 C-23.88957881 14.12402924 -24.27343594 9.08594839 -25 4 C-7.98826101 -0.06746842 -7.98826101 -0.06746842 0 0 Z M-17 9 C-16.9278125 10.27617187 -16.855625 11.55234375 -16.78125 12.8671875 C-16.68747083 14.53645669 -16.59372243 16.20572762 -16.5 17.875 C-16.45230469 18.71675781 -16.40460938 19.55851562 -16.35546875 20.42578125 C-16.31035156 21.23144531 -16.26523437 22.03710938 -16.21875 22.8671875 C-16.17685547 23.61081543 -16.13496094 24.35444336 -16.09179688 25.12060547 C-16.0286929 26.41255875 -16 27.70650651 -16 29 C-12.37 28.67 -8.74 28.34 -5 28 C-3.86917359 23.47669436 -4.51463791 20.19544634 -5.4375 15.75 C-5.58509766 15.00492188 -5.73269531 14.25984375 -5.88476562 13.4921875 C-6.2488694 11.65992335 -6.62341409 9.82973947 -7 8 C-10.41099168 8 -13.63088314 8.49145406 -17 9 Z " fill="#C2A37A" transform="translate(292,141)"/>
<path d="M0 0 C2.31 0.33 4.62 0.66 7 1 C6.67 2.32 6.34 3.64 6 5 C6.86625 5.0825 7.7325 5.165 8.625 5.25 C12.55589903 6.12353312 14.85961143 7.50196364 18 10 C20.78054706 14.41117296 20.52551115 18.9501663 20 24 C18.29019136 28.13953671 15.83851349 30.6968919 12 33 C9.23917573 33.32329355 6.79536466 33.18951625 4 33 C3.67 34.65 3.34 36.3 3 38 C1.02 37.67 -0.96 37.34 -3 37 C-3 35.68 -3 34.36 -3 33 C-3.845625 32.95875 -4.69125 32.9175 -5.5625 32.875 C-10.05987472 31.73021371 -12.90843359 29.42371818 -16 26 C-17.65112454 21.04662639 -17.85967138 16.0360638 -15.8125 11.1875 C-12.48814492 7.17534732 -9.91476371 4.91495227 -4.6875 4.25 C-3.470625 4.1675 -2.25375 4.085 -1 4 C-0.67 2.68 -0.34 1.36 0 0 Z M-7.125 12.625 C-9.45756738 15.57958535 -10.07695668 17.22912279 -10 21 C-7.8744845 23.95910144 -7.8744845 23.95910144 -5 26 C-4.01 26 -3.02 26 -2 26 C-2 21.05 -2 16.1 -2 11 C-5.04867389 10.69627495 -5.04867389 10.69627495 -7.125 12.625 Z M6 11 C4.87137825 16.36095333 4.90311779 21.55306686 5 27 C8.35760377 26.72776186 9.64317461 26.41629629 11.875 23.8125 C13.28940086 20.27649785 13.22495904 18.59831719 12 15 C9.41934743 12.21600881 9.41934743 12.21600881 6 11 Z " fill="#C2A37A" transform="translate(636,126)"/>
<path d="M0 0 C2.31 0.33 4.62 0.66 7 1 C6.48758893 7.02900687 5.930215 13.02004643 5 19 C5.66 19 6.32 19 7 19 C7 18.34 7 17.68 7 17 C7.66 17 8.32 17 9 17 C9.33644531 16.17242187 9.33644531 16.17242187 9.6796875 15.328125 C11.40385183 12.28788256 13.62515822 10.18574327 16.125 7.75 C17.03507813 6.85796875 17.94515625 5.9659375 18.8828125 5.046875 C19.58148437 4.37140625 20.28015625 3.6959375 21 3 C23.31 3.66 25.62 4.32 28 5 C27.31791417 11.88480384 26.25414036 18.63515176 25 25.4375 C24.82210937 26.42943359 24.64421875 27.42136719 24.4609375 28.44335938 C24.28820312 29.38888672 24.11546875 30.33441406 23.9375 31.30859375 C23.78152344 32.16251709 23.62554688 33.01644043 23.46484375 33.89624023 C23 36 23 36 22 38 C18.535 37.505 18.535 37.505 15 37 C15.62197123 30.66118686 16.28542887 24.32905858 17 18 C15.51780033 19.45525059 14.03932861 20.914299 12.5625 22.375 C11.73878906 23.18710938 10.91507813 23.99921875 10.06640625 24.8359375 C7.96565328 26.82348515 7.96565328 26.82348515 7 29 C6.34 29 5.68 29 5 29 C4.62875 29.9590625 4.62875 29.9590625 4.25 30.9375 C3 33 3 33 1.125 33.8125 C-1.17030283 34.01502672 -2.81733924 33.70156953 -5 33 C-5.3562502 25.73249584 -4.00289886 19.09205789 -2.5 12 C-2.26152344 10.84371094 -2.02304687 9.68742188 -1.77734375 8.49609375 C-1.19189634 5.66252827 -0.59928499 2.83066529 0 0 Z " fill="#C2A37A" transform="translate(777,146)"/>
<path d="M0 0 C1.86486918 11.00155528 3.47205656 21.84036797 4 33 C0.535 33.495 0.535 33.495 -3 34 C-3.31919939 32.68911318 -3.62985947 31.37614752 -3.9375 30.0625 C-4.11152344 29.33160156 -4.28554688 28.60070312 -4.46484375 27.84765625 C-5.20266872 23.9215657 -5.59759094 19.97263858 -6 16 C-6.29656494 16.60062256 -6.59312988 17.20124512 -6.89868164 17.82006836 C-8.2603496 20.53997837 -9.66058641 23.23812913 -11.0625 25.9375 C-11.52849609 26.88302734 -11.99449219 27.82855469 -12.47460938 28.80273438 C-16.04491534 35.57902937 -16.04491534 35.57902937 -18.93310547 36.85205078 C-20.87109375 37.12890625 -20.87109375 37.12890625 -24 37 C-25.8121781 25.67103754 -27.44919886 14.47185825 -28 3 C-25.69 3 -23.38 3 -21 3 C-19.48484483 6.03031033 -19.35175359 9.2986971 -18.9375 12.625 C-18.84662109 13.33140625 -18.75574219 14.0378125 -18.66210938 14.765625 C-18.43816881 16.5100041 -18.21866182 18.25495134 -18 20 C-14.74970527 16.05604481 -12.74854345 11.55200801 -10.60546875 6.95703125 C-7.99957361 1.55008582 -6.07242607 -0.32823925 0 0 Z " fill="#C2A37A" transform="translate(335,135)"/>
<path d="M0 0 C2.17724928 0.18276909 4.35306124 0.4031757 6.515625 0.71484375 C2.0993846 9.92944179 -2.89331357 18.67313269 -8.13037109 27.43896484 C-9.53633069 29.80217353 -10.92827405 32.17315461 -12.31640625 34.546875 C-12.77370117 35.32844971 -13.23099609 36.11002441 -13.70214844 36.9152832 C-14.58505366 38.42510242 -15.46723857 39.93534313 -16.34863281 41.44604492 C-19.3728686 46.60333735 -19.3728686 46.60333735 -20.484375 47.71484375 C-22.83751055 47.78756116 -25.19271168 47.79855243 -27.546875 47.77734375 C-28.83722656 47.76832031 -30.12757813 47.75929688 -31.45703125 47.75 C-32.45605469 47.73839844 -33.45507812 47.72679687 -34.484375 47.71484375 C-32.62012333 42.54623066 -29.82616475 37.98258382 -26.98730469 33.30883789 C-24.1557897 28.62522876 -21.51061615 23.89327882 -18.98046875 19.0390625 C-17.7320505 16.74333748 -16.48335364 14.44776394 -15.234375 12.15234375 C-14.67596924 11.02731445 -14.11756348 9.90228516 -13.54223633 8.74316406 C-9.88539659 2.18691126 -7.72801227 0.01652947 0 0 Z " fill="#FDF7F8" transform="translate(767.484375,590.28515625)"/>
<path d="M0 0 C4.65521979 2.63503007 7.06655968 5.56111084 9.625 10.3125 C11.2209009 16.26085791 10.48614476 20.71524095 7.5859375 26.01171875 C5.2626616 29.41111325 2.40534342 32.20443589 -1.6015625 33.48828125 C-6.52639908 34.40131275 -11.11104718 34.40048427 -15.875 32.8125 C-20.30088681 29.76355575 -23.90886946 26.75274563 -25.35546875 21.40625 C-26.21016027 14.72960098 -25.34902455 10.29607863 -21.5 4.6875 C-15.15680985 -1.65569015 -8.22970088 -2.5107562 0 0 Z M-14.6875 8.875 C-15.285625 9.266875 -15.88375 9.65875 -16.5 10.0625 C-18.52168218 13.14822544 -18.41167516 16.38579243 -17.6875 19.875 C-15.93758025 22.89523186 -13.85642615 25.29053692 -10.6875 26.875 C-6.03341099 27.2886968 -3.43510524 26.68570393 0.3125 23.875 C2.79636059 20.14920911 2.6929212 18.28788598 2.3125 13.875 C0.66080373 10.24126822 -1.18388728 7.83290123 -4.6875 5.875 C-8.92705521 5.22276074 -11.2518453 6.43387692 -14.6875 8.875 Z " fill="#C2A37A" transform="translate(205.6875,158.125)"/>
<path d="M0 0 C1.26650391 0.00966797 1.26650391 0.00966797 2.55859375 0.01953125 C3.43128906 0.03628906 4.30398438 0.05304688 5.203125 0.0703125 C6.53537109 0.08384766 6.53537109 0.08384766 7.89453125 0.09765625 C10.08100558 0.12116673 12.26692594 0.15402751 14.453125 0.1953125 C14.64278594 11.55389567 14.05777928 22.85643654 13.453125 34.1953125 C10.813125 34.1953125 8.173125 34.1953125 5.453125 34.1953125 C5.37657964 29.67913651 5.35083804 25.60446033 6.453125 21.1953125 C1.22292359 23.65658375 -1.30624216 27.62150792 -4.546875 32.1953125 C-5.546875 33.1953125 -5.546875 33.1953125 -7.39453125 33.29296875 C-9.4453125 33.26041667 -11.49609375 33.22786458 -13.546875 33.1953125 C-11.95644121 28.10592439 -8.8021799 24.32074607 -5.546875 20.1953125 C-6.35125 19.4115625 -7.155625 18.6278125 -7.984375 17.8203125 C-10.75737376 14.97967962 -11.45321 14.2490438 -11.796875 10.3828125 C-11.51223566 6.75366094 -10.76901594 5.05235085 -8.546875 2.1953125 C-5.60905779 0.37902155 -3.42866813 -0.04633335 0 0 Z M-3.546875 8.1953125 C-3.546875 9.8453125 -3.546875 11.4953125 -3.546875 13.1953125 C-0.1449263 15.28881939 2.50584912 15.37473413 6.453125 15.1953125 C6.453125 12.5553125 6.453125 9.9153125 6.453125 7.1953125 C2.37537309 6.2685507 0.03131463 5.85572697 -3.546875 8.1953125 Z " fill="#C2A37A" transform="translate(577.546875,124.8046875)"/>
<path d="M0 0 C0.84223216 4.3733353 1.67221195 8.74890966 2.5 13.125 C2.73847656 14.3625 2.97695312 15.6 3.22265625 16.875 C3.44824219 18.07382813 3.67382812 19.27265625 3.90625 20.5078125 C4.11572266 21.60754395 4.32519531 22.70727539 4.54101562 23.84033203 C4.99180676 26.94359741 5.08249503 29.86931374 5 33 C1.535 33.495 1.535 33.495 -2 34 C-4.29612756 24.58997722 -4.29612756 24.58997722 -4 20 C-4.60328125 20.144375 -5.2065625 20.28875 -5.828125 20.4375 C-6.62734375 20.623125 -7.4265625 20.80875 -8.25 21 C-9.03890625 21.185625 -9.8278125 21.37125 -10.640625 21.5625 C-13 22 -13 22 -17 22 C-16.855625 22.59167969 -16.71125 23.18335938 -16.5625 23.79296875 C-15.59177306 27.92529941 -14.72406298 31.7229762 -15 36 C-18.465 36.495 -18.465 36.495 -22 37 C-23.93265351 30.83640232 -25.04461422 24.6122718 -26.125 18.25 C-26.30675781 17.20972656 -26.48851562 16.16945312 -26.67578125 15.09765625 C-28 7.40125705 -28 7.40125705 -28 4 C-24.535 3.505 -24.535 3.505 -21 3 C-19.64851459 7.30785975 -19 10.41957592 -19 15 C-14.71 14.34 -10.42 13.68 -6 13 C-6.66 9.04 -7.32 5.08 -8 1 C-5.29120665 -0.35439668 -2.99066732 -0.06501451 0 0 Z " fill="#C2A37A" transform="translate(251,148)"/>
<path d="M0 0 C7.26 0.99 14.52 1.98 22 3 C22 4.98 22 6.96 22 9 C18.32192463 10.22602512 16.11756073 9.70295577 12.3125 9.0625 C11.13300781 8.86785156 9.95351563 8.67320312 8.73828125 8.47265625 C7.83464844 8.31667969 6.93101562 8.16070312 6 8 C6 9.98 6 11.96 6 14 C7.216875 14.103125 8.43375 14.20625 9.6875 14.3125 C14.6347966 14.95057889 17.63298182 16.35957819 20.875 20.25 C22.4112222 24.00520982 22.10949563 26.11676531 21 30 C19.25 32.9375 19.25 32.9375 16 35 C9.11424394 35.86749683 2.50538248 35.42060743 -4 33 C-3.41062466 21.86283845 -1.72328671 11.01404982 0 0 Z M5 20 C4.814375 21.299375 4.62875 22.59875 4.4375 23.9375 C4.33308594 24.66839844 4.22867188 25.39929688 4.12109375 26.15234375 C4.08113281 26.76207031 4.04117188 27.37179688 4 28 C5.17036305 29.39287806 5.17036305 29.39287806 8.4375 29.1875 C12.05032721 29.39564928 12.05032721 29.39564928 14 27 C14.07272562 24.44539786 14.07272562 24.44539786 13 22 C10.11090151 20.40339294 8.30941204 20 5 20 Z " fill="#C2A37A" transform="translate(706,135)"/>
<path d="M0 0 C1 3 1 3 -0.25 5.99609375 C-1.41561461 8.2882957 -2.58227963 10.57996382 -3.75 12.87109375 C-5.06471011 16.16197749 -5.2388028 16.84586848 -4 20 C-2.61561536 21.49520298 -2.61561536 21.49520298 -0.83984375 22.7265625 C-0.21142578 23.2009375 0.41699219 23.6753125 1.06445312 24.1640625 C2.05348633 24.88722656 2.05348633 24.88722656 3.0625 25.625 C5.42593572 27.37058906 7.71797316 29.14493302 10 31 C10 31.66 10 32.32 10 33 C6.91285444 34.68317239 4.52089144 35.3501704 1 35 C-3.91232755 32.15772671 -7.97196475 27.947101 -12 24 C-12.33 24.33 -12.66 24.66 -13 25 C-12.74434869 26.44869076 -12.41983768 27.88548483 -12.0625 29.3125 C-11.28100419 32.44365872 -11 34.69923881 -11 38 C-14.465 38.495 -14.465 38.495 -18 39 C-20.27729363 33.63511709 -21.40518512 28.18064955 -22.625 22.5 C-22.85445312 21.46746094 -23.08390625 20.43492187 -23.3203125 19.37109375 C-23.536875 18.37207031 -23.7534375 17.37304688 -23.9765625 16.34375 C-24.17330566 15.43818359 -24.37004883 14.53261719 -24.57275391 13.59960938 C-24.9974427 11.01556006 -25.07717655 8.61339814 -25 6 C-21.535 5.505 -21.535 5.505 -18 5 C-17.01 8.63 -16.02 12.26 -15 16 C-13.09152695 13.13729042 -12.09170271 10.63240815 -10.875 7.4375 C-8.64221534 2.35506525 -8.64221534 2.35506525 -5.89453125 0.8359375 C-3.6875 0.3125 -3.6875 0.3125 0 0 Z " fill="#C2A37A" transform="translate(169,163)"/>
<path d="M0 0 C1.98 0 3.96 0 6 0 C7.51403812 4.84492197 6.36602172 8.2591011 5 13 C6.22995949 12.0843974 7.45892386 11.16745797 8.6875 10.25 C9.42355469 9.70730469 10.15960937 9.16460937 10.91796875 8.60546875 C13.14709447 6.95054471 13.14709447 6.95054471 15.5 4.5625 C19.25469369 2.21581644 21.73686298 3.13292128 26 4 C26 7 26 7 24.3203125 8.82421875 C23.59585938 9.43910156 22.87140625 10.05398437 22.125 10.6875 C21.40570312 11.31011719 20.68640625 11.93273437 19.9453125 12.57421875 C18 14 18 14 16 14 C16 14.66 16 15.32 16 16 C14.5 17.625 14.5 17.625 13 19 C13.27263672 19.50450684 13.54527344 20.00901367 13.82617188 20.52880859 C15.05507786 22.80858674 16.27760374 25.0917253 17.5 27.375 C17.92925781 28.1690625 18.35851562 28.963125 18.80078125 29.78125 C19.40986328 30.92207031 19.40986328 30.92207031 20.03125 32.0859375 C20.40830078 32.7876709 20.78535156 33.4894043 21.17382812 34.21240234 C22 36 22 36 22 38 C18.54051435 38.70471004 16.17364565 38.6088961 13 37 C10.21740148 33.22073575 8.48012426 28.84851413 6.62890625 24.5625 C5.42897628 20.95304449 5.42897628 20.95304449 3 20 C2.95101562 20.59167969 2.90203125 21.18335938 2.8515625 21.79296875 C2.43543133 26.19104472 1.95034405 29.96928897 0 34 C-2.31 33.34 -4.62 32.68 -7 32 C-6.21512351 27.790371 -5.42090344 23.58255693 -4.625 19.375 C-4.40328125 18.18519531 -4.1815625 16.99539062 -3.953125 15.76953125 C-3.73398437 14.61582031 -3.51484375 13.46210938 -3.2890625 12.2734375 C-3.09006348 11.21560059 -2.89106445 10.15776367 -2.68603516 9.06787109 C-1.98986087 5.95465895 -1.06007037 3.0068167 0 0 Z " fill="#C2A37A" transform="translate(818,154)"/>
<path d="M0 0 C3.125 0.1875 3.125 0.1875 6.125 2.1875 C6.87695312 4.09179688 6.87695312 4.09179688 7.40625 6.40625 C7.60710205 7.25195557 7.8079541 8.09766113 8.01489258 8.96899414 C8.21622803 9.86610107 8.41756348 10.76320801 8.625 11.6875 C9.05416416 13.50954551 9.4851344 15.33116662 9.91796875 17.15234375 C10.12341309 18.02487793 10.32885742 18.89741211 10.54052734 19.79638672 C11.41798044 23.38610084 12.49549249 26.89955716 13.64453125 30.41015625 C14.125 32.1875 14.125 32.1875 14.125 35.1875 C10.75 35.3125 10.75 35.3125 7.125 35.1875 C5.125 33.1875 5.125 33.1875 4.125 28.1875 C-1.815 27.1975 -1.815 27.1975 -7.875 26.1875 C-8.143125 27.156875 -8.41125 28.12625 -8.6875 29.125 C-9.079375 30.135625 -9.47125 31.14625 -9.875 32.1875 C-13.35323115 33.34691038 -15.33395578 32.89570884 -18.875 32.1875 C-17.55923586 27.93726939 -15.93131864 24.10884466 -13.87109375 20.16796875 C-13.29552734 19.06388672 -12.71996094 17.95980469 -12.12695312 16.82226562 C-11.52818359 15.68466797 -10.92941406 14.54707031 -10.3125 13.375 C-9.40854492 11.63959961 -9.40854492 11.63959961 -8.48632812 9.86914062 C-3.44023492 0.22436315 -3.44023492 0.22436315 0 0 Z M-0.875 11.1875 C-2.50007196 14.0206162 -2.50007196 14.0206162 -3.875 17.1875 C-3.545 18.1775 -3.215 19.1675 -2.875 20.1875 C-1.225 20.1875 0.425 20.1875 2.125 20.1875 C2.00125 18.888125 1.8775 17.58875 1.75 16.25 C1.68039062 15.51910156 1.61078125 14.78820312 1.5390625 14.03515625 C1.40242187 13.42542969 1.26578125 12.81570312 1.125 12.1875 C0.465 11.8575 -0.195 11.5275 -0.875 11.1875 Z " fill="#C2A37A" transform="translate(678.875,131.8125)"/>
<path d="M0 0 C2.97 0.33 5.94 0.66 9 1 C9.67640509 5.33187088 10.33936494 9.66569839 11 14 C11.19078125 15.22074219 11.3815625 16.44148438 11.578125 17.69921875 C12.51193459 23.86903211 13.24963615 29.75909622 13 36 C10.125 36.125 10.125 36.125 7 36 C5 34 5 34 4.875 30.375 C4.91625 29.26125 4.9575 28.1475 5 27 C0.98316839 26.36210693 -2.92840594 25.84150842 -7 26 C-9.33630748 28.39859044 -9.33630748 28.39859044 -11 31 C-14.75 30.8125 -14.75 30.8125 -18 30 C-18 26.06695528 -16.20506641 23.93037171 -14.0625 20.80078125 C-13.66297119 20.20573288 -13.26344238 19.61068451 -12.85180664 18.99760437 C-11.57430271 17.0981405 -10.28732011 15.20532135 -9 13.3125 C-8.13218042 12.02581672 -7.26498504 10.73871219 -6.3984375 9.45117188 C-4.27283717 6.29584769 -2.13871331 3.14644923 0 0 Z M2 10 C1.10729046 11.09466678 0.26006426 12.22669092 -0.5625 13.375 C-1.01753906 14.00148437 -1.47257813 14.62796875 -1.94140625 15.2734375 C-3.17423258 16.94663098 -3.17423258 16.94663098 -3 19 C-0.69 19.33 1.62 19.66 4 20 C3.67 16.7 3.34 13.4 3 10 C2.67 10 2.34 10 2 10 Z " fill="#C2A37A" transform="translate(864,164)"/>
<path d="M0 0 C2.64 0 5.28 0 8 0 C8 3.96 8 7.92 8 12 C11.39080419 8.74381371 11.39080419 8.74381371 14.3515625 5.109375 C17.92288803 0.20129633 17.92288803 0.20129633 21.3828125 -0.4453125 C23.63031872 -0.43826703 25.77550985 -0.31142862 28 0 C25.91814498 3.55516781 23.68985284 6.94832145 21.3125 10.3125 C20.68988281 11.19550781 20.06726563 12.07851562 19.42578125 12.98828125 C18.72001953 13.98408203 18.72001953 13.98408203 18 15 C19.92620282 19.58303429 23.32035374 23.05189396 26.54296875 26.75390625 C30 30.79550838 30 30.79550838 30 33 C26.3893252 33.89882756 23.58817225 34.06964485 20 33 C16.76167626 30.13284995 14.43438853 26.50581601 12.03125 22.94140625 C10.32109974 19.95977384 10.32109974 19.95977384 8 19 C8 23.62 8 28.24 8 33 C5.69 33 3.38 33 1 33 C0.67 22.11 0.34 11.22 0 0 Z " fill="#C2A37A" transform="translate(489,124)"/>
<path d="M0 0 C4.89229073 4.65364241 5.74445344 8.8379541 6 15.375 C5.84878258 20.86006833 4.90707363 25.03325948 1.5625 29.4375 C-1.47699575 32.29820189 -4.26376202 32.71168078 -8.3125 33 C-13.1238874 32.84919532 -15.73686337 31.53314412 -19.09765625 28.1328125 C-22.65908601 23.62651361 -22.87966582 18.58925146 -22.75390625 13.0390625 C-22.10170317 7.67650383 -20.20077983 3.14891866 -16.3125 -0.625 C-10.61988037 -2.48128901 -5.46516467 -2.48416576 0 0 Z M-10.4375 4.4375 C-14.14676439 8.98434022 -15.80661378 11.30237921 -15.71875 17.33203125 C-15.25173511 20.82815661 -13.76139004 22.86237861 -11.4375 25.4375 C-9.01339864 26.75651591 -9.01339864 26.75651591 -6.4375 26.4375 C-3.60848867 24.23715786 -2.57710155 22.85630464 -1.4375 19.4375 C-1.07790267 13.95364072 -1.06249148 10.05001165 -4.4375 5.4375 C-7.52711458 4.46275184 -7.52711458 4.46275184 -10.4375 4.4375 Z " fill="#C2A37A" transform="translate(534.4375,197.5625)"/>
<path d="M0 0 C2.97 0 5.94 0 9 0 C10.71106831 4.53819914 12.4200101 9.07719097 14.12695312 13.61694336 C14.70839436 15.16241286 15.2904245 16.70766093 15.87304688 18.25268555 C16.7085679 20.46866352 17.54199391 22.68541937 18.375 24.90234375 C18.63748535 25.5971434 18.8999707 26.29194305 19.17041016 27.00779724 C21 31.88612829 21 31.88612829 21 33 C18.03 33 15.06 33 12 33 C11.34 31.02 10.68 29.04 10 27 C6.04 26.67 2.08 26.34 -2 26 C-2.66 28.31 -3.32 30.62 -4 33 C-6.64 33 -9.28 33 -12 33 C-11.3227011 28.8856619 -10.03379361 25.25748046 -8.49609375 21.38671875 C-8.2533522 20.77230423 -8.01061066 20.15788971 -7.76051331 19.52485657 C-6.9901095 17.57748441 -6.21390549 15.63248603 -5.4375 13.6875 C-4.91172353 12.36148105 -4.38632887 11.03531064 -3.86132812 9.70898438 C-2.5786321 6.47089192 -1.29072651 3.23490115 0 0 Z M4 10 C2.68 13.3 1.36 16.6 0 20 C2.64 20 5.28 20 8 20 C7.01 16.7 6.02 13.4 5 10 C4.67 10 4.34 10 4 10 Z " fill="#C2A37A" transform="translate(537,124)"/>
<path d="M0 0 C0.33 1.98 0.66 3.96 1 6 C-4.48675196 7.86783046 -9.22192976 8.2358396 -15 8 C-14.67 9.65 -14.34 11.3 -14 13 C-9.71 13 -5.42 13 -1 13 C-1 15.31 -1 17.62 -1 20 C-7.435 20.495 -7.435 20.495 -14 21 C-13.67 23.31 -13.34 25.62 -13 28 C-7.72 27.67 -2.44 27.34 3 27 C3 29.31 3 31.62 3 34 C-8.385 34.99 -8.385 34.99 -20 36 C-20.70560758 32.47196208 -21.2247461 29.244727 -21.53515625 25.69140625 C-21.66567383 24.19963867 -21.66567383 24.19963867 -21.79882812 22.67773438 C-21.88583984 21.64970703 -21.97285156 20.62167969 -22.0625 19.5625 C-22.19881836 18.02625977 -22.19881836 18.02625977 -22.33789062 16.45898438 C-22.75392925 11.62605453 -23.12494638 6.85624929 -23 2 C-19.54181311 1.66513565 -16.08342761 1.33236837 -12.625 1 C-11.64015625 0.90460938 -10.6553125 0.80921875 -9.640625 0.7109375 C-8.69960938 0.62070313 -7.75859375 0.53046875 -6.7890625 0.4375 C-5.91975098 0.35371094 -5.05043945 0.26992187 -4.15478516 0.18359375 C-2 0 -2 0 0 0 Z " fill="#C2A37A" transform="translate(403,128)"/>
<path d="M0 0 C3.63414595 3.52057889 4.79762086 7.37628946 5.4375 12.3125 C4.75885955 17.93552085 3.24913317 22.73062611 -0.87109375 26.7734375 C-5.95911351 30.71689327 -10.41375981 33.31385658 -17 32.9375 C-17.66 30.9575 -18.32 28.9775 -19 26.9375 C-18.30132812 26.75574219 -17.60265625 26.57398438 -16.8828125 26.38671875 C-15.97273438 26.13535156 -15.06265625 25.88398438 -14.125 25.625 C-12.76761719 25.25955078 -12.76761719 25.25955078 -11.3828125 24.88671875 C-8.67886681 24.07080148 -8.67886681 24.07080148 -7 20.9375 C-8.299375 21.06125 -8.299375 21.06125 -9.625 21.1875 C-13.87014668 20.87304469 -15.76334601 19.65923176 -19 16.9375 C-21.27578786 13.37539727 -21.3577112 10.03607236 -20.6484375 5.875 C-19.7531044 3.19978784 -18.29839016 1.42012345 -16.01171875 -0.21875 C-10.87997774 -2.37109186 -5.13920188 -1.820134 0 0 Z M-11 4.9375 C-12.73647948 6.61238528 -12.73647948 6.61238528 -14 8.9375 C-13.66390749 11.69441443 -13.66390749 11.69441443 -12 13.9375 C-9.65127469 15.10727494 -9.65127469 15.10727494 -7 14.9375 C-4.69495956 13.60596734 -4.69495956 13.60596734 -3 11.9375 C-3.33 9.9575 -3.66 7.9775 -4 5.9375 C-6.31 5.6075 -8.62 5.2775 -11 4.9375 Z " fill="#C2A37A" transform="translate(498,197.0625)"/>
<path d="M0 0 C7.89129036 0.22447872 16.17619738 1.35267624 22 7 C23.59816475 10.19632951 23.36705452 13.52299267 23 17 C21.67502283 20.20783946 20.84052436 21.56806387 17.75 23.15625 C13.07334002 24.59113431 8.81368179 23.57996166 4 23 C3.34 26.63 2.68 30.26 2 34 C0.00045254 34.04254356 -2.00041636 34.04080783 -4 34 C-4.33 33.67 -4.66 33.34 -5 33 C-4.95050164 24.99364066 -3.80233717 17.07010856 -2.5 9.1875 C-2.36948242 8.39287354 -2.23896484 7.59824707 -2.10449219 6.77954102 C-1.13013826 1.13013826 -1.13013826 1.13013826 0 0 Z M6 8 C5.67 10.64 5.34 13.28 5 16 C7.97 16.33 10.94 16.66 14 17 C15.19838209 14.67145537 15.19838209 14.67145537 16 12 C14.39519216 8.87393036 14.39519216 8.87393036 12.0546875 8.48828125 C10.97574219 8.40126953 10.97574219 8.40126953 9.875 8.3125 C8.59625 8.209375 7.3175 8.10625 6 8 Z " fill="#C2A37A" transform="translate(742,140)"/>
<path d="M0 0 C0.8971875 0.7425 0.8971875 0.7425 1.8125 1.5 C0.9375 6.25 0.9375 6.25 -0.1875 8.5 C-1.0125 8.149375 -1.8375 7.79875 -2.6875 7.4375 C-7.13059856 6.24738432 -9.69299777 6.54215526 -14.1875 7.5 C-16.25152685 8.48048938 -16.25152685 8.48048938 -17.1875 10.5 C-18.31142282 15.1686025 -18.50008555 18.23997398 -16.1875 22.5 C-14.36447348 24.74112088 -14.36447348 24.74112088 -11.7265625 24.765625 C-10.76492188 24.76046875 -9.80328125 24.7553125 -8.8125 24.75 C-7.37777344 24.75773437 -7.37777344 24.75773437 -5.9140625 24.765625 C-3.17691342 24.49896864 -1.52762543 23.89742087 0.8125 22.5 C3.77088752 25.81339402 3.77088752 25.81339402 3.9375 28.5625 C2.4681579 31.09303361 0.67390705 31.95082082 -2.0234375 32.9609375 C-7.33354739 34.28367245 -12.33458575 34.12929163 -17.5 32.375 C-21.27702297 29.73986769 -24.10374735 26.6675053 -26.1875 22.5 C-26.68078755 16.64524289 -27.04494288 11.31015719 -24.5 5.9375 C-17.77569491 -1.15028104 -9.37874934 -4.4135291 0 0 Z " fill="#C2A37A" transform="translate(476.1875,125.5)"/>
<path d="M0 0 C2.68465598 2.85244698 2.97521062 4.67052797 3.1875 8.5625 C2.9245283 13.55896226 2.9245283 13.55896226 1 16.125 C-3.48479122 20.04919232 -8.37941883 19.41967125 -14 19.125 C-13.98839844 19.97964844 -13.97679687 20.83429688 -13.96484375 21.71484375 C-13.95582031 22.81957031 -13.94679688 23.92429688 -13.9375 25.0625 C-13.92589844 26.16464844 -13.91429687 27.26679688 -13.90234375 28.40234375 C-14 31.125 -14 31.125 -15 32.125 C-16.99958364 32.16580783 -19.00045254 32.16754356 -21 32.125 C-22.05357378 24.97132256 -22.32045599 17.84664104 -22.5625 10.625 C-22.60568359 9.42101562 -22.64886719 8.21703125 -22.69335938 6.9765625 C-22.79873168 4.02613807 -22.90085903 1.07563929 -23 -1.875 C-21.26862799 -2.04957465 -19.5367534 -2.21916859 -17.8046875 -2.38671875 C-16.84030762 -2.48170654 -15.87592773 -2.57669434 -14.88232422 -2.67456055 C-9.32680499 -3.06089642 -4.78474675 -2.99046672 0 0 Z M-15 5.125 C-15.07148199 6.47743917 -15.08399454 7.83334367 -15.0625 9.1875 C-15.041875 10.486875 -15.02125 11.78625 -15 13.125 C-9.86274018 13.60989837 -9.86274018 13.60989837 -5.5625 11.125 C-5.046875 10.465 -4.53125 9.805 -4 9.125 C-5.22007944 6.4344472 -5.22007944 6.4344472 -7 4.125 C-11.3162525 3.58233887 -11.3162525 3.58233887 -15 5.125 Z " fill="#C2A37A" transform="translate(438,128.875)"/>
<path d="M0 0 C1.18613892 0.00785522 1.18613892 0.00785522 2.39624023 0.01586914 C3.67724609 0.02070313 3.67724609 0.02070313 4.98413086 0.02563477 C5.88196289 0.03401367 6.77979492 0.04239258 7.70483398 0.05102539 C8.6065332 0.05553711 9.50823242 0.06004883 10.43725586 0.06469727 C12.67234712 0.07652315 14.90730835 0.09300319 17.14233398 0.11352539 C17.14233398 2.42352539 17.14233398 4.73352539 17.14233398 7.11352539 C12.52233398 7.11352539 7.90233398 7.11352539 3.14233398 7.11352539 C3.14233398 8.76352539 3.14233398 10.41352539 3.14233398 12.11352539 C4.68920898 11.98977539 4.68920898 11.98977539 6.26733398 11.86352539 C10.83158176 12.15799299 12.70168634 13.15296811 16.14233398 16.11352539 C18.06927104 19.21338065 18.14834304 20.94527193 18.01733398 24.61352539 C17.05864575 28.44827833 15.91966619 30.33619319 13.14233398 33.11352539 C10.10712004 34.12526337 7.94500319 34.27926053 4.76733398 34.30102539 C3.83147461 34.31520508 2.89561523 34.32938477 1.93139648 34.34399414 C-1.01884756 34.10020647 -3.18130714 33.34465047 -5.85766602 32.11352539 C-5.52766602 29.80352539 -5.19766602 27.49352539 -4.85766602 25.11352539 C-3.99141602 25.44352539 -3.12516602 25.77352539 -2.23266602 26.11352539 C1.17039906 27.12184097 3.6229557 27.50456742 7.14233398 27.11352539 C9.16711861 26.0070287 9.16711861 26.0070287 10.14233398 24.11352539 C9.91475667 21.95053328 9.91475667 21.95053328 9.14233398 20.11352539 C8.09045898 19.96915039 7.03858398 19.82477539 5.95483398 19.67602539 C-2.54997371 18.4212177 -2.54997371 18.4212177 -3.85766602 17.11352539 C-3.79296436 14.4313477 -3.66646486 11.78779863 -3.48266602 9.11352539 C-3.43883789 8.36329102 -3.39500977 7.61305664 -3.34985352 6.84008789 C-2.91695498 0.17826049 -2.91695498 0.17826049 0 0 Z " fill="#C2A37A" transform="translate(554.857666015625,195.886474609375)"/>
<path d="M0 0 C0.33 2.31 0.66 4.62 1 7 C-3.455 7.495 -3.455 7.495 -8 8 C-7.80083984 9.43279297 -7.80083984 9.43279297 -7.59765625 10.89453125 C-5.12934634 28.9654425 -5.12934634 28.9654425 -5 34 C-6 35 -6 35 -9.5625 35.0625 C-10.696875 35.041875 -11.83125 35.02125 -13 35 C-14.2113078 26.28290997 -15.27574313 17.82378029 -15 9 C-19.455 9.495 -19.455 9.495 -24 10 C-24.38063221 7.6739143 -24.71269945 5.33944736 -25 3 C-23.49201943 1.49201943 -22.0216881 1.68218109 -19.921875 1.46484375 C-18.67470703 1.33432617 -18.67470703 1.33432617 -17.40234375 1.20117188 C-16.08943359 1.0706543 -16.08943359 1.0706543 -14.75 0.9375 C-13.89019531 0.84662109 -13.03039062 0.75574219 -12.14453125 0.66210938 C-8.08208092 0.24584906 -4.08996357 -0.12675507 0 0 Z " fill="#C2A37A" transform="translate(370,131)"/>
<path d="M0 0 C0 11.22 0 22.44 0 34 C-1.98 34 -3.96 34 -6 34 C-6.33 25.75 -6.66 17.5 -7 9 C-9.31 9.66 -11.62 10.32 -14 11 C-16 8 -16 8 -15.9921875 5.953125 C-15 4 -15 4 -12.3828125 2.734375 C-11.30773437 2.40953125 -10.23265625 2.0846875 -9.125 1.75 C-8.05507813 1.41484375 -6.98515625 1.0796875 -5.8828125 0.734375 C-3 0 -3 0 0 0 Z " fill="#C2A37A" transform="translate(465,196)"/>
<path d="M0 0 C1.39120471 0.00015906 2.78241534 0.00585033 4.17358398 0.01586914 C4.90463852 0.01728409 5.63569305 0.01869904 6.38890076 0.02015686 C8.73253406 0.02577131 11.07607313 0.03832617 13.41967773 0.05102539 C15.00496282 0.05603853 16.59024939 0.06060176 18.17553711 0.06469727 C22.06945383 0.07574542 25.96329979 0.09301967 29.85717773 0.11352539 C29.85717773 1.76352539 29.85717773 3.41352539 29.85717773 5.11352539 C18.96717773 5.11352539 8.07717773 5.11352539 -3.14282227 5.11352539 C-3.47282227 3.79352539 -3.80282227 2.47352539 -4.14282227 1.11352539 C-3.14282227 0.11352539 -3.14282227 0.11352539 0 0 Z " fill="#C2A37A" transform="translate(589.142822265625,212.886474609375)"/>
<path d="M0 0 C10.89 0 21.78 0 33 0 C33.495 1.98 33.495 1.98 34 4 C33 5 33 5 29.85717773 5.11352539 C28.46597303 5.11336633 27.07476239 5.10767506 25.68359375 5.09765625 C24.95253922 5.0962413 24.22148468 5.09482635 23.46827698 5.09336853 C21.12464368 5.08775408 18.78110461 5.07519922 16.4375 5.0625 C14.85221492 5.05748686 13.26692834 5.05292363 11.68164062 5.04882812 C7.7877239 5.03777997 3.89387795 5.02050572 0 5 C0 3.35 0 1.7 0 0 Z " fill="#C2A37A" transform="translate(405,213)"/>
</svg>
