<?xml version="1.0" encoding="UTF-8"?>
<svg version="1.1" xmlns="http://www.w3.org/2000/svg" width="512" height="512">
<path d="M0 0 C0.82278946 -0.00701431 1.64557892 -0.01402863 2.49330139 -0.02125549 C5.13621542 -0.03867925 7.77890564 -0.04510821 10.421875 -0.046875 C11.32304047 -0.04754974 12.22420593 -0.04822449 13.15267944 -0.04891968 C26.05010425 -0.03354182 38.56076875 0.24649556 51.171875 3.203125 C51.94080078 3.37473145 52.70972656 3.54633789 53.50195312 3.72314453 C90.556406 12.14392698 122.81830927 30.01991084 150.171875 56.203125 C150.66929199 56.67331055 151.16670898 57.14349609 151.67919922 57.62792969 C183.17637785 87.51635426 202.60607646 127.51652567 209.171875 170.203125 C209.2764502 170.87142334 209.38102539 171.53972168 209.48876953 172.22827148 C212.15006833 192.13088263 211.56903073 214.64280944 207.171875 234.203125 C206.98383301 235.07694824 206.79579102 235.95077148 206.60205078 236.85107422 C194.67099646 291.00116563 162.30650852 339.98109974 128.72265625 383.20703125 C127.25339575 385.09819527 125.79045551 386.99410112 124.328125 388.890625 C118.34583944 396.61338644 112.09607329 404.06876704 105.69238281 411.44433594 C104.16330555 413.21303738 102.64626719 414.99135677 101.1328125 416.7734375 C95.42181432 423.49301673 89.59797959 430.07758103 83.609375 436.55078125 C81.65443622 438.67803034 79.74305455 440.82584752 77.859375 443.015625 C72.77238997 448.87592842 67.40928438 454.48843642 62.09960938 460.14599609 C60.15613753 462.21991881 58.21809218 464.29879215 56.28125 466.37890625 C50.13602071 472.97016025 43.98211685 479.5178177 37.515625 485.796875 C35.56498919 487.79952777 33.74111771 489.83689115 31.91796875 491.953125 C28.05326741 496.40735705 23.92749224 500.55988015 19.734375 504.703125 C19.00283203 505.43015625 18.27128906 506.1571875 17.51757812 506.90625 C15.73797676 508.67421999 13.95606582 510.43978878 12.171875 512.203125 C8.63067442 510.69402488 6.35583135 508.63193186 3.65234375 505.9140625 C2.79447266 505.05425781 1.93660156 504.19445312 1.05273438 503.30859375 C0.16392578 502.40753906 -0.72488281 501.50648438 -1.640625 500.578125 C-2.51783203 499.70027344 -3.39503906 498.82242187 -4.29882812 497.91796875 C-8.76194812 493.42480531 -13.06326724 488.85964755 -17.19018555 484.05712891 C-19.92549139 480.96100243 -22.87723508 478.0918651 -25.828125 475.203125 C-30.17076847 470.91070529 -34.37488285 466.58777927 -38.32421875 461.92578125 C-39.91918498 460.09881993 -41.59830342 458.40253213 -43.328125 456.703125 C-46.27695283 453.79976368 -48.9894461 450.76057615 -51.6875 447.625 C-53.91294786 445.10715753 -56.19837901 442.65611724 -58.49829102 440.20654297 C-63.77890234 434.5818563 -68.82658232 428.87324137 -73.65234375 422.84765625 C-75.958442 420.04473252 -78.36964031 417.37309225 -80.828125 414.703125 C-85.72074433 409.3732608 -90.31849523 403.85914214 -94.828125 398.203125 C-96.03855469 396.68525391 -96.03855469 396.68525391 -97.2734375 395.13671875 C-99.60205027 392.20119912 -101.90781226 389.24840246 -104.20605469 386.2890625 C-105.34183715 384.82847771 -106.48077705 383.37034525 -107.62207031 381.9140625 C-123.20089614 362.00645148 -137.25803459 341.13791145 -149.828125 319.203125 C-150.3226416 318.34041992 -150.8171582 317.47771484 -151.32666016 316.58886719 C-164.85062387 292.80579393 -176.62702964 268.10473582 -183.140625 241.453125 C-183.38337158 240.45998291 -183.62611816 239.46684082 -183.8762207 238.44360352 C-187.06763731 224.68788675 -188.2124214 211.14484429 -188.140625 197.078125 C-188.13846985 196.31310669 -188.1363147 195.54808838 -188.13409424 194.7598877 C-188.0782806 182.36538872 -187.44695769 170.35498702 -184.828125 158.203125 C-184.54606201 156.86096924 -184.54606201 156.86096924 -184.25830078 155.49169922 C-173.153304 104.40164643 -140.46450268 59.41730711 -96.70825195 31.15332031 C-93.45310874 29.10344807 -90.15153602 27.13987435 -86.828125 25.203125 C-86.2285498 24.84911621 -85.62897461 24.49510742 -85.01123047 24.13037109 C-60.07408823 9.55920298 -28.96296311 0.1653014 0 0 Z " fill="#C6C5C5" transform="translate(244.828125,-0.203125)"/>
<path d="M0 0 C0.8377597 0.00026184 1.67551941 0.00052368 2.53866577 0.00079346 C42.57396003 0.14842149 78.73103807 14.91476881 107.8125 42.4375 C108.74707031 43.29601562 109.68164062 44.15453125 110.64453125 45.0390625 C131.05787169 64.22443138 144.38458728 89.58698721 152.125 116.25 C152.36758545 117.08490967 152.6101709 117.91981934 152.86010742 118.7800293 C156.0317627 130.21211445 157.14131005 141.27461546 157.07324219 153.10009766 C157.06254763 155.30269097 157.07318605 157.50446292 157.0859375 159.70703125 C157.10146635 172.91921415 155.42363933 185.38768924 151.8125 198.125 C151.55210937 199.08599609 151.29171875 200.04699219 151.0234375 201.03710938 C149.08195153 208.0333227 149.08195153 208.0333227 146.8125 211.4375 C144.02687399 211.73176044 141.46343551 211.8285842 138.67550659 211.79826355 C137.82441885 211.80082682 136.97333111 211.8033901 136.09645283 211.80603105 C133.22801241 211.81099534 130.36009161 211.79443265 127.49169922 211.77807617 C125.44216932 211.77723047 123.3926385 211.77770393 121.34310913 211.77940369 C115.76481411 211.78026729 110.18671114 211.76258259 104.6084609 211.74168181 C98.78415993 211.72297567 92.95985494 211.72116937 87.13552856 211.71760559 C76.09993712 211.70826726 65.06443444 211.68362932 54.02888215 211.65355712 C39.12107184 211.61381148 24.2132374 211.59757268 9.3053875 211.58005047 C-14.1923082 211.55180948 -37.68981656 211.4920518 -61.1875 211.4375 C-61.1875 145.7675 -61.1875 80.0975 -61.1875 12.4375 C-40.15490164 4.55027562 -22.13583908 -0.0158529 0 0 Z " fill="#A2001D" transform="translate(255.1875,42.5625)"/>
<path d="M0 0 C52.65591355 -1.128341 101.17782756 19.79608967 139 56 C139.49741699 56.47018555 139.99483398 56.94037109 140.50732422 57.42480469 C172.00450285 87.31322926 191.43420146 127.31340067 198 170 C198.1045752 170.66829834 198.20915039 171.33659668 198.31689453 172.02514648 C200.97819333 191.92775763 200.39715573 214.43968444 196 234 C195.81195801 234.87382324 195.62391602 235.74764648 195.43017578 236.64794922 C183.49912146 290.79804063 151.13463352 339.77797474 117.55078125 383.00390625 C116.08152075 384.89507027 114.61858051 386.79097612 113.15625 388.6875 C107.17396444 396.41026144 100.92419829 403.86564204 94.52050781 411.24121094 C92.99143055 413.00991238 91.47439219 414.78823177 89.9609375 416.5703125 C84.24993932 423.28989173 78.42610459 429.87445603 72.4375 436.34765625 C70.48256122 438.47490534 68.57117955 440.62272252 66.6875 442.8125 C61.60051497 448.67280342 56.23740938 454.28531142 50.92773438 459.94287109 C48.98426253 462.01679381 47.04621718 464.09566715 45.109375 466.17578125 C38.96414571 472.76703525 32.81024185 479.3146927 26.34375 485.59375 C24.39280165 487.59672363 22.56670847 489.63428236 20.7421875 491.75 C16.88789865 496.19103642 12.79313346 500.35489491 8.625 504.5 C7.90183594 505.22703125 7.17867188 505.9540625 6.43359375 506.703125 C5.74652344 507.38890625 5.05945313 508.0746875 4.3515625 508.78125 C3.73104004 509.40064453 3.11051758 510.02003906 2.47119141 510.65820312 C1 512 1 512 0 512 C0 467.12 0 422.24 0 376 C9.9 375.01 19.8 374.02 30 373 C62.26334043 366.5839948 92.7228172 353.81590627 116.88671875 330.9921875 C118.82133632 329.16842602 120.81900095 327.49582305 122.875 325.8125 C144.50567717 306.78792851 159.21115223 279.03644245 168 252 C168.24089355 251.27522461 168.48178711 250.55044922 168.72998047 249.80371094 C182.9803075 206.15281327 177.09695212 158.07171179 156.83911133 117.41699219 C149.45990815 103.15814184 140.03361571 90.61129193 129 79 C127.78472745 77.58928156 126.57579395 76.17306281 125.375 74.75 C115.11678572 63.01954201 101.45606337 53.6677622 88 46 C87.35546875 45.62987793 86.7109375 45.25975586 86.046875 44.87841797 C75.71471944 39.00496217 65.3458519 34.51456595 54 31 C53.28763184 30.77328613 52.57526367 30.54657227 51.84130859 30.31298828 C34.92306613 24.98778997 17.66421874 22.89213226 0 22 C0 14.74 0 7.48 0 0 Z " fill="#B3B3B3" transform="translate(256,0)"/>
<path d="M0 0 C4.7025 0.0309375 4.7025 0.0309375 9.5 0.0625 C9.5 7.3225 9.5 14.5825 9.5 22.0625 C5.7565625 22.18625 5.7565625 22.18625 1.9375 22.3125 C-44.16670378 24.5835796 -87.91623688 44.94011725 -119.87890625 78.2578125 C-149.23280043 110.93612361 -166.7067975 152.05042505 -166.75 196.1875 C-166.75100708 196.89881073 -166.75201416 197.61012146 -166.75305176 198.34298706 C-166.73640121 215.77341855 -164.78577738 232.38820072 -159.5 249.0625 C-159.26829102 249.80790039 -159.03658203 250.55330078 -158.79785156 251.32128906 C-153.19852484 269.07050621 -145.5674699 286.02425845 -134.5 301.0625 C-133.74203125 302.1040625 -132.9840625 303.145625 -132.203125 304.21875 C-104.89330124 341.07049404 -65.44857485 364.70667519 -20.5 373.0625 C-5.65 374.5475 -5.65 374.5475 9.5 376.0625 C9.5 420.9425 9.5 465.8225 9.5 512.0625 C1.61117272 505.30064805 1.61117272 505.30064805 -1.4375 502.2578125 C-2.10523438 501.59136719 -2.77296875 500.92492187 -3.4609375 500.23828125 C-4.13382813 499.56152344 -4.80671875 498.88476562 -5.5 498.1875 C-6.17289063 497.51847656 -6.84578125 496.84945313 -7.5390625 496.16015625 C-11.45665362 492.23500221 -15.16318233 488.19352252 -18.78515625 483.99560547 C-21.55151391 480.8771516 -24.5223755 477.97741161 -27.5 475.0625 C-31.84264347 470.77008029 -36.04675785 466.44715427 -39.99609375 461.78515625 C-41.59105998 459.95819493 -43.27017842 458.26190713 -45 456.5625 C-47.94882783 453.65913868 -50.6613211 450.61995115 -53.359375 447.484375 C-55.58482286 444.96653253 -57.87025401 442.51549224 -60.17016602 440.06591797 C-65.45077734 434.4412313 -70.49845732 428.73261637 -75.32421875 422.70703125 C-77.630317 419.90410752 -80.04151531 417.23246725 -82.5 414.5625 C-87.39261933 409.2326358 -91.99037023 403.71851714 -96.5 398.0625 C-97.71042969 396.54462891 -97.71042969 396.54462891 -98.9453125 394.99609375 C-101.27392527 392.06057412 -103.57968726 389.10777746 -105.87792969 386.1484375 C-107.01371215 384.68785271 -108.15265205 383.22972025 -109.29394531 381.7734375 C-124.87277114 361.86582648 -138.92990959 340.99728645 -151.5 319.0625 C-151.9945166 318.19979492 -152.4890332 317.33708984 -152.99853516 316.44824219 C-166.52249887 292.66516893 -178.29890464 267.96411082 -184.8125 241.3125 C-185.05524658 240.31935791 -185.29799316 239.32621582 -185.5480957 238.30297852 C-188.73951231 224.54726175 -189.8842964 211.00421929 -189.8125 196.9375 C-189.81034485 196.17248169 -189.8081897 195.40746338 -189.80596924 194.6192627 C-189.7501556 182.22476372 -189.11883269 170.21436202 -186.5 158.0625 C-186.21793701 156.72034424 -186.21793701 156.72034424 -185.93017578 155.35107422 C-174.825179 104.26102143 -142.13637768 59.27668211 -98.38012695 31.01269531 C-95.12498374 28.96282307 -91.82341102 26.99924935 -88.5 25.0625 C-87.9004248 24.70849121 -87.30084961 24.35448242 -86.68310547 23.98974609 C-61.21692972 9.1094553 -29.55447598 -0.27701193 0 0 Z " fill="#979797" transform="translate(246.5,-0.0625)"/>
<path d="M0 0 C0 94.38 0 188.76 0 286 C-4.50157228 284.49947591 -7.48199699 283.29497484 -11.375 280.875 C-12.68597656 280.06675781 -12.68597656 280.06675781 -14.0234375 279.2421875 C-15.00183594 278.62730469 -15.00183594 278.62730469 -16 278 C-15.71640625 276.73671875 -15.4328125 275.4734375 -15.140625 274.171875 C-14.43204125 267.75441795 -17.43689101 263.52838501 -20.75 258.25 C-21.30171875 257.33089844 -21.8534375 256.41179687 -22.421875 255.46484375 C-24.47091773 252.06126556 -26.5663411 248.68807211 -28.68457031 245.32714844 C-30 243 -30 243 -30 241 C-30.66 241 -31.32 241 -32 241 C-32.38285156 242.30324219 -32.38285156 242.30324219 -32.7734375 243.6328125 C-34.03389349 247.09304519 -35.60369711 249.80561413 -37.625 252.875 C-38.25664062 253.84179688 -38.88828125 254.80859375 -39.5390625 255.8046875 C-40.02117187 256.52914063 -40.50328125 257.25359375 -41 258 C-59.31050685 250.48578257 -73.81528504 222.4182702 -81.10693359 205.41943359 C-83.27813186 200.01357199 -85.1763273 194.53097064 -87 189 C-87.32484375 188.08347656 -87.6496875 187.16695312 -87.984375 186.22265625 C-88.78592951 183.8302614 -89.41818718 181.45532327 -90 179 C-90.27714844 177.87722656 -90.55429688 176.75445312 -90.83984375 175.59765625 C-93.14255043 165.0373728 -93.29581336 154.44820734 -93.3125 143.6875 C-93.31599457 142.96079102 -93.31948914 142.23408203 -93.3230896 141.48535156 C-93.39325886 115.14626153 -86.46550241 90.11516391 -74 67 C-73.4328125 65.9378125 -72.865625 64.875625 -72.28125 63.78125 C-64.60154046 50.0157329 -54.20421776 38.01932968 -43 27 C-38.82912589 28.39029137 -37.81791302 31.27843718 -35.8125 34.9375 C-35.44447266 35.58396484 -35.07644531 36.23042969 -34.69726562 36.89648438 C-32 41.71553224 -32 41.71553224 -32 44 C-27.51589438 40.00202172 -25.18270512 34.34193681 -22.375 29.125 C-21.776875 28.03574219 -21.17875 26.94648437 -20.5625 25.82421875 C-19.99273437 24.77105469 -19.42296875 23.71789062 -18.8359375 22.6328125 C-18.05549072 21.19252686 -18.05549072 21.19252686 -17.25927734 19.72314453 C-15.34132734 15.57564271 -14.53732153 12.38803541 -16 8 C-3.54150198 0 -3.54150198 0 0 0 Z " fill="#FBFAFA" transform="translate(193,56)"/>
<path d="M0 0 C68.64 0 137.28 0 208 0 C200.82444535 21.52666395 188.78816111 38.87303715 173 55 C172.31550781 55.73476563 171.63101563 56.46953125 170.92578125 57.2265625 C161.74700028 66.88641166 150.53700453 74.45484093 139 81 C137.30423828 81.96873047 137.30423828 81.96873047 135.57421875 82.95703125 C98.73776802 103.07627918 54.86508065 106.69972726 14.81469727 94.9777832 C9.61733966 93.35678915 5.05612997 91.24716888 0 89 C0 59.63 0 30.26 0 0 Z " fill="#6DA444" transform="translate(194,254)"/>
<path d="M0 0 C2.63771527 2.36976152 4.15360491 4.84327619 5.8125 7.96484375 C6.58980469 9.41213867 6.58980469 9.41213867 7.3828125 10.88867188 C8.18332031 12.3978418 8.18332031 12.3978418 9 13.9375 C10.05954979 15.92735498 11.12194697 17.915697 12.1875 19.90234375 C12.88939453 21.22480103 12.88939453 21.22480103 13.60546875 22.57397461 C15.13546858 25.34937497 15.13546858 25.34937497 18 29 C23.28 19.43 28.56 9.86 34 0 C34.66 0 35.32 0 36 0 C38.12672557 3.74875914 40.24432258 7.50248399 42.35375977 11.26098633 C43.07199897 12.53776614 43.79267548 13.81317815 44.51586914 15.0871582 C45.55745346 16.92301328 46.59005277 18.76367649 47.62109375 20.60546875 C48.55586548 22.26292114 48.55586548 22.26292114 49.50952148 23.95385742 C50.92100935 26.83856408 51.8608901 28.80330486 52 32 C50.86010742 34.90673828 50.86010742 34.90673828 49.10546875 38.0703125 C48.47962891 39.21371094 47.85378906 40.35710937 47.20898438 41.53515625 C46.53535524 42.73188287 45.86152502 43.92849631 45.1875 45.125 C44.52410911 46.32872171 43.86198562 47.53314283 43.20117188 48.73828125 C38.51683087 57.22475369 38.51683087 57.22475369 36 61 C35.34 61 34.68 61 34 61 C33.58637207 60.22809326 33.17274414 59.45618652 32.74658203 58.66088867 C31.20839912 55.79207603 29.66886578 52.92399351 28.12841797 50.05639648 C27.46251231 48.81612694 26.79714264 47.57556947 26.13232422 46.3347168 C25.17556936 44.54920344 24.21687944 42.76474103 23.2578125 40.98046875 C22.6817627 39.90692139 22.10571289 38.83337402 21.51220703 37.72729492 C19.99690384 34.9069103 19.99690384 34.9069103 18 32 C14.03939432 38.23115699 10.33171202 44.57945635 6.6875 51 C6.13771484 51.96550781 5.58792969 52.93101562 5.02148438 53.92578125 C3.67949731 56.28301071 2.3390373 58.64109408 1 61 C-2.15005308 58.10159229 -4.17074388 55.26062372 -6.19921875 51.5 C-6.76833984 50.448125 -7.33746094 49.39625 -7.92382812 48.3125 C-8.50583984 47.219375 -9.08785156 46.12625 -9.6875 45 C-10.28111328 43.906875 -10.87472656 42.81375 -11.48632812 41.6875 C-16.76583086 31.86292935 -16.76583086 31.86292935 -17 29 C-15.98364258 26.52978516 -15.98364258 26.52978516 -14.39453125 23.7890625 C-13.82283203 22.79132813 -13.25113281 21.79359375 -12.66210938 20.765625 C-12.05173828 19.72921875 -11.44136719 18.6928125 -10.8125 17.625 C-10.22146484 16.59632813 -9.63042969 15.56765625 -9.02148438 14.5078125 C-6.16341515 9.56274736 -3.25187984 4.69626319 0 0 Z " fill="#A30420" transform="translate(127,211)"/>
<path d="M0 0 C4.33790376 4.83037109 7.10318542 10.49310732 10.125 16.1875 C11.18689902 18.18269876 12.25185767 20.17627302 13.3203125 22.16796875 C13.78711426 23.04735107 14.25391602 23.9267334 14.73486328 24.83276367 C15.94191046 27.11136949 15.94191046 27.11136949 18 29 C20.11846237 25.19170765 22.23636934 21.38310715 24.35375977 17.57421875 C25.07430976 16.27823516 25.79501207 14.98233625 26.51586914 13.68652344 C27.55134392 11.82509183 28.58627248 9.96335747 29.62109375 8.1015625 C30.2442749 6.98088379 30.86745605 5.86020508 31.50952148 4.70556641 C32.36583046 3.15116574 33.20634687 1.58730627 34 0 C34.66 0 35.32 0 36 0 C36.34256836 0.6297876 36.68513672 1.2595752 37.03808594 1.90844727 C38.60796833 4.79354341 40.17897536 7.6780257 41.75 10.5625 C42.28882813 11.55314453 42.82765625 12.54378906 43.3828125 13.56445312 C43.91132813 14.53447266 44.43984375 15.50449219 44.984375 16.50390625 C45.49806641 17.45281738 46.01175781 18.40172852 46.54101562 19.37939453 C47.78052942 21.6057903 49.09571832 23.74766507 50.453125 25.90234375 C52.25690582 29.51446038 52.100613 30.24065264 51 34 C49.20654059 37.90062838 47.15287704 41.65644448 45.10791016 45.43066406 C44.12374595 47.25232121 43.15716845 49.08259675 42.19140625 50.9140625 C41.57394531 52.06132812 40.95648438 53.20859375 40.3203125 54.390625 C39.75586426 55.44282227 39.19141602 56.49501953 38.60986328 57.57910156 C37 60 37 60 34 61 C33.62190186 60.29915283 33.24380371 59.59830566 32.85424805 58.8762207 C31.13319413 55.68766688 29.41036529 52.50007542 27.6875 49.3125 C27.09259766 48.20970703 26.49769531 47.10691406 25.88476562 45.97070312 C25.30791016 44.90400391 24.73105469 43.83730469 24.13671875 42.73828125 C23.60780029 41.75899658 23.07888184 40.77971191 22.53393555 39.77075195 C21.07910455 37.14288677 19.56208974 34.56526664 18 32 C11.91354569 41.7588719 6.50380902 51.90625522 1 62 C-1.90908608 59.44534545 -3.49398687 56.55134525 -5.3203125 53.16015625 C-5.93777344 52.01482422 -6.55523437 50.86949219 -7.19140625 49.68945312 C-7.50867676 49.09398682 -7.82594727 48.49852051 -8.15283203 47.88500977 C-9.12187104 46.06836582 -10.10127653 44.2576061 -11.08203125 42.44726562 C-16.75843638 31.86201958 -16.75843638 31.86201958 -17 29 C-16.09130859 26.74511719 -16.09130859 26.74511719 -14.6484375 24.296875 C-14.12636719 23.39839844 -13.60429688 22.49992187 -13.06640625 21.57421875 C-12.50824219 20.64222656 -11.95007813 19.71023437 -11.375 18.75 C-10.84003906 17.83347656 -10.30507812 16.91695312 -9.75390625 15.97265625 C-6.59694423 10.58815411 -3.33243471 5.27738731 0 0 Z " fill="#A30420" transform="translate(127,125)"/>
<path d="M0 0 C0.66 0 1.32 0 2 0 C4.12672557 3.74875914 6.24432258 7.50248399 8.35375977 11.26098633 C9.07199897 12.53776614 9.79267548 13.81317815 10.51586914 15.0871582 C11.55745346 16.92301328 12.59005277 18.76367649 13.62109375 20.60546875 C14.2442749 21.71043701 14.86745605 22.81540527 15.50952148 23.95385742 C16.87943415 26.75359539 17.76834189 28.89942306 18 32 C16.0625 34.3125 16.0625 34.3125 14 36 C5.85455456 30.7829346 -1.631374 25.26623313 -9 19 C-8.42334609 14.2128572 -6.35917004 10.74871176 -3.9375 6.6875 C-3.56044922 6.04232422 -3.18339844 5.39714844 -2.79492188 4.73242188 C-1.86962507 3.15121848 -0.93567319 1.5750854 0 0 Z " fill="#A30521" transform="translate(161,297)"/>
<path d="M0 0 C0.93270623 2.91412694 1.3350166 5.10691004 0.24169922 8.02148438 C-0.95343414 10.31489061 -2.23064425 12.53318562 -3.5625 14.75 C-4.02269531 15.5426123 -4.48289063 16.33522461 -4.95703125 17.15185547 C-5.87305298 18.72433799 -6.79623488 20.2926746 -7.72705078 21.85644531 C-8.81680848 23.69151869 -9.87815038 25.54341582 -10.93359375 27.3984375 C-13.7965752 32.38188151 -13.7965752 32.38188151 -15 34 C-15.66 34 -16.32 34 -17 34 C-18.5617377 31.42702218 -20.09906742 28.84408538 -21.625 26.25 C-22.07101563 25.52039063 -22.51703125 24.79078125 -22.9765625 24.0390625 C-23.3890625 23.33007812 -23.8015625 22.62109375 -24.2265625 21.890625 C-24.61408691 21.24125977 -25.00161133 20.59189453 -25.40087891 19.92285156 C-26 18 -26 18 -25.25366211 15.89111328 C-21.24810167 9.84884041 -7.66093365 -2.84499997 0 0 Z " fill="#A30521" transform="translate(178,66)"/>
</svg>
