<svg version="1.1" id="Layer_1" xmlns="http://www.w3.org/2000/svg" xmlns:xlink="http://www.w3.org/1999/xlink" x="0px" y="0px"
	 width="100%" viewBox="0 0 1023 96" enable-background="new 0 0 1023 96" xml:space="preserve">
<path fill="#033E8C" opacity="1.000000" stroke="none" 
	d="
M168.000000,97.000000 
	C112.389763,97.000000 56.779518,97.000000 1.084639,97.000000 
	C1.084639,65.089058 1.084639,33.177826 1.084639,1.000000 
	C57.020611,1.000000 113.041649,1.000000 169.649506,1.349899 
	C180.645325,4.642043 185.999542,12.559551 186.675232,22.320116 
	C187.497726,34.201294 181.935547,43.495808 169.356110,47.778648 
	C170.841919,48.767910 171.689346,49.442635 172.629944,49.941811 
	C186.467743,57.285576 188.313156,69.508614 184.683838,81.496643 
	C182.224289,89.620842 175.445312,93.849098 168.000000,97.000000 
M104.191238,36.999958 
	C105.603188,36.711788 107.009575,36.215458 108.428200,36.177631 
	C111.646217,36.091824 112.672798,34.105560 111.865990,31.584560 
	C111.324043,29.891121 109.558144,27.370768 108.269302,27.327623 
	C97.885178,26.980009 87.484299,27.132896 77.214203,27.132896 
	C77.214203,30.691059 77.214203,33.639023 77.214203,37.000000 
	C86.032822,37.000000 94.643585,37.000000 104.191238,36.999958 
M103.998207,62.032417 
	C95.148010,61.540447 86.297813,61.048473 77.222992,60.544018 
	C77.222992,64.157120 77.222992,66.875534 77.222992,69.997940 
	C86.849518,69.997940 96.261017,70.127258 105.666306,69.941772 
	C110.170593,69.852951 112.111740,67.319473 111.456505,62.952923 
	C109.305824,62.643787 107.078407,62.323624 103.998207,62.032417 
z"/>
<path fill="#033E8C" opacity="1.000000" stroke="none" 
	d="
M644.000000,1.000006 
	C699.020874,1.000000 754.041809,1.000000 809.531372,1.468657 
	C810.000000,33.624878 810.000000,65.312439 810.000000,97.000000 
	C782.645752,97.000000 755.291565,97.000000 727.468628,96.533951 
	C726.999939,92.403931 726.839172,88.730972 727.043701,85.078468 
	C727.261108,81.197205 724.535950,79.156837 721.815369,79.408081 
	C720.052979,79.570831 717.644348,82.841263 717.210510,85.050163 
	C716.454590,88.898766 717.000061,93.002953 717.000000,97.000000 
	C686.645752,97.000000 656.291565,97.000000 625.468628,96.531342 
	C625.000000,92.729874 625.061768,89.395706 624.988098,86.064522 
	C624.787964,77.013962 624.944031,68.062454 627.918152,59.303169 
	C629.989990,53.201412 631.297913,46.842670 633.012939,40.616863 
	C636.652527,27.404976 640.335083,14.204915 644.000000,1.000006 
M717.001709,32.116230 
	C717.001221,37.428074 717.035645,42.740234 716.988098,48.051659 
	C716.955933,51.640526 719.086975,54.162132 722.164124,53.687141 
	C724.017883,53.400997 726.446045,50.245903 726.783569,48.092808 
	C727.494568,43.556370 726.779114,38.816978 727.072083,34.187649 
	C727.294128,30.678846 726.012390,27.906164 722.794861,27.635382 
	C720.982727,27.482880 718.949585,29.955534 717.001709,32.116230 
z"/>
<path fill="#033E8C" opacity="1.000000" stroke="none" 
	d="
M212.000000,1.000000 
	C273.354218,1.000000 334.708466,1.000000 396.531342,1.468654 
	C397.000000,10.202685 397.000000,18.468063 397.000000,27.000000 
	C394.614960,27.000000 392.805725,27.000000 390.996490,27.000000 
	C359.675934,27.000000 328.355347,26.997889 297.034790,27.006519 
	C295.540131,27.006931 293.724548,26.586317 292.623718,27.270844 
	C290.837982,28.381290 288.652435,30.081968 288.319916,31.850197 
	C288.108459,32.974709 290.728912,35.076683 292.472260,35.993870 
	C294.089233,36.844601 296.227325,36.958710 298.136688,36.961994 
	C329.290558,37.015610 360.444580,37.000004 391.598541,37.000004 
	C393.349457,37.000004 395.100342,37.000004 396.623535,37.000004 
	C396.623535,45.441536 396.623535,53.174652 396.623535,61.000000 
	C362.930420,61.000000 329.613647,60.999771 296.296844,61.000854 
	C294.964142,61.000896 293.291046,60.509403 292.372650,61.129601 
	C290.686554,62.268215 288.308655,64.087715 288.338043,65.581726 
	C288.367432,67.075729 290.818146,68.790649 292.542450,69.877014 
	C293.498871,70.479584 295.140411,69.999290 296.473145,69.999329 
	C328.126923,70.000191 359.780701,70.000000 391.434479,70.000000 
	C393.201202,70.000000 394.967896,70.000000 397.000000,70.000000 
	C397.000000,79.390648 397.000000,88.195328 397.000000,97.000000 
	C335.645782,97.000000 274.291534,97.000000 212.468658,96.531342 
	C212.000000,64.375122 212.000000,32.687561 212.000000,1.000000 
z"/>
<path fill="#033E8C" opacity="1.000000" stroke="none" 
	d="
M1024.000000,70.000000 
	C1024.000000,78.981125 1024.000000,87.962242 1024.000000,97.000000 
	C963.645813,97.000000 903.291565,97.000000 842.468628,96.531342 
	C842.000000,88.566696 841.864136,81.066261 842.108704,73.578270 
	C842.160828,71.982994 843.188293,69.872482 844.457336,68.947403 
	C859.800293,57.763657 875.321655,46.824413 890.635498,35.601727 
	C892.144104,34.496075 893.653137,31.627253 893.220581,30.142323 
	C892.804321,28.713270 889.889709,27.182957 888.037231,27.137167 
	C876.883301,26.861479 865.719116,27.000074 854.558411,27.000006 
	C850.455444,26.999979 846.352478,27.000000 842.000000,27.000000 
	C842.000000,17.941448 842.000000,9.470724 842.000000,1.000000 
	C902.666687,1.000000 963.333374,1.000000 1024.000000,1.000000 
	C1024.000000,9.765697 1024.000000,18.414186 1023.658203,27.621214 
	C1007.466125,39.034977 991.562927,49.814930 975.847595,60.862125 
	C974.280334,61.963871 972.933716,64.777756 973.108093,66.645485 
	C973.402222,69.797363 976.327576,70.060677 979.182007,70.043053 
	C994.120850,69.950859 1009.060608,69.999992 1024.000000,70.000000 
z"/>
<path fill="#033E8C" opacity="1.000000" stroke="none" 
	d="
M602.000000,97.000000 
	C544.645752,97.000000 487.291534,97.000000 429.468658,96.531342 
	C429.000000,64.375122 429.000000,32.687561 429.000000,1.000000 
	C458.354218,1.000000 487.708466,1.000000 517.531372,1.468657 
	C518.000000,22.073034 518.185059,42.211452 517.891296,62.342884 
	C517.798889,68.675774 519.337219,70.029129 525.579468,70.017578 
	C549.209717,69.973854 572.840149,70.000000 596.470520,70.000000 
	C598.232300,70.000000 599.994080,70.000000 602.000000,70.000000 
	C602.000000,79.405006 602.000000,88.202499 602.000000,97.000000 
z"/>
<path fill="#FFFFFF" opacity="1.000000" stroke="none" 
	d="
M602.468628,97.000000 
	C602.000000,88.202499 602.000000,79.405006 602.000000,70.000000 
	C599.994080,70.000000 598.232300,70.000000 596.470520,70.000000 
	C572.840149,70.000000 549.209717,69.973854 525.579468,70.017578 
	C519.337219,70.029129 517.798889,68.675774 517.891296,62.342884 
	C518.185059,42.211452 518.000000,22.073034 518.000000,1.468657 
	C559.687561,1.000000 601.375122,1.000000 643.531372,1.000006 
	C640.335083,14.204915 636.652527,27.404976 633.012939,40.616863 
	C631.297913,46.842670 629.989990,53.201412 627.918152,59.303169 
	C624.944031,68.062454 624.787964,77.013962 624.988098,86.064522 
	C625.061768,89.395706 625.000000,92.729874 625.000000,96.531342 
	C617.645752,97.000000 610.291504,97.000000 602.468628,97.000000 
z"/>
<path fill="#FFFFFF" opacity="1.000000" stroke="none" 
	d="
M428.531342,1.000000 
	C429.000000,32.687561 429.000000,64.375122 429.000000,96.531342 
	C418.645782,97.000000 408.291534,97.000000 397.468658,97.000000 
	C397.000000,88.195328 397.000000,79.390648 397.000000,70.000000 
	C394.967896,70.000000 393.201202,70.000000 391.434479,70.000000 
	C359.780701,70.000000 328.126923,70.000191 296.473145,69.999329 
	C295.140411,69.999290 293.498871,70.479584 292.542450,69.877014 
	C290.818146,68.790649 288.367432,67.075729 288.338043,65.581726 
	C288.308655,64.087715 290.686554,62.268215 292.372650,61.129601 
	C293.291046,60.509403 294.964142,61.000896 296.296844,61.000854 
	C329.613647,60.999771 362.930420,61.000000 396.623535,61.000000 
	C396.623535,53.174652 396.623535,45.441536 396.623535,37.000004 
	C395.100342,37.000004 393.349457,37.000004 391.598541,37.000004 
	C360.444580,37.000004 329.290558,37.015610 298.136688,36.961994 
	C296.227325,36.958710 294.089233,36.844601 292.472260,35.993870 
	C290.728912,35.076683 288.108459,32.974709 288.319916,31.850197 
	C288.652435,30.081968 290.837982,28.381290 292.623718,27.270844 
	C293.724548,26.586317 295.540131,27.006931 297.034790,27.006519 
	C328.355347,26.997889 359.675934,27.000000 390.996490,27.000000 
	C392.805725,27.000000 394.614960,27.000000 397.000000,27.000000 
	C397.000000,18.468063 397.000000,10.202685 397.000000,1.468654 
	C407.354218,1.000000 417.708466,1.000000 428.531342,1.000000 
z"/>
<path fill="#FFFFFF" opacity="1.000000" stroke="none" 
	d="
M841.531372,1.000000 
	C842.000000,9.470724 842.000000,17.941448 842.000000,27.000000 
	C846.352478,27.000000 850.455444,26.999979 854.558411,27.000006 
	C865.719116,27.000074 876.883301,26.861479 888.037231,27.137167 
	C889.889709,27.182957 892.804321,28.713270 893.220581,30.142323 
	C893.653137,31.627253 892.144104,34.496075 890.635498,35.601727 
	C875.321655,46.824413 859.800293,57.763657 844.457336,68.947403 
	C843.188293,69.872482 842.160828,71.982994 842.108704,73.578270 
	C841.864136,81.066261 842.000000,88.566696 842.000000,96.531342 
	C831.645752,97.000000 821.291565,97.000000 810.468628,97.000000 
	C810.000000,65.312439 810.000000,33.624878 810.000000,1.468657 
	C820.354248,1.000000 830.708435,1.000000 841.531372,1.000000 
z"/>
<path fill="#FFFFFF" opacity="1.000000" stroke="none" 
	d="
M211.531342,1.000000 
	C212.000000,32.687561 212.000000,64.375122 212.000000,96.531342 
	C197.645767,97.000000 183.291550,97.000000 168.468658,97.000000 
	C175.445312,93.849098 182.224289,89.620842 184.683838,81.496643 
	C188.313156,69.508614 186.467743,57.285576 172.629944,49.941811 
	C171.689346,49.442635 170.841919,48.767910 169.356110,47.778648 
	C181.935547,43.495808 187.497726,34.201294 186.675232,22.320116 
	C185.999542,12.559551 180.645325,4.642043 170.118164,1.349899 
	C183.687561,1.000000 197.375122,1.000000 211.531342,1.000000 
z"/>
<path fill="#FFFFFF" opacity="1.000000" stroke="none" 
	d="
M1024.000000,69.531342 
	C1009.060608,69.999992 994.120850,69.950859 979.182007,70.043053 
	C976.327576,70.060677 973.402222,69.797363 973.108093,66.645485 
	C972.933716,64.777756 974.280334,61.963871 975.847595,60.862125 
	C991.562927,49.814930 1007.466125,39.034977 1023.658203,28.089876 
	C1024.000000,41.687561 1024.000000,55.375122 1024.000000,69.531342 
z"/>
<path fill="#FFFFFF" opacity="1.000000" stroke="none" 
	d="
M717.454102,97.000000 
	C717.000061,93.002953 716.454590,88.898766 717.210510,85.050163 
	C717.644348,82.841263 720.052979,79.570831 721.815369,79.408081 
	C724.535950,79.156837 727.261108,81.197205 727.043701,85.078468 
	C726.839172,88.730972 726.999939,92.403931 727.000000,96.533951 
	C723.969421,97.000000 720.938782,97.000000 717.454102,97.000000 
z"/>
<path fill="#FFFFFF" opacity="1.000000" stroke="none" 
	d="
M103.722794,36.999977 
	C94.643585,37.000000 86.032822,37.000000 77.214203,37.000000 
	C77.214203,33.639023 77.214203,30.691059 77.214203,27.132896 
	C87.484299,27.132896 97.885178,26.980009 108.269302,27.327623 
	C109.558144,27.370768 111.324043,29.891121 111.865990,31.584560 
	C112.672798,34.105560 111.646217,36.091824 108.428200,36.177631 
	C107.009575,36.215458 105.603188,36.711788 103.722794,36.999977 
z"/>
<path fill="#FFFFFF" opacity="1.000000" stroke="none" 
	d="
M104.424606,62.017941 
	C107.078407,62.323624 109.305824,62.643787 111.456505,62.952923 
	C112.111740,67.319473 110.170593,69.852951 105.666306,69.941772 
	C96.261017,70.127258 86.849518,69.997940 77.222992,69.997940 
	C77.222992,66.875534 77.222992,64.157120 77.222992,60.544018 
	C86.297813,61.048473 95.148010,61.540447 104.424606,62.017941 
z"/>
<path fill="#FFFFFF" opacity="1.000000" stroke="none" 
	d="
M717.008850,31.680910 
	C718.949585,29.955534 720.982727,27.482880 722.794861,27.635382 
	C726.012390,27.906164 727.294128,30.678846 727.072083,34.187649 
	C726.779114,38.816978 727.494568,43.556370 726.783569,48.092808 
	C726.446045,50.245903 724.017883,53.400997 722.164124,53.687141 
	C719.086975,54.162132 716.955933,51.640526 716.988098,48.051659 
	C717.035645,42.740234 717.001221,37.428074 717.008850,31.680910 
z"/>
</svg>