<?xml version="1.0" standalone="no"?>
<!DOCTYPE svg PUBLIC "-//W3C//DTD SVG 20010904//EN"
 "http://www.w3.org/TR/2001/REC-SVG-20010904/DTD/svg10.dtd">
<svg version="1.0" xmlns="http://www.w3.org/2000/svg"
 width="512.000000pt" height="512.000000pt" viewBox="0 0 512.000000 512.000000"
 preserveAspectRatio="xMidYMid meet">

<g transform="translate(0.000000,512.000000) scale(0.100000,-0.100000)"
fill="#000000" stroke="none">
<path d="M2487 5104 c-173 -31 -345 -122 -472 -248 -124 -123 -190 -233 -241
-402 -25 -80 -27 -105 -28 -244 -1 -133 3 -166 22 -234 27 -93 78 -207 121
-270 17 -24 31 -47 31 -49 0 -2 -19 -7 -42 -11 -41 -6 -79 -42 -712 -674 -455
-454 -674 -680 -687 -707 -24 -51 -24 -99 0 -150 12 -25 95 -115 227 -246 195
-192 212 -207 259 -218 54 -12 97 -5 144 26 14 9 160 124 323 255 164 131 300
238 303 238 3 0 5 -70 5 -155 l0 -155 -81 -326 -82 -326 -252 -168 c-138 -92
-263 -182 -278 -199 -14 -17 -29 -47 -33 -67 -15 -81 -5 -103 197 -406 106
-159 210 -304 230 -323 42 -38 83 -50 142 -40 53 8 1000 576 1030 617 11 15
37 75 57 134 l37 108 274 -410 c252 -376 278 -411 319 -431 82 -42 83 -42 532
185 392 197 414 209 435 247 15 27 23 57 23 93 0 48 -19 91 -285 623 -258 515
-298 589 -414 762 -70 106 -130 197 -134 203 -3 6 176 -20 409 -59 307 -51
427 -67 460 -62 52 7 106 50 133 104 31 61 201 586 201 620 0 39 -24 98 -51
127 -33 35 -79 50 -436 139 l-342 85 -278 206 c-153 114 -282 210 -287 215 -5
4 19 38 53 76 162 176 241 380 241 623 0 240 -81 445 -244 617 -216 230 -524
332 -829 277z m278 -369 c107 -23 189 -68 270 -149 82 -83 118 -145 145 -252
24 -92 25 -154 5 -249 -40 -188 -169 -331 -363 -402 -86 -32 -226 -36 -317 -9
-187 56 -327 195 -381 381 -23 79 -23 211 0 290 58 197 216 348 410 390 81 18
146 18 231 0z m95 -1453 c0 -28 162 -1132 169 -1153 5 -15 90 -148 190 -297
175 -262 188 -285 411 -731 126 -254 230 -464 230 -469 0 -4 -93 -54 -207
-111 -195 -97 -208 -102 -220 -85 -7 11 -155 233 -330 494 l-318 475 -340 256
-340 256 -5 355 -5 355 -29 37 c-50 66 -138 92 -210 62 -19 -8 -214 -158 -434
-334 l-399 -320 -62 61 -61 62 547 547 548 548 432 0 c238 0 433 -4 433 -8z
m796 -514 c19 -11 157 -51 305 -88 149 -38 272 -70 275 -72 5 -5 -55 -189 -66
-201 -5 -6 -719 106 -816 128 -19 4 -23 23 -53 237 -18 128 -36 246 -39 262
-5 26 11 17 177 -108 101 -76 198 -147 217 -158z m-1421 -1406 c99 -74 184
-139 190 -144 6 -5 -13 -75 -50 -187 l-58 -178 -315 -189 c-174 -104 -332
-199 -353 -212 l-38 -23 -81 120 c-44 66 -80 124 -80 128 0 4 88 66 196 137
107 71 210 146 228 166 29 32 38 59 85 246 74 298 70 286 84 277 7 -4 93 -67
192 -141z"/>
</g>
</svg>
