<?xml version="1.0" encoding="UTF-8"?>
<svg version="1.1" xmlns="http://www.w3.org/2000/svg" width="512" height="512">
<path d="M0 0 C1.30032197 0.36751971 1.30032197 0.36751971 2.62691307 0.74246407 C5.51607839 1.56173405 8.40073079 2.39587387 11.28564453 3.22998047 C13.36258639 3.82204553 15.43980331 4.41314645 17.51727295 5.00335693 C21.98277931 6.27413854 26.44634841 7.55144099 30.9085083 8.83392334 C37.95893233 10.86028602 45.01327245 12.87275377 52.06835938 14.8828125 C59.43756841 16.98314996 66.80643887 19.08464732 74.17385864 21.19125366 C91.99251546 26.28617749 109.81947834 31.35080901 127.65283203 36.39404297 C129.49937819 36.9162549 129.49937819 36.9162549 131.3832283 37.44901657 C137.44630452 39.16351587 143.5095217 40.87751595 149.57281494 42.59124756 C159.87824834 45.50419594 170.18252948 48.42121533 180.48685455 51.33808136 C185.32289621 52.70699503 190.1590078 54.07566156 194.99511719 55.44433594 C196.57426997 55.89126461 198.15342244 56.33819439 199.73257446 56.78512573 C200.82516571 57.09434967 201.91775696 57.40357361 203.04345703 57.72216797 C203.16350476 64.60812774 202.70493563 71.2893215 201.98719788 78.13494873 C201.87356398 79.25392052 201.75993008 80.37289231 201.64285272 81.52577233 C201.26257512 85.25933804 200.87579545 88.99220058 200.48901367 92.72509766 C200.21439236 95.40789498 199.94013012 98.09072681 199.66630554 100.77360535 C199.00000363 107.29363783 198.32884055 113.81316105 197.65599925 120.33252159 C196.87238558 127.92690411 196.09354624 135.52177399 195.31487828 143.11666492 C193.92551949 156.66638145 192.53173689 170.21563929 191.13549805 183.76464844 C189.78087914 196.9098104 188.42954052 210.0553042 187.08178711 223.20117188 C186.9571814 224.41655927 186.9571814 224.41655927 186.8300584 225.65649995 C186.74713094 226.46536422 186.66420348 227.27422848 186.57876307 228.10760379 C185.04353938 243.08168105 183.50514171 258.05543078 181.9653263 273.02903651 C181.42103236 278.32265428 180.87769816 283.61637006 180.33467293 288.9101181 C179.67314761 295.35849274 179.00981037 301.80667812 178.34420425 308.25463286 C178.004663 311.54422638 177.6661369 314.83391861 177.32917404 318.12377739 C176.9639117 321.68852624 176.59569527 325.25295771 176.22669983 328.81732178 C176.12066612 329.85884738 176.01463241 330.90037298 175.90538555 331.97345996 C175.80585943 332.9288319 175.7063333 333.88420385 175.60379124 334.86852646 C175.5191136 335.6910584 175.43443597 336.51359035 175.34719235 337.36104751 C174.36803222 344.97265827 174.36803222 344.97265827 170.66845703 347.90966797 C167.20257724 350.7606336 163.85044196 353.68692693 160.54345703 356.72216797 C156.75682705 360.1754495 152.93869383 363.58315848 149.07080078 366.94482422 C146.7085653 369.01576284 144.3754985 371.11729644 142.04345703 373.22216797 C139.08475952 375.89265141 136.11419231 378.54514855 133.10595703 381.15966797 C129.87786191 383.97039322 126.7060726 386.83796697 123.54345703 389.72216797 C119.75682705 393.1754495 115.93869383 396.58315848 112.07080078 399.94482422 C109.7085653 402.01576284 107.3754985 404.11729644 105.04345703 406.22216797 C102.06282983 408.91200228 99.0710047 411.58527161 96.04345703 414.22216797 C91.32644419 418.33297835 86.68706814 422.52884642 82.04345703 426.72216797 C76.76360127 431.49003772 71.47053897 436.23729015 66.10595703 440.90966797 C62.86832373 443.75486087 59.67659413 446.65070632 56.47705078 449.53857422 C54.36834557 451.43065482 52.24425902 453.30122555 50.10595703 455.15966797 C46.87786191 457.97039322 43.7060726 460.83796697 40.54345703 463.72216797 C36.75682705 467.1754495 32.93869383 470.58315848 29.07080078 473.94482422 C26.7085653 476.01576284 24.3754985 478.11729644 22.04345703 480.22216797 C19.08475952 482.89265141 16.11419231 485.54514855 13.10595703 488.15966797 C9.87786191 490.97039322 6.7060726 493.83796697 3.54345703 496.72216797 C2.61275391 497.56650391 1.68205078 498.41083984 0.72314453 499.28076172 C-0.94837393 500.80364662 -2.61140607 502.33596338 -4.26123047 503.88232422 C-4.94443359 504.51009766 -5.62763672 505.13787109 -6.33154297 505.78466797 C-6.91677734 506.33251953 -7.50201172 506.88037109 -8.10498047 507.44482422 C-10.44508947 509.05920321 -12.11719418 509.57461126 -14.95654297 509.72216797 C-16.69482422 508.53466797 -16.69482422 508.53466797 -18.26904297 506.72216797 C-20.65141076 504.12461857 -23.02898187 501.70393811 -25.70654297 499.40966797 C-29.00521213 496.56488545 -32.23960936 493.65917504 -35.45654297 490.72216797 C-39.24317295 487.26888643 -43.06130617 483.86117746 -46.92919922 480.49951172 C-49.2914347 478.4285731 -51.6245015 476.32703949 -53.95654297 474.22216797 C-56.93717017 471.53233366 -59.9289953 468.85906433 -62.95654297 466.22216797 C-68.54634286 461.35073594 -74.03189195 456.36321647 -79.53466797 451.39404297 C-83.95775698 447.4051222 -88.40269301 443.4464889 -92.89404297 439.53466797 C-96.13167627 436.68947507 -99.32340587 433.79362961 -102.52294922 430.90576172 C-104.63165443 429.01368112 -106.75574098 427.14311039 -108.89404297 425.28466797 C-113.08818661 421.63279744 -117.18748589 417.87950613 -121.29638672 414.13232422 C-124.14410092 411.55223661 -127.02898314 409.02014941 -129.92919922 406.49951172 C-132.2914347 404.4285731 -134.6245015 402.32703949 -136.95654297 400.22216797 C-139.93717017 397.53233366 -142.9289953 394.85906433 -145.95654297 392.22216797 C-151.54634286 387.35073594 -157.03189195 382.36321647 -162.53466797 377.39404297 C-166.95775698 373.4051222 -171.40269301 369.4464889 -175.89404297 365.53466797 C-178.26618725 363.45005632 -180.61210362 361.33788153 -182.95654297 359.22216797 C-190.13822591 352.38614205 -190.13822591 352.38614205 -198.00892228 346.43108416 C-200.48383534 344.25950167 -200.58127452 343.10781002 -200.90753651 339.87169647 C-201.01591443 338.88761197 -201.12429236 337.90352746 -201.23595446 336.88962221 C-201.33499821 335.8220857 -201.43404196 334.75454919 -201.53608704 333.65466309 C-201.65427837 332.53789169 -201.7724697 331.42112029 -201.89424258 330.27050734 C-202.14116364 327.91995905 -202.3801546 325.56856578 -202.61168504 323.21645164 C-202.9344526 319.94599928 -203.27861599 316.67879303 -203.63301659 313.41163635 C-204.33904144 306.87743841 -205.01237413 300.34007213 -205.68383789 293.80224609 C-205.94026958 291.320565 -206.19687169 288.8389015 -206.45362854 286.35725403 C-207.07053454 280.38942556 -207.68547513 274.4213979 -208.29926606 268.4532485 C-208.7982303 263.60165081 -209.29784996 258.75012105 -209.79790688 253.89863586 C-211.22093584 240.09173884 -212.64214467 226.28465618 -214.06106075 212.47733587 C-214.13702642 211.73812558 -214.2129921 210.99891529 -214.29125977 210.23730469 C-214.36731925 209.49717748 -214.44337872 208.75705028 -214.52174304 207.99449497 C-215.7594726 195.95141421 -217.0016979 183.90880183 -218.2458901 171.86638719 C-219.52861774 159.45046104 -220.80792239 147.03418625 -222.08369714 134.6175437 C-222.79800117 127.66619415 -223.51371085 120.71499609 -224.23314476 113.76417542 C-224.90797857 107.24400314 -225.5780762 100.72335619 -226.24498558 94.20236778 C-226.49010763 91.81292705 -226.73678952 89.42364574 -226.98515701 87.03454018 C-227.32423722 83.77047524 -227.65764932 80.50587838 -227.9896698 77.24108887 C-228.0887881 76.29994751 -228.18790639 75.35880616 -228.29002827 74.38914537 C-228.85087866 68.80201417 -229.04485586 63.33776691 -228.95654297 57.72216797 C-227.8438353 57.40866898 -227.8438353 57.40866898 -226.70864868 57.08883667 C-183.90761916 45.02917298 -141.11361833 32.9447659 -98.32640839 20.83615875 C-93.72679218 19.53454124 -89.12710623 18.23317029 -84.52742577 16.93177986 C-81.20439616 15.99145813 -77.8814727 15.05076205 -74.55856323 14.11001587 C-70.33857334 12.91536729 -66.11810084 11.72244668 -61.89724731 10.53085327 C-53.22356793 8.08014966 -44.55464058 5.61859559 -35.91064453 3.06494141 C-34.59013987 2.67733759 -33.26959528 2.28986978 -31.94900513 1.90255737 C-29.65428834 1.22666151 -27.36202764 0.54232634 -25.07321167 -0.15328979 C-24.09514557 -0.4407608 -23.11707947 -0.72823181 -22.109375 -1.02441406 C-21.29566437 -1.26966827 -20.48195374 -1.51492249 -19.64358521 -1.76760864 C-12.5950625 -3.10600262 -6.75230137 -1.9800704 0 0 Z " fill="#CB6A11" transform="translate(268.95654296875,2.27783203125)"/>
<path d="M0 0 C0 11.55 0 23.1 0 35 C-5.16310326 36.93616372 -10.0620877 38.67855041 -15.32650757 40.18302917 C-16.01796863 40.38160296 -16.7094297 40.58017675 -17.42184412 40.78476793 C-19.71312751 41.44191243 -22.00571468 42.0943797 -24.29833984 42.74682617 C-25.95150497 43.21989386 -27.6045892 43.69324429 -29.25759888 44.16685486 C-33.72732115 45.44655498 -38.19821402 46.72211841 -42.6693759 47.99677825 C-47.35086126 49.33200014 -52.03139258 50.67055872 -56.71206665 52.00862122 C-64.56438023 54.25278433 -72.41745743 56.494259 -80.27099609 58.73413086 C-89.35847518 61.32596497 -98.44473047 63.92205403 -107.53034818 66.52040499 C-116.27126106 69.02007137 -125.01302118 71.516762 -133.75517654 74.01207924 C-137.47711325 75.07450644 -141.19874812 76.13798178 -144.92014694 77.20229149 C-149.29430889 78.45314307 -153.66920394 79.70139633 -158.04468918 80.94761086 C-159.65345124 81.40627015 -161.26195512 81.86583611 -162.87018585 82.32635498 C-165.05790213 82.95265013 -167.2465134 83.57571127 -169.43539429 84.19792175 C-170.66204992 84.5479938 -171.88870556 84.89806585 -173.15253258 85.25874615 C-176 86 -176 86 -178 86 C-175.41109061 110.71974083 -172.74941248 135.42956018 -169.9375 160.125 C-169.68317026 162.36408393 -169.428938 164.60317893 -169.17480469 166.84228516 C-168.98834885 168.48493347 -168.98834885 168.48493347 -168.79812622 170.1607666 C-168.55159587 172.33288468 -168.30507474 174.50500381 -168.05856323 176.67712402 C-167.93949615 177.72613892 -167.82042908 178.77515381 -167.69775391 179.85595703 C-167.52279388 181.39742401 -167.52279388 181.39742401 -167.34429932 182.97003174 C-167.01204384 185.89400948 -166.67869102 188.81786049 -166.34521484 191.74169922 C-165.85296688 196.06381084 -165.36759217 200.38664079 -164.88772583 204.71014404 C-164.71618094 206.24609751 -164.54235304 207.78179819 -164.36593628 209.31719971 C-164.12575421 211.41004245 -163.89393725 213.50365972 -163.6640625 215.59765625 C-163.53467285 216.74758057 -163.4052832 217.89750488 -163.27197266 219.08227539 C-162.90446155 224.37621686 -163 229.69331736 -163 235 C-120.1 235 -77.2 235 -33 235 C-33 229.39 -33 223.78 -33 218 C-32.56640625 213.56640625 -32.56640625 213.56640625 -32.28955078 211.53955078 C-31.8697113 207.85728243 -31.67429754 204.16377472 -31.46484375 200.46484375 C-31.42597549 199.78015518 -31.38710724 199.09546661 -31.34706116 198.39002991 C-31.20844175 195.90596951 -31.07316157 193.42172368 -30.9375 190.9375 C-30.628125 185.348125 -30.31875 179.75875 -30 174 C-10.2 174 9.6 174 30 174 C30.433125 181.3425 30.86625 188.685 31.3125 196.25 C32.35288688 213.69191582 33.44207533 231.12965029 34.625 248.5625 C34.71825058 249.95051819 34.71825058 249.95051819 34.81338501 251.36657715 C34.99052124 253.99584669 35.17049923 256.62490454 35.3515625 259.25390625 C35.40250565 260.01125565 35.45344879 260.76860504 35.50593567 261.54890442 C35.76289011 265.22226722 36.08555166 268.87485922 36.50927734 272.53295898 C36.99439386 276.75806897 37.28212505 280.9724168 37.5 285.21875 C37.54060547 285.96153198 37.58121094 286.70431396 37.62304688 287.46960449 C37.79410568 290.60014516 37.95929977 293.73098829 38.125 296.86181641 C38.68305802 307.70586647 38.68305802 307.70586647 39.74560547 318.50878906 C40.3474651 324.40262373 40.60100604 330.33351132 40.92993164 336.24804688 C41.0625839 338.62650429 41.19997318 341.0046552 41.33789062 343.3828125 C41.42476085 344.91404655 41.51135873 346.44529607 41.59765625 347.9765625 C41.65857201 349.02839218 41.65857201 349.02839218 41.72071838 350.10147095 C41.82852579 352.06689545 41.91465542 354.03347204 42 356 C42.08894531 357.2264624 42.17789062 358.4529248 42.26953125 359.71655273 C41.93835848 363.75092105 40.99785327 364.8170769 38.08984375 367.55859375 C36.85137695 368.75645508 36.85137695 368.75645508 35.58789062 369.97851562 C34.71326172 370.78998047 33.83863281 371.60144531 32.9375 372.4375 C31.23598501 374.05879147 29.53673367 375.68246218 27.83984375 377.30859375 C27.00179199 378.10765137 26.16374023 378.90670898 25.30029297 379.72998047 C22.73839851 382.25815864 20.43198287 384.88227265 18.19970703 387.703125 C16.26515623 389.72313099 14.58399678 390.99957488 12.28466797 392.53515625 C6.22920601 396.93681027 1.83780382 401.21941256 0.17218018 408.73553467 C-1.170198 418.8742192 -0.75849411 429.21027798 -0.49353027 439.40643311 C-0.39958645 443.65017637 -0.39221733 447.89404554 -0.37695312 452.13867188 C-0.33468581 460.42824718 -0.1982467 468.71269242 0 477 C-2.74793409 475.66190272 -5.04208933 474.2997589 -7.3984375 472.34765625 C-8.03523437 471.82429688 -8.67203125 471.3009375 -9.328125 470.76171875 C-10.34132812 469.92060547 -10.34132812 469.92060547 -11.375 469.0625 C-12.81953475 467.87535508 -14.26486093 466.68917258 -15.7109375 465.50390625 C-16.4337793 464.91109863 -17.15662109 464.31829102 -17.90136719 463.70751953 C-20.9033487 461.26500456 -23.94743381 458.87877773 -27 456.5 C-32.74057422 452.01861146 -38.3969472 447.4404224 -44.0390625 442.8359375 C-48.32451618 439.34469917 -52.64329453 435.90181112 -57 432.5 C-62.74010668 428.0179989 -68.39693246 423.44043443 -74.0390625 418.8359375 C-78.88494128 414.88813664 -83.78170143 411.01201102 -88.70874023 407.16625977 C-93.20663846 403.64624854 -97.63985702 400.05143112 -102.0625 396.4375 C-106.82173946 392.55018227 -111.61374347 388.72660109 -116.5 385 C-122.08836614 380.73792101 -127.54628513 376.33360701 -132.98828125 371.88671875 C-137.28936608 368.37663802 -141.62376186 364.91582925 -146 361.5 C-151.04853877 357.55814819 -156.03756407 353.54968093 -161 349.5 C-172.5805254 339.47222893 -172.5805254 339.47222893 -185.10560608 330.80024719 C-187.92272455 328.12313259 -187.79941443 325.775039 -188.20092773 321.95385742 C-188.28135881 321.23637172 -188.36178989 320.51888601 -188.44465828 319.77965832 C-188.70819637 317.38977763 -188.945834 314.99804054 -189.18359375 312.60546875 C-189.3645355 310.91825535 -189.54709759 309.23121502 -189.73118591 307.54434204 C-190.21962489 303.02809805 -190.68606787 298.50982956 -191.14839935 293.99084854 C-191.62972991 289.32348674 -192.13133029 284.6583102 -192.63134766 279.99291992 C-193.41663838 272.64570991 -194.19144009 265.2974792 -194.95751953 257.94824219 C-195.80976953 249.77772425 -196.68694909 241.61041167 -197.58984375 233.4453125 C-197.70311005 232.42020065 -197.81637634 231.39508881 -197.93307495 230.33891296 C-198.14634743 228.40959854 -198.35969204 226.48029209 -198.57312012 224.55099487 C-200.15453777 210.20520912 -201.64306251 195.85153856 -203.04174805 181.48681641 C-203.6580494 175.20460611 -204.35191909 168.94422176 -205.1875 162.6875 C-205.88617059 157.3926163 -206.19058706 152.33643769 -206 147 C-206.66 147 -207.32 147 -208 147 C-209.04851481 136.986062 -210.09201172 126.97161481 -211.12921143 116.95649815 C-211.61104615 112.30545725 -212.09456865 107.65460508 -212.58203125 103.00415039 C-213.05291886 98.51121134 -213.51926456 94.01782142 -213.98254395 89.52409172 C-214.15954921 87.81484299 -214.33815492 86.10575917 -214.51843262 84.39685249 C-214.77181333 81.99228836 -215.01935287 79.58718596 -215.265625 77.18188477 C-215.34043091 76.48488464 -215.41523682 75.78788452 -215.49230957 75.06976318 C-215.99986478 70.0278127 -216.0583135 65.06751711 -216 60 C-214.88729233 59.68650101 -214.88729233 59.68650101 -213.75210571 59.3666687 C-170.95107619 47.30700501 -128.15707536 35.22259793 -85.36986542 23.11399078 C-81.90442234 22.13332605 -78.43894081 21.15279726 -74.97344971 20.17230225 C-69.43783443 18.60607911 -63.90237302 17.03931298 -58.36697006 15.47233963 C-55.22794794 14.5839706 -52.08873081 13.69629327 -48.94949341 12.8086853 C-40.23098458 10.3421805 -31.51503195 7.86851423 -22.81347656 5.34277344 C-21.47470507 4.95529778 -20.13592963 4.56783577 -18.79714966 4.1803894 C-16.4517467 3.49987427 -14.10760081 2.81500214 -11.7651062 2.12454224 C-10.77414948 1.83707123 -9.78319275 1.54960022 -8.76220703 1.25341797 C-7.92754913 1.00816376 -7.09289124 0.76290955 -6.23294067 0.51022339 C-4 0 -4 0 0 0 Z " fill="#F6A12F" transform="translate(256,0)"/>
<path d="M0 0 C6.09808498 0.60328999 11.68034982 1.88505519 17.55078125 3.61328125 C18.99244156 4.02909454 18.99244156 4.02909454 20.46322632 4.45330811 C22.60099738 5.0703738 24.73800592 5.69008554 26.87435913 6.31204224 C32.37685984 7.91320396 37.88444339 9.49670707 43.39181709 11.081007 C44.77541833 11.47912121 46.15895562 11.87745773 47.54243279 12.27600288 C68.48090678 18.3077109 89.45426032 24.21677373 110.42351532 30.14036179 C115.84450682 31.67189576 121.26526492 33.20425534 126.68603516 34.73657227 C133.00006254 36.52133861 139.3141082 38.30604017 145.62826538 40.09034729 C162.3158567 44.80606706 179.00210601 49.5265119 195.6875 54.25 C197.85440895 54.86336918 200.02131967 55.47673212 202.18823242 56.09008789 C206.79218547 57.39328415 211.39610666 58.69659286 216 60 C216.12004773 66.88595977 215.66147859 73.56715354 214.94374084 80.41278076 C214.83010694 81.53175255 214.71647304 82.65072434 214.59939569 83.80360436 C214.21911809 87.53717007 213.83233842 91.27003261 213.44555664 95.00292969 C213.17093533 97.68572702 212.89667309 100.36855884 212.62284851 103.05143738 C211.95654659 109.57146986 211.28538352 116.09099308 210.61254222 122.61035362 C209.82892855 130.20473614 209.05008921 137.79960602 208.27142125 145.39449695 C206.88206246 158.94421349 205.48827986 172.49347132 204.09204102 186.04248047 C202.73742211 199.18764243 201.38608349 212.33313623 200.03833008 225.47900391 C199.91372437 226.6943913 199.91372437 226.6943913 199.78660137 227.93433198 C199.70367391 228.74319625 199.62074645 229.55206052 199.53530604 230.38543582 C198.00008235 245.35951308 196.46168468 260.33326281 194.92186927 275.30686854 C194.37757533 280.60048631 193.83424113 285.89420209 193.2912159 291.18795013 C192.62969058 297.63632478 191.96635333 304.08451015 191.30074722 310.53246489 C190.96120597 313.82205841 190.62267987 317.11175064 190.28571701 320.40160942 C189.92045467 323.96635827 189.55223823 327.53078974 189.1832428 331.09515381 C189.07720909 332.13667941 188.97117538 333.17820501 188.86192852 334.25129199 C188.7624024 335.20666394 188.66287627 336.16203588 188.56033421 337.14635849 C188.47565657 337.96889044 188.39097894 338.79142238 188.30373532 339.63887954 C187.32457519 347.25049031 187.32457519 347.25049031 183.625 350.1875 C180.15912021 353.03846564 176.80698492 355.96475896 173.5 359 C169.71337002 362.45328153 165.8952368 365.86099051 162.02734375 369.22265625 C159.66510827 371.29359487 157.33204147 373.39512848 155 375.5 C152.04130249 378.17048344 149.07073528 380.82298058 146.0625 383.4375 C142.83440488 386.24822525 139.66261557 389.115799 136.5 392 C132.71337002 395.45328153 128.8952368 398.86099051 125.02734375 402.22265625 C122.66510827 404.29359487 120.33204147 406.39512848 118 408.5 C115.01937279 411.18983431 112.02754767 413.86310364 109 416.5 C104.28298716 420.61081039 99.64361111 424.80667845 95 429 C89.72014424 433.76786975 84.42708194 438.51512218 79.0625 443.1875 C75.8248667 446.0326929 72.6331371 448.92853836 69.43359375 451.81640625 C67.32488854 453.70848685 65.20080199 455.57905758 63.0625 457.4375 C59.83440488 460.24822525 56.66261557 463.115799 53.5 466 C49.71337002 469.45328153 45.8952368 472.86099051 42.02734375 476.22265625 C39.66510827 478.29359487 37.33204147 480.39512848 35 482.5 C32.04130249 485.17048344 29.07073528 487.82298058 26.0625 490.4375 C22.83440488 493.24822525 19.66261557 496.115799 16.5 499 C15.56929687 499.84433594 14.63859375 500.68867188 13.6796875 501.55859375 C12.00816903 503.08147865 10.3451369 504.61379541 8.6953125 506.16015625 C8.01210938 506.78792969 7.32890625 507.41570312 6.625 508.0625 C6.03976562 508.61035156 5.45453125 509.15820312 4.8515625 509.72265625 C2.5114535 511.33703525 0.83934879 511.85244329 -2 512 C-3.73828125 510.8125 -3.73828125 510.8125 -5.3125 509 C-7.69486779 506.4024506 -10.0724389 503.98177014 -12.75 501.6875 C-16.04866916 498.84271749 -19.28306639 495.93700707 -22.5 493 C-26.28662998 489.54671847 -30.1047632 486.13900949 -33.97265625 482.77734375 C-36.33489173 480.70640513 -38.66795853 478.60487152 -41 476.5 C-43.98062721 473.81016569 -46.97245233 471.13689636 -50 468.5 C-55.58979989 463.62856797 -61.07534898 458.6410485 -66.578125 453.671875 C-71.00121401 449.68295423 -75.44615005 445.72432093 -79.9375 441.8125 C-83.1751333 438.9673071 -86.3668629 436.07146164 -89.56640625 433.18359375 C-91.67511146 431.29151315 -93.79919801 429.42094242 -95.9375 427.5625 C-100.13164365 423.91062947 -104.23094292 420.15733816 -108.33984375 416.41015625 C-111.18755795 413.83006864 -114.07244018 411.29798144 -116.97265625 408.77734375 C-119.33489173 406.70640513 -121.66795853 404.60487152 -124 402.5 C-126.98062721 399.81016569 -129.97245233 397.13689636 -133 394.5 C-138.58979989 389.62856797 -144.07534898 384.6410485 -149.578125 379.671875 C-154.00121401 375.68295423 -158.44615005 371.72432093 -162.9375 367.8125 C-165.30964429 365.72788836 -167.65556065 363.61571356 -170 361.5 C-177.19812338 354.67292152 -177.19812338 354.67292152 -185.05520153 348.68196964 C-187.44327112 346.61663454 -187.59503269 345.67537009 -187.90583801 342.58067322 C-188.00747851 341.66092744 -188.10911901 340.74118166 -188.21383953 339.7935648 C-188.35512641 338.26174265 -188.35512641 338.26174265 -188.49926758 336.69897461 C-188.61517903 335.60388297 -188.73109049 334.50879133 -188.85051441 333.3805151 C-189.17772932 330.26524634 -189.48877594 327.14875072 -189.79610109 324.03147268 C-190.15062078 320.49934462 -190.53267763 316.97019148 -190.91244507 313.44070435 C-191.87557925 304.45474325 -192.80872638 295.46579016 -193.73697639 286.47616696 C-194.01480363 283.78654175 -194.29317939 281.09697384 -194.57172585 278.40742302 C-195.54652478 268.9944172 -196.51902844 259.58117732 -197.48950195 250.16772461 C-198.39003355 241.43336829 -199.29599469 232.69958612 -200.20433968 223.96603924 C-200.98933845 216.41592085 -201.77039763 208.86540146 -202.54845077 201.31456417 C-203.01100754 196.82628661 -203.47515003 192.33818742 -203.9433651 187.85049629 C-204.38210888 183.64411411 -204.81592959 179.43725232 -205.2460556 175.22998047 C-205.40391811 173.69398314 -205.56349948 172.15816127 -205.72499275 170.62254143 C-206.55325429 162.73681616 -207.25920679 154.93879771 -207 147 C-206.67 147 -206.34 147 -206 147 C-205.88930176 148.02657715 -205.77860352 149.0531543 -205.66455078 150.11083984 C-205.24361706 154.01370323 -204.82229865 157.91652501 -204.40087891 161.81933594 C-204.2204396 163.49087454 -204.0400971 165.1624236 -203.85986328 166.83398438 C-202.92453774 175.50795305 -201.98341974 184.18115077 -201.015625 192.8515625 C-200.28019944 199.44121907 -199.56136223 206.03253484 -198.8515625 212.625 C-196.48518375 234.77250601 -196.48518375 234.77250601 -193.9609375 256.90234375 C-193.88091492 257.57959 -193.80089233 258.25683624 -193.71844482 258.9546051 C-193.32478519 262.26849122 -192.91839092 265.58025092 -192.49804688 268.89086914 C-191.57829666 276.24137471 -190.85828432 283.57287232 -190.35479736 290.96482849 C-190.05774588 295.23546425 -189.71163463 299.50162151 -189.36328125 303.76834106 C-189.20642942 305.85448241 -189.07266353 307.94250897 -188.96386719 310.03170776 C-188.67952696 322.27846832 -188.67952696 322.27846832 -182.96386719 332.58837891 C-180.06125616 335.0535329 -176.95010321 337.07606014 -173.66741943 338.99661255 C-171.47799935 340.31411947 -169.56736928 341.87594827 -167.625 343.53125 C-167.02042969 344.02560547 -166.41585937 344.51996094 -165.79296875 345.02929688 C-165.20128906 345.51462891 -164.60960937 345.99996094 -164 346.5 C-158.47853374 351.00830401 -152.910284 355.44786662 -147.29125977 359.83374023 C-142.79336154 363.35375146 -138.36014298 366.94856888 -133.9375 370.5625 C-129.17826054 374.44981773 -124.38625653 378.27339891 -119.5 382 C-113.91163386 386.26207899 -108.45371487 390.66639299 -103.01171875 395.11328125 C-98.71063392 398.62336198 -94.37623814 402.08417075 -90 405.5 C-84.25980746 409.9818886 -78.60306483 414.55956778 -72.9609375 419.1640625 C-68.67548382 422.65530083 -64.35670547 426.09818888 -60 429.5 C-54.25989332 433.9820011 -48.60306754 438.55956557 -42.9609375 443.1640625 C-38.1195022 447.10824338 -33.22795524 450.9817766 -28.30444336 454.82275391 C-23.00317795 458.96986371 -17.7871653 463.21920529 -12.59179688 467.49804688 C-11.96466797 468.01173828 -11.33753906 468.52542969 -10.69140625 469.0546875 C-9.87458374 469.72733643 -9.87458374 469.72733643 -9.04125977 470.41357422 C-6.09488554 472.70343664 -3.04721625 474.84700588 0 477 C-0.04663284 476.14461136 -0.09326569 475.28922272 -0.14131165 474.40791321 C-0.56641678 466.24859143 -0.88384784 458.09310017 -1.08805561 449.92515278 C-1.19661075 445.72719267 -1.34297503 441.53854165 -1.58422852 437.34594727 C-3.25213302 407.58307285 -3.25213302 407.58307285 4.52197266 398.26318359 C8.69627323 393.62281951 13.51312225 389.76061481 18.48867798 386.01654053 C21.57147439 383.54111768 24.02334759 380.78962742 26.50248718 377.72373962 C28.05324494 375.93871144 29.67892833 374.57094899 31.5625 373.1484375 C35.95658861 369.70604963 40.31819371 366.27730384 41.50292969 360.58251953 C41.81805138 354.93042069 41.10664424 349.38551995 40.34619141 343.79150391 C39.82346254 339.57649556 39.7070058 335.36654437 39.5625 331.125 C39.17045694 322.70448707 38.46538861 314.31884757 37.73071289 305.92236328 C37.11944929 298.81165284 36.70129783 291.7121775 36.39672852 284.58251953 C36.05441127 277.06652129 35.40771691 269.58379189 34.66015625 262.09765625 C33.816668 252.95986691 34 244.32832375 34 235 C76.57 235 119.14 235 163 235 C163 231.04 163 227.08 163 223 C163.39716389 218.99923574 163.83978225 215.04318204 164.375 211.0625 C165.38181755 203.39322142 166.23596942 195.72488827 166.94921875 188.0234375 C167.86962536 178.10651456 168.96517566 168.21588661 170.11627197 158.32339478 C171.7443878 144.33004394 173.29750427 130.33758328 174.625 116.3125 C175.59797391 106.09696303 176.9220774 96.0506611 179 86 C178.40401158 85.89064212 177.80802317 85.78128424 177.19397449 85.66861248 C170.73395706 84.43615956 164.46192449 82.81598186 158.14916992 80.98168945 C157.11118256 80.68362396 156.07319519 80.38555847 155.00375366 80.07846069 C151.57823282 79.0938202 148.15437442 78.10352213 144.73046875 77.11328125 C142.29351206 76.41182034 139.85644199 75.71075323 137.41926575 75.01005554 C131.63118265 73.34508445 125.84409509 71.67669942 120.05752975 70.00646418 C109.28660171 66.89768461 98.51343725 63.79666515 87.74023819 60.69576645 C85.23612136 59.97479953 82.73210044 59.25349939 80.22817612 58.53186417 C66.31259097 54.52137369 52.39081222 50.5346639 38.45166016 46.60693359 C36.58496091 46.08060286 36.58496091 46.08060286 34.68055058 45.54363918 C28.74538779 43.8709613 22.80906263 42.20258359 16.87089539 40.54060364 C14.77238699 39.9505724 12.67390038 39.36046369 10.57543945 38.77026367 C9.61253557 38.50232939 8.64963169 38.2343951 7.6575489 37.9583416 C6.7883576 37.7132844 5.9191663 37.4682272 5.02363586 37.21574402 C4.265855 37.00370929 3.50807413 36.79167456 2.72733021 36.57321453 C1 36 1 36 0 35 C-0.08851529 32.40640678 -0.11525945 29.83960309 -0.09765625 27.24609375 C-0.09553383 26.08292381 -0.09553383 26.08292381 -0.09336853 24.89625549 C-0.08775345 22.40996506 -0.07519846 19.9237634 -0.0625 17.4375 C-0.05748694 15.75586067 -0.0529237 14.07421994 -0.04882812 12.39257812 C-0.03777913 8.26168434 -0.02050445 4.13085724 0 0 Z " fill="#F89200" transform="translate(256,0)"/>
<path d="M0 0 C0 11.55 0 23.1 0 35 C-5.16310326 36.93616372 -10.0620877 38.67855041 -15.32650757 40.18302917 C-16.01796863 40.38160296 -16.7094297 40.58017675 -17.42184412 40.78476793 C-19.71312751 41.44191243 -22.00571468 42.0943797 -24.29833984 42.74682617 C-25.95150497 43.21989386 -27.6045892 43.69324429 -29.25759888 44.16685486 C-33.72732115 45.44655498 -38.19821402 46.72211841 -42.6693759 47.99677825 C-47.35086126 49.33200014 -52.03139258 50.67055872 -56.71206665 52.00862122 C-64.56438023 54.25278433 -72.41745743 56.494259 -80.27099609 58.73413086 C-89.35847518 61.32596497 -98.44473047 63.92205403 -107.53034818 66.52040499 C-116.27126106 69.02007137 -125.01302118 71.516762 -133.75517654 74.01207924 C-137.47711325 75.07450644 -141.19874812 76.13798178 -144.92014694 77.20229149 C-149.29430889 78.45314307 -153.66920394 79.70139633 -158.04468918 80.94761086 C-159.65345124 81.40627015 -161.26195512 81.86583611 -162.87018585 82.32635498 C-165.05790213 82.95265013 -167.2465134 83.57571127 -169.43539429 84.19792175 C-170.66204992 84.5479938 -171.88870556 84.89806585 -173.15253258 85.25874615 C-176 86 -176 86 -178 86 C-175.55299786 109.36476476 -173.05311805 132.72177213 -170.37948608 156.0617981 C-168.2193732 174.92122513 -166.16395148 193.78613451 -164.26916504 212.67407227 C-162.13910801 233.90073722 -159.85485872 255.10986925 -157.55008411 276.31814003 C-157.32590698 278.38181276 -157.10208729 280.44552396 -156.87837219 282.50924683 C-156.6041057 285.03776558 -156.32901102 287.5661947 -156.05290222 290.09451294 C-155.92877457 291.23878754 -155.80464691 292.38306213 -155.67675781 293.56201172 C-155.55610962 294.64303162 -155.43546143 295.72405151 -155.31115723 296.83782959 C-155.10238345 298.95951665 -154.94204696 301.08648546 -154.82849121 303.21539307 C-154.77261841 304.20795105 -154.71674561 305.20050903 -154.65917969 306.22314453 C-154.62588562 307.09842804 -154.59259155 307.97371155 -154.55828857 308.8755188 C-154.21321193 311.17240316 -154.21321193 311.17240316 -152.0708313 312.21495056 C-151.38745697 312.47401688 -150.70408264 312.73308319 -150 313 C-148.76628126 313.92066807 -147.56130289 314.88071401 -146.3828125 315.87109375 C-145.70089844 316.43957031 -145.01898438 317.00804687 -144.31640625 317.59375 C-143.59324219 318.2021875 -142.87007813 318.810625 -142.125 319.4375 C-136.80644568 323.8681185 -131.46707174 328.25378503 -126 332.5 C-120.01229566 337.15912293 -114.15904219 341.96934431 -108.31640625 346.80859375 C-103.9257836 350.43701066 -99.49480832 354.00165771 -95 357.5 C-88.92202265 362.23133321 -82.97277719 367.10880475 -77.03735352 372.01733398 C-72.60287925 375.68384643 -68.14181665 379.31102259 -63.63671875 382.890625 C-60.15592895 385.67525684 -56.70481217 388.49574972 -53.25 391.3125 C-48.22649091 395.40577313 -43.17326101 399.45376519 -38.0625 403.4375 C-31.97542018 408.18535205 -26.01301458 413.07588955 -20.06396484 417.99511719 C-11.47275107 425.76512075 -11.47275107 425.76512075 -1.90063477 431.99072266 C1.26727418 435.3397131 0.48940059 439.27318096 0.390625 443.69921875 C0.38213531 445.12449638 0.38213531 445.12449638 0.37347412 446.5785675 C0.35107148 449.61538944 0.3008677 452.65103431 0.25 455.6875 C0.22994004 457.74542568 0.21168839 459.80336983 0.1953125 461.86132812 C0.15119387 466.90800607 0.0821393 471.95380343 0 477 C-2.74793409 475.66190272 -5.04208933 474.2997589 -7.3984375 472.34765625 C-8.03523437 471.82429688 -8.67203125 471.3009375 -9.328125 470.76171875 C-10.34132812 469.92060547 -10.34132812 469.92060547 -11.375 469.0625 C-12.81953475 467.87535508 -14.26486093 466.68917258 -15.7109375 465.50390625 C-16.4337793 464.91109863 -17.15662109 464.31829102 -17.90136719 463.70751953 C-20.9033487 461.26500456 -23.94743381 458.87877773 -27 456.5 C-32.74057422 452.01861146 -38.3969472 447.4404224 -44.0390625 442.8359375 C-48.32451618 439.34469917 -52.64329453 435.90181112 -57 432.5 C-62.74010668 428.0179989 -68.39693246 423.44043443 -74.0390625 418.8359375 C-78.88494128 414.88813664 -83.78170143 411.01201102 -88.70874023 407.16625977 C-93.20663846 403.64624854 -97.63985702 400.05143112 -102.0625 396.4375 C-106.82173946 392.55018227 -111.61374347 388.72660109 -116.5 385 C-122.08836614 380.73792101 -127.54628513 376.33360701 -132.98828125 371.88671875 C-137.28936608 368.37663802 -141.62376186 364.91582925 -146 361.5 C-151.04853877 357.55814819 -156.03756407 353.54968093 -161 349.5 C-172.5805254 339.47222893 -172.5805254 339.47222893 -185.10560608 330.80024719 C-187.92272455 328.12313259 -187.79941443 325.775039 -188.20092773 321.95385742 C-188.28135881 321.23637172 -188.36178989 320.51888601 -188.44465828 319.77965832 C-188.70819637 317.38977763 -188.945834 314.99804054 -189.18359375 312.60546875 C-189.3645355 310.91825535 -189.54709759 309.23121502 -189.73118591 307.54434204 C-190.21962489 303.02809805 -190.68606787 298.50982956 -191.14839935 293.99084854 C-191.62972991 289.32348674 -192.13133029 284.6583102 -192.63134766 279.99291992 C-193.41663838 272.64570991 -194.19144009 265.2974792 -194.95751953 257.94824219 C-195.80976953 249.77772425 -196.68694909 241.61041167 -197.58984375 233.4453125 C-197.70311005 232.42020065 -197.81637634 231.39508881 -197.93307495 230.33891296 C-198.14634743 228.40959854 -198.35969204 226.48029209 -198.57312012 224.55099487 C-200.15453777 210.20520912 -201.64306251 195.85153856 -203.04174805 181.48681641 C-203.6580494 175.20460611 -204.35191909 168.94422176 -205.1875 162.6875 C-205.88617059 157.3926163 -206.19058706 152.33643769 -206 147 C-206.66 147 -207.32 147 -208 147 C-209.04851481 136.986062 -210.09201172 126.97161481 -211.12921143 116.95649815 C-211.61104615 112.30545725 -212.09456865 107.65460508 -212.58203125 103.00415039 C-213.05291886 98.51121134 -213.51926456 94.01782142 -213.98254395 89.52409172 C-214.15954921 87.81484299 -214.33815492 86.10575917 -214.51843262 84.39685249 C-214.77181333 81.99228836 -215.01935287 79.58718596 -215.265625 77.18188477 C-215.34043091 76.48488464 -215.41523682 75.78788452 -215.49230957 75.06976318 C-215.99986478 70.0278127 -216.0583135 65.06751711 -216 60 C-214.88729233 59.68650101 -214.88729233 59.68650101 -213.75210571 59.3666687 C-170.95107619 47.30700501 -128.15707536 35.22259793 -85.36986542 23.11399078 C-81.90442234 22.13332605 -78.43894081 21.15279726 -74.97344971 20.17230225 C-69.43783443 18.60607911 -63.90237302 17.03931298 -58.36697006 15.47233963 C-55.22794794 14.5839706 -52.08873081 13.69629327 -48.94949341 12.8086853 C-40.23098458 10.3421805 -31.51503195 7.86851423 -22.81347656 5.34277344 C-21.47470507 4.95529778 -20.13592963 4.56783577 -18.79714966 4.1803894 C-16.4517467 3.49987427 -14.10760081 2.81500214 -11.7651062 2.12454224 C-10.77414948 1.83707123 -9.78319275 1.54960022 -8.76220703 1.25341797 C-7.92754913 1.00816376 -7.09289124 0.76290955 -6.23294067 0.51022339 C-4 0 -4 0 0 0 Z " fill="#FECB28" transform="translate(256,0)"/>
<path d="M0 0 C5.68238224 0.65595285 10.95738524 2.00876891 16.4375 3.625 C17.34056885 3.88716309 18.2436377 4.14932617 19.17407227 4.41943359 C22.1174038 5.27504445 25.05871705 6.13737567 28 7 C30.07280004 7.60456668 32.14571793 8.20872941 34.21875 8.8125 C37.24649205 9.69450363 40.27403409 10.57713252 43.30053711 11.46337891 C48.45581438 12.97252352 53.61552466 14.4644824 58.78125 15.9375 C65.56103385 17.87087199 72.33192481 19.83395787 79.10107422 21.80419922 C88.56136462 24.55726855 98.02343616 27.30336226 107.5 30 C116.17576368 32.46881963 124.83864418 34.98122386 133.5 37.5 C144.91439737 40.8192921 156.33540596 44.11419538 167.76953125 47.36499023 C170.8469811 48.24113374 173.92345403 49.12068865 177 50 C175.09460833 68.7766853 173.17144155 87.55058629 171.125 106.3125 C168.33087812 132.19921737 165.67919287 158.10113556 163 184 C120.1 184 77.2 184 33 184 C31.4206803 163.46884394 30 143.5305632 30 123 C41.55 123 53.1 123 65 123 C65 112.77 65 102.54 65 92 C51.47 92 37.94 92 24 92 C22.87530628 83.00245023 22.87530628 83.00245023 22.71875 79.80639648 C22.68201172 79.08882675 22.64527344 78.37125702 22.60742188 77.63194275 C22.57197266 76.88586258 22.53652344 76.13978241 22.5 75.37109375 C22.45939453 74.57776138 22.41878906 73.78442902 22.37695312 72.96705627 C22.20517873 69.61049796 22.04015111 66.2536183 21.875 62.89672852 C21.75261717 60.42971056 21.62641245 57.962908 21.5 55.49609375 C21.44682617 54.37393715 21.44682617 54.37393715 21.39257812 53.22911072 C21.16309338 48.76651938 20.64212595 44.4258876 20 40 C19.8630559 37.87809925 19.75759966 35.75393322 19.68359375 33.62890625 C19.64169922 32.47841797 19.59980469 31.32792969 19.55664062 30.14257812 C19.51732422 28.96115234 19.47800781 27.77972656 19.4375 26.5625 C19.39431641 25.35400391 19.35113281 24.14550781 19.30664062 22.90039062 C19.20110653 19.93371001 19.10010254 16.96686885 19 14 C12.73 14 6.46 14 0 14 C0 9.38 0 4.76 0 0 Z " fill="#8E3306" transform="translate(256,51)"/>
<path d="M0 0 C42.24 0 84.48 0 128 0 C126.85120893 17.23186609 126.85120893 17.23186609 126.09765625 24.109375 C126.01503036 24.8865387 125.93240448 25.66370239 125.84727478 26.4644165 C125.58844349 28.89324948 125.32561438 31.32162772 125.0625 33.75 C124.89100007 35.35153297 124.71977542 36.95309545 124.54882812 38.5546875 C124.29312905 40.94956027 124.03677997 43.34435131 123.77798462 45.7388916 C123.32600423 49.923012 122.88492212 54.10791424 122.46044922 58.29492188 C122.37210312 59.15877502 122.28375702 60.02262817 122.19273376 60.91265869 C122.02413246 62.56553327 121.85780218 64.2186416 121.69410706 65.87200928 C120.72247102 75.35021661 120.72247102 75.35021661 117.4375 78.3046875 C116.29864177 79.17070842 115.1521953 80.02680411 114 80.875 C112.71716238 81.84947603 111.43598542 82.82614106 110.15625 83.8046875 C109.13917969 84.5795752 109.13917969 84.5795752 108.1015625 85.37011719 C104.49943495 88.16377466 101.00458764 91.08561678 97.5 94 C91.8350409 98.69414957 86.11424862 103.29791735 80.30859375 107.81640625 C75.63900995 111.464851 71.06359115 115.22013828 66.5 119 C61.38521235 123.23639836 56.24110156 127.4208122 51 131.5 C44.92202265 136.23133321 38.97277719 141.10880475 33.03735352 146.01733398 C28.60287925 149.68384643 24.14181665 153.31102259 19.63671875 156.890625 C16.15592895 159.67525684 12.70481217 162.49574972 9.25 165.3125 C3.67594078 169.8543743 -1.94353111 174.32914526 -7.61767578 178.74511719 C-13.28409084 183.1768961 -18.81182311 187.77500153 -24.31616211 192.40600586 C-24.99815674 192.97456299 -25.68015137 193.54312012 -26.3828125 194.12890625 C-27.28604248 194.88796265 -27.28604248 194.88796265 -28.20751953 195.66235352 C-30.05658493 197.04222676 -31.90963759 198.03307073 -34 199 C-37.3390826 175.66556121 -37.3390826 175.66556121 -32.05175781 166.69433594 C-27.18301507 160.77941706 -21.4755104 155.92464564 -15.51904297 151.13964844 C-12.53095184 148.60159546 -10.1120815 145.81147626 -7.61547852 142.80297852 C-6.00452953 141.00505525 -4.3560837 139.60716728 -2.4375 138.1484375 C1.95658861 134.70604963 6.31819371 131.27730384 7.50292969 125.58251953 C7.81805138 119.93042069 7.10664424 114.38551995 6.34619141 108.79150391 C5.82346254 104.57649556 5.7070058 100.36654437 5.5625 96.125 C5.17045694 87.70448707 4.46538861 79.31884757 3.73071289 70.92236328 C3.11944929 63.81165284 2.70129783 56.7121775 2.39672852 49.58251953 C2.05441127 42.06652129 1.40771691 34.58379189 0.66015625 27.09765625 C-0.183332 17.95986691 0 9.32832375 0 0 Z " fill="#CC6A11" transform="translate(290,235)"/>
<path d="M0 0 C19.8 0 39.6 0 60 0 C60.433125 7.3425 60.86625 14.685 61.3125 22.25 C62.35288688 39.69191582 63.44207533 57.12965029 64.625 74.5625 C64.68716705 75.48784546 64.74933411 76.41319092 64.81338501 77.36657715 C64.99052124 79.99584669 65.17049923 82.62490454 65.3515625 85.25390625 C65.40250565 86.01125565 65.45344879 86.76860504 65.50593567 87.54890442 C65.76289011 91.22226722 66.08555166 94.87485922 66.50927734 98.53295898 C66.99439386 102.75806897 67.28212505 106.9724168 67.5 111.21875 C67.54060547 111.96153198 67.58121094 112.70431396 67.62304688 113.46960449 C67.79410568 116.60014516 67.95929977 119.73098829 68.125 122.86181641 C68.68305802 133.70586647 68.68305802 133.70586647 69.74560547 144.50878906 C70.3474651 150.40262373 70.60100604 156.33351132 70.92993164 162.24804688 C71.0625839 164.62650429 71.19997318 167.0046552 71.33789062 169.3828125 C71.42476085 170.91404655 71.51135873 172.44529607 71.59765625 173.9765625 C71.65857201 175.02839218 71.65857201 175.02839218 71.72071838 176.10147095 C71.82852579 178.06689545 71.91465542 180.03347204 72 182 C72.08894531 183.2264624 72.17789063 184.4529248 72.26953125 185.71655273 C71.93835848 189.75092105 70.99785327 190.8170769 68.08984375 193.55859375 C67.26419922 194.35716797 66.43855469 195.15574219 65.58789062 195.97851562 C64.71326172 196.78998047 63.83863281 197.60144531 62.9375 198.4375 C61.23598501 200.05879147 59.53673367 201.68246218 57.83984375 203.30859375 C56.59642212 204.49364502 56.59642212 204.49364502 55.32788086 205.70263672 C52.62981511 208.36533191 50.16717167 211.16898731 47.70874023 214.05102539 C44.65917771 217.52933053 41.35295853 220.75151984 38.0625 224 C37.37865234 224.67933594 36.69480469 225.35867188 35.99023438 226.05859375 C34.32912841 227.70808359 32.66571487 229.3551668 31 231 C27.45879942 229.49089988 25.18395635 227.42880686 22.48046875 224.7109375 C21.19366211 223.42123047 21.19366211 223.42123047 19.88085938 222.10546875 C18.99205078 221.20441406 18.10324219 220.30335938 17.1875 219.375 C16.31029297 218.49714844 15.43308594 217.61929688 14.52929688 216.71484375 C10.65013986 212.80957424 6.8461735 208.88921102 3.265625 204.70703125 C1.19752756 202.29237459 -0.89728069 200.12262894 -3.30859375 198.05078125 C-11.52997809 190.95310077 -11.52997809 190.95310077 -12.8046875 185.65625 C-12.81246875 182.32587373 -12.51762382 179.28866259 -12 176 C-11.23425764 169.98082667 -10.8063607 163.9980279 -10.5625 157.9375 C-10.23206003 150.5846954 -9.71538959 143.26832137 -9.0625 135.9375 C-8.17367878 125.86253308 -7.55238414 115.78513108 -7 105.6875 C-6.06765082 88.70035806 -4.8666795 71.74319306 -3.5 54.78515625 C-2.04181405 36.53509217 -1.00761057 18.28093456 0 0 Z " fill="#D2E6F6" transform="translate(226,174)"/>
<path d="M0 0 C0.33 0 0.66 0 1 0 C1.11069824 1.02657715 1.22139648 2.0531543 1.33544922 3.11083984 C1.75638294 7.01370323 2.17770135 10.91652501 2.59912109 14.81933594 C2.7795604 16.49087454 2.9599029 18.1624236 3.14013672 19.83398438 C4.07546226 28.50795305 5.01658026 37.18115077 5.984375 45.8515625 C6.71980056 52.44121907 7.43863777 59.03253484 8.1484375 65.625 C10.51481625 87.77250601 10.51481625 87.77250601 13.0390625 109.90234375 C13.11908508 110.57959 13.19910767 111.25683624 13.28155518 111.9546051 C13.67521481 115.26849122 14.08160908 118.58025092 14.50195312 121.89086914 C15.42170334 129.24137471 16.14171568 136.57287232 16.64520264 143.96482849 C16.94225412 148.23546425 17.28836537 152.50162151 17.63671875 156.76834106 C17.79357058 158.85448241 17.92733647 160.94250897 18.03613281 163.03170776 C18.32047304 175.27846832 18.32047304 175.27846832 24.03613281 185.58837891 C26.93874384 188.0535329 30.04989679 190.07606014 33.33258057 191.99661255 C35.52200065 193.31411947 37.43263072 194.87594827 39.375 196.53125 C40.28185547 197.2727832 40.28185547 197.2727832 41.20703125 198.02929688 C41.79871094 198.51462891 42.39039063 198.99996094 43 199.5 C48.52146626 204.00830401 54.089716 208.44786662 59.70874023 212.83374023 C64.20663846 216.35375146 68.63985702 219.94856888 73.0625 223.5625 C77.82173946 227.44981773 82.61374347 231.27339891 87.5 235 C93.08836614 239.26207899 98.54628513 243.66639299 103.98828125 248.11328125 C108.28936608 251.62336198 112.62376186 255.08417075 117 258.5 C122.74019254 262.9818886 128.39693517 267.55956778 134.0390625 272.1640625 C138.32451618 275.65530083 142.64329453 279.09818888 147 282.5 C152.74010668 286.9820011 158.39693246 291.55956557 164.0390625 296.1640625 C168.32451658 299.65530115 172.64330239 303.09817796 177 306.5 C183.57172036 311.63157722 190.04356898 316.88154976 196.50390625 322.15234375 C197.10734863 322.63815918 197.71079102 323.12397461 198.33251953 323.62451172 C199.81479552 324.84722664 201.23858211 326.14007926 202.65234375 327.44140625 C204.85360561 329.18393762 204.85360561 329.18393762 207.31640625 329.1484375 C211.45588745 327.37695646 214.54873184 324.54924984 217.9375 321.625 C219.46503508 320.3359222 220.99369571 319.04817708 222.5234375 317.76171875 C223.28108398 317.12153809 224.03873047 316.48135742 224.81933594 315.82177734 C227.84802461 313.29154057 230.94476371 310.85652689 234.0625 308.4375 C239.1168502 304.50221293 244.10273952 300.49130352 249.0625 296.4375 C254.84988519 291.71027267 260.71819431 287.12159964 266.66015625 282.58984375 C271.17741068 279.11471951 275.57540339 275.49267037 279.98828125 271.88671875 C284.28936608 268.37663802 288.62376186 264.91582925 293 261.5 C298.04853686 257.55814969 303.03762563 253.5497538 308 249.5 C313.52339685 244.99240027 319.09184436 240.55157358 324.7109375 236.1640625 C329.18436708 232.66223753 333.59867202 229.09188836 338 225.5 C343.52339685 220.99240027 349.09184436 216.55157358 354.7109375 212.1640625 C359.18437002 208.66223523 363.59856912 205.09176606 368 201.5 C373.23758355 197.22788723 378.49990187 192.9910735 383.8125 188.8125 C384.39322266 188.35488281 384.97394531 187.89726562 385.57226562 187.42578125 C388.00121789 185.52208628 390.43046681 183.71302213 393 182 C393.53146669 179.58734938 393.86623301 177.36993724 394.10327148 174.92456055 C394.18506653 174.19366211 394.26686157 173.46276367 394.35113525 172.7097168 C394.62084387 170.26994577 394.87091551 167.82856369 395.12109375 165.38671875 C395.30781138 163.66204577 395.49574588 161.93750415 395.68482971 160.21308899 C396.18365189 155.63357224 396.66596918 151.05245943 397.14489746 146.4708252 C397.6189034 141.96193518 398.10778439 137.4546675 398.59570312 132.94726562 C399.36566031 125.81752763 400.12655102 118.68688143 400.88037109 111.55541992 C401.61862997 104.57277014 402.36572417 97.59115117 403.12353516 90.6105957 C403.21418401 89.77529422 403.30483286 88.93999273 403.39822865 88.07937908 C403.74443271 84.89111813 404.09087615 81.70288411 404.43862724 78.51479149 C405.51783333 68.61926813 406.53728899 58.72007424 407.5 48.8125 C409.10077372 32.51413597 411.03567307 16.25784416 413 0 C413.33 0 413.66 0 414 0 C414.2629969 9.42891634 413.24989598 18.67750891 412.27172852 28.03833008 C412.08573237 29.85428555 411.90017706 31.67028621 411.71502686 33.48632812 C411.21341758 38.39342554 410.70549899 43.29985095 410.19627881 48.20616364 C409.66352869 53.34841492 409.1361895 58.49122131 408.60813904 63.63395691 C407.72130079 72.26308487 406.83055529 80.89180232 405.93725586 89.52026367 C404.90464195 99.49464802 403.87725791 109.46955991 402.85287338 119.44479257 C401.76120526 130.07478656 400.66587027 140.70440032 399.56938434 151.33389831 C399.25391286 154.39446709 398.93911175 157.45510421 398.62445259 160.51575661 C398.13016151 165.32178498 397.63340466 170.12755238 397.13473511 174.93312836 C396.95210425 176.69670093 396.77028609 178.46035787 396.5893383 180.22410393 C396.34230849 182.63054059 396.09232112 185.03665213 395.84156799 187.44270325 C395.77055282 188.14114328 395.69953764 188.83958331 395.62637049 189.55918819 C394.60035777 199.31456479 394.60035777 199.31456479 392.5390625 201.66796875 C391.90742188 202.16941406 391.27578125 202.67085937 390.625 203.1875 C387.15912021 206.03846564 383.80698492 208.96475896 380.5 212 C376.71337002 215.45328153 372.8952368 218.86099051 369.02734375 222.22265625 C366.66510827 224.29359487 364.33204147 226.39512848 362 228.5 C359.04130249 231.17048344 356.07073528 233.82298058 353.0625 236.4375 C349.83440488 239.24822525 346.66261557 242.115799 343.5 245 C339.71337002 248.45328153 335.8952368 251.86099051 332.02734375 255.22265625 C329.66510827 257.29359487 327.33204147 259.39512848 325 261.5 C322.01937279 264.18983431 319.02754767 266.86310364 316 269.5 C311.28298716 273.61081039 306.64361111 277.80667845 302 282 C296.72014424 286.76786975 291.42708194 291.51512218 286.0625 296.1875 C282.8248667 299.0326929 279.6331371 301.92853836 276.43359375 304.81640625 C274.32488854 306.70848685 272.20080199 308.57905758 270.0625 310.4375 C266.83440488 313.24822525 263.66261557 316.115799 260.5 319 C256.71337002 322.45328153 252.8952368 325.86099051 249.02734375 329.22265625 C246.66510827 331.29359487 244.33204147 333.39512848 242 335.5 C239.04130249 338.17048344 236.07073528 340.82298058 233.0625 343.4375 C229.83440488 346.24822525 226.66261557 349.115799 223.5 352 C222.56929687 352.84433594 221.63859375 353.68867188 220.6796875 354.55859375 C219.00816903 356.08147865 217.3451369 357.61379541 215.6953125 359.16015625 C215.01210938 359.78792969 214.32890625 360.41570312 213.625 361.0625 C213.03976562 361.61035156 212.45453125 362.15820312 211.8515625 362.72265625 C209.5114535 364.33703525 207.83934879 364.85244329 205 365 C203.26171875 363.8125 203.26171875 363.8125 201.6875 362 C199.30513221 359.4024506 196.9275611 356.98177014 194.25 354.6875 C190.95133084 351.84271749 187.71693361 348.93700707 184.5 346 C180.71337002 342.54671847 176.8952368 339.13900949 173.02734375 335.77734375 C170.66510827 333.70640513 168.33204147 331.60487152 166 329.5 C163.01937279 326.81016569 160.02754767 324.13689636 157 321.5 C151.41020011 316.62856797 145.92465102 311.6410485 140.421875 306.671875 C135.99878599 302.68295423 131.55384995 298.72432093 127.0625 294.8125 C123.8248667 291.9673071 120.6331371 289.07146164 117.43359375 286.18359375 C115.32488854 284.29151315 113.20080199 282.42094242 111.0625 280.5625 C106.86835635 276.91062947 102.76905708 273.15733816 98.66015625 269.41015625 C95.81244205 266.83006864 92.92755982 264.29798144 90.02734375 261.77734375 C87.66510827 259.70640513 85.33204147 257.60487152 83 255.5 C80.01937279 252.81016569 77.02754767 250.13689636 74 247.5 C68.41020011 242.62856797 62.92465102 237.6410485 57.421875 232.671875 C52.99878599 228.68295423 48.55384995 224.72432093 44.0625 220.8125 C41.69035571 218.72788836 39.34443935 216.61571356 37 214.5 C29.80187662 207.67292152 29.80187662 207.67292152 21.94479847 201.68196964 C19.55672888 199.61663454 19.40496731 198.67537009 19.09416199 195.58067322 C18.99252149 194.66092744 18.89088099 193.74118166 18.78616047 192.7935648 C18.69196921 191.77235003 18.59777796 190.75113527 18.50073242 189.69897461 C18.38482097 188.60388297 18.26890951 187.50879133 18.14948559 186.3805151 C17.82227068 183.26524634 17.51122406 180.14875072 17.20389891 177.03147268 C16.84937922 173.49934462 16.46732237 169.97019148 16.08755493 166.44070435 C15.12442075 157.45474325 14.19127362 148.46579016 13.26302361 139.47616696 C12.98519637 136.78654175 12.70682061 134.09697384 12.42827415 131.40742302 C11.45347522 121.9944172 10.48097156 112.58117732 9.51049805 103.16772461 C8.60996645 94.43336829 7.70400531 85.69958612 6.79566032 76.96603924 C6.01066155 69.41592085 5.22960237 61.86540146 4.45154923 54.31456417 C3.98899246 49.82628661 3.52484997 45.33818742 3.0566349 40.85049629 C2.61789112 36.64411411 2.18407041 32.43725232 1.7539444 28.22998047 C1.59608189 26.69398314 1.43650052 25.15816127 1.27500725 23.62254143 C0.44674571 15.73681616 -0.25920679 7.93879771 0 0 Z " fill="#CC6A11" transform="translate(49,147)"/>
<path d="M0 0 C9.9 0 19.8 0 30 0 C30.18175781 3.09890625 30.36351562 6.1978125 30.55078125 9.390625 C31.83175936 31.11977528 33.15136807 52.84547557 34.625 74.5625 C34.68716705 75.48784546 34.74933411 76.41319092 34.81338501 77.36657715 C34.99052124 79.99584669 35.17049923 82.62490454 35.3515625 85.25390625 C35.40250565 86.01125565 35.45344879 86.76860504 35.50593567 87.54890442 C35.76289011 91.22226722 36.08555166 94.87485922 36.50927734 98.53295898 C36.99439386 102.75806897 37.28212505 106.9724168 37.5 111.21875 C37.54060547 111.96153198 37.58121094 112.70431396 37.62304688 113.46960449 C37.79410568 116.60014516 37.95929977 119.73098829 38.125 122.86181641 C38.68305802 133.70586647 38.68305802 133.70586647 39.74560547 144.50878906 C40.3474651 150.40262373 40.60100604 156.33351132 40.92993164 162.24804688 C41.0625839 164.62650429 41.19997318 167.0046552 41.33789062 169.3828125 C41.42476085 170.91404655 41.51135873 172.44529607 41.59765625 173.9765625 C41.63826675 174.67778229 41.67887726 175.37900208 41.72071838 176.10147095 C41.82852579 178.06689545 41.91465542 180.03347204 42 182 C42.08894531 183.2264624 42.17789063 184.4529248 42.26953125 185.71655273 C41.93835848 189.75092105 40.99785327 190.8170769 38.08984375 193.55859375 C37.26419922 194.35716797 36.43855469 195.15574219 35.58789062 195.97851562 C34.27594727 197.19571289 34.27594727 197.19571289 32.9375 198.4375 C31.23598501 200.05879147 29.53673367 201.68246218 27.83984375 203.30859375 C26.59654297 204.49364502 26.59654297 204.49364502 25.328125 205.70263672 C22.62927514 208.36582644 20.16381001 211.16862113 17.7043457 214.05102539 C14.66940048 217.52158373 11.39338071 220.75099704 8.125 224 C7.44953125 224.67933594 6.7740625 225.35867188 6.078125 226.05859375 C5.43617188 226.69925781 4.79421875 227.33992187 4.1328125 228 C3.55418457 228.5775 2.97555664 229.155 2.37939453 229.75 C1 231 1 231 0 231 C0 154.77 0 78.54 0 0 Z " fill="#B0C0D0" transform="translate(256,174)"/>
<path d="M0 0 C12.54 0 25.08 0 38 0 C38.62472466 3.74834795 39.13336795 6.99537428 39.28125 10.71484375 C39.33732422 11.99198242 39.33732422 11.99198242 39.39453125 13.29492188 C39.44673828 14.60299805 39.44673828 14.60299805 39.5 15.9375 C39.56969141 17.67591354 39.64255034 19.41420332 39.71875 21.15234375 C39.74904297 21.91538818 39.77933594 22.67843262 39.81054688 23.46459961 C39.95576019 25.40795052 40.19889069 27.34419214 40.48413086 29.27197266 C41.0487263 33.35212993 41.32314784 37.38570913 41.53515625 41.49609375 C41.59962196 42.68465721 41.59962196 42.68465721 41.66539001 43.89723206 C41.75506293 45.56365124 41.84321996 47.23015262 41.92993164 48.89672852 C42.061943 51.42682459 42.19954647 53.95657127 42.33789062 56.48632812 C42.42481235 58.11456558 42.51141153 59.74282029 42.59765625 61.37109375 C42.63826675 62.11717392 42.67887726 62.86325409 42.72071838 63.63194275 C42.7575322 64.34951248 42.79434601 65.06708221 42.83227539 65.80639648 C42.86478897 66.42481918 42.89730255 67.04324188 42.93080139 67.68040466 C43.03337677 71.11881743 43 74.56005755 43 78 C56.53 78 70.06 78 84 78 C84 88.23 84 98.46 84 109 C41.1 109 -1.8 109 -46 109 C-46 98.77 -46 88.54 -46 78 C-32.47 78 -18.94 78 -5 78 C-4.8659375 74.55820313 -4.731875 71.11640625 -4.59375 67.5703125 C-4.11062447 55.7073736 -3.44748988 43.86003551 -2.69775391 32.01123047 C-2.49613619 28.81372287 -2.30064614 25.61587528 -2.10546875 22.41796875 C-1.97692382 20.35935241 -1.84803129 18.30075773 -1.71875 16.2421875 C-1.661427 15.29850311 -1.604104 14.35481873 -1.54504395 13.38253784 C-1.48828491 12.49945953 -1.43152588 11.61638123 -1.37304688 10.70654297 C-1.32498901 9.93954071 -1.27693115 9.17253845 -1.22741699 8.3822937 C-0.95906419 5.57117923 -0.46424533 2.78547197 0 0 Z " fill="#FECB28" transform="translate(237,65)"/>
<path d="M0 0 C1.66210046 0.44913122 3.325186 0.89466668 4.99003601 1.33349609 C6.3548528 1.72590646 7.71847135 2.12251024 9.08081055 2.5234375 C10.23461511 2.85708769 10.23461511 2.85708769 11.41172886 3.19747829 C13.90456273 3.91935392 16.39562349 4.64714986 18.88671875 5.375 C20.6907795 5.89852431 22.49496181 6.42162983 24.29925537 6.9443512 C28.12002055 8.05203426 31.9400542 9.16218967 35.75949097 10.27444458 C44.79212801 12.90467445 53.82842722 15.5222796 62.86438179 18.14108467 C65.92677317 19.02876356 68.98901805 19.91694654 72.05125427 20.80516052 C93.75775066 27.09898406 115.4893921 33.30403195 137.22502327 39.49633884 C140.01978063 40.29262752 142.81442847 41.08930021 145.60907745 41.88596916 C147.50115411 42.42504111 149.39348694 42.96321367 151.28582764 43.50135803 C152.39992004 43.81874435 153.51401245 44.13613068 154.66186523 44.46313477 C155.62728745 44.73779068 156.59270966 45.01244659 157.58738708 45.29542542 C159.40310223 45.82568318 161.20550974 46.40183658 163 47 C162.85930804 49.12534659 162.71229079 51.25027529 162.5625 53.375 C162.48128906 54.55835938 162.40007812 55.74171875 162.31640625 56.9609375 C162 60 162 60 161 62 C154.87110149 61.3321614 149.20569692 59.71284014 143.3125 57.9375 C141.16300072 57.29997049 139.01325064 56.66328609 136.86328125 56.02734375 C135.74131348 55.69460449 134.6193457 55.36186523 133.46337891 55.01904297 C127.65272182 53.30935153 121.82604028 51.6563561 116 50 C106.34934789 47.25086651 96.7100423 44.46604969 87.08032227 41.64453125 C79.37682418 39.39127877 71.65846011 37.19255941 63.9375 35 C55.38648397 32.57109177 46.8670048 30.06506103 38.375 27.4375 C29.02151632 24.54370929 19.60372844 21.94922275 10.12841797 19.48413086 C4.90513092 18.11222039 -0.18141204 16.60759035 -5.26953125 14.79296875 C-15.05674341 11.52289219 -22.18411374 13.5602883 -31.875 16.3125 C-32.99519531 16.62123047 -34.11539063 16.92996094 -35.26953125 17.24804688 C-43.58735883 19.55316245 -51.85078503 22.0198291 -60.09375 24.578125 C-71.62125623 28.15019329 -83.18675224 31.47615683 -94.8671875 34.51464844 C-99.96931897 35.8548471 -104.99000027 37.29473575 -109.984375 38.99609375 C-116.10797486 41.08122268 -122.30411481 42.7479712 -128.5625 44.375 C-136.27079462 46.41131819 -143.92074817 48.52498915 -151.5 51 C-159.2082284 53.51003236 -166.98574047 55.70196185 -174.8125 57.8125 C-175.92882812 58.11478516 -177.04515625 58.41707031 -178.1953125 58.72851562 C-183.12151505 60.04277113 -187.95715679 61.21706525 -193 62 C-194.62387297 57.12838108 -194.05477832 52.09438371 -194 47 C-167.04634389 38.24581866 -139.74112428 30.56389976 -112.51838493 22.69814873 C-103.25319523 20.02016518 -93.99309872 17.32664157 -84.74365234 14.59472656 C-76.6159191 12.19413737 -68.48029625 9.82287616 -60.33397496 7.48610699 C-56.0420785 6.25396266 -51.75525138 5.00840218 -47.4776268 3.72750473 C-43.45711186 2.524152 -39.42699564 1.36091674 -35.38668442 0.22587395 C-33.91897707 -0.19361949 -32.4550935 -0.62681083 -30.99610138 -1.07567787 C-19.53908678 -4.5868729 -11.36662806 -3.52463957 0 0 Z " fill="#CB6910" transform="translate(272,39)"/>
<path d="M0 0 C0.33 0 0.66 0 1 0 C1.2629969 9.42891634 0.24989598 18.67750891 -0.72827148 28.03833008 C-0.91426763 29.85428555 -1.09982294 31.67028621 -1.28497314 33.48632812 C-1.78658242 38.39342554 -2.29450101 43.29985095 -2.80372119 48.20616364 C-3.33647131 53.34841492 -3.8638105 58.49122131 -4.39186096 63.63395691 C-5.27869921 72.26308487 -6.16944471 80.89180232 -7.06274414 89.52026367 C-8.09535805 99.49464802 -9.12274209 109.46955991 -10.14712662 119.44479257 C-11.23879474 130.07478656 -12.33412973 140.70440032 -13.43061566 151.33389831 C-13.74608714 154.39446709 -14.06088825 157.45510421 -14.37554741 160.51575661 C-14.86983849 165.32178498 -15.36659534 170.12755238 -15.86526489 174.93312836 C-16.04789575 176.69670093 -16.22971391 178.46035787 -16.4106617 180.22410393 C-16.65769151 182.63054059 -16.90767888 185.03665213 -17.15843201 187.44270325 C-17.22944718 188.14114328 -17.30046236 188.83958331 -17.37362951 189.55918819 C-18.39964223 199.31456479 -18.39964223 199.31456479 -20.4609375 201.66796875 C-21.09257812 202.16941406 -21.72421875 202.67085937 -22.375 203.1875 C-25.84087979 206.03846564 -29.19301508 208.96475896 -32.5 212 C-36.28662998 215.45328153 -40.1047632 218.86099051 -43.97265625 222.22265625 C-46.33489173 224.29359487 -48.66795853 226.39512848 -51 228.5 C-53.95869751 231.17048344 -56.92926472 233.82298058 -59.9375 236.4375 C-63.16559512 239.24822525 -66.33738443 242.115799 -69.5 245 C-73.28662998 248.45328153 -77.1047632 251.86099051 -80.97265625 255.22265625 C-83.33489173 257.29359487 -85.66795853 259.39512848 -88 261.5 C-90.98062721 264.18983431 -93.97245233 266.86310364 -97 269.5 C-101.71701284 273.61081039 -106.35638889 277.80667845 -111 282 C-116.27985576 286.76786975 -121.57291806 291.51512218 -126.9375 296.1875 C-130.1751333 299.0326929 -133.3668629 301.92853836 -136.56640625 304.81640625 C-138.67511146 306.70848685 -140.79919801 308.57905758 -142.9375 310.4375 C-146.16559512 313.24822525 -149.33738443 316.115799 -152.5 319 C-156.28662998 322.45328153 -160.1047632 325.86099051 -163.97265625 329.22265625 C-166.33489173 331.29359487 -168.66795853 333.39512848 -171 335.5 C-173.95869751 338.17048344 -176.92926472 340.82298058 -179.9375 343.4375 C-183.16559512 346.24822525 -186.33738443 349.115799 -189.5 352 C-191.33275732 353.66730006 -193.16606371 355.33399683 -195 357 C-195.78375 357.71285156 -196.5675 358.42570312 -197.375 359.16015625 C-198.07625 359.78792969 -198.7775 360.41570312 -199.5 361.0625 C-200.1084375 361.61035156 -200.716875 362.15820312 -201.34375 362.72265625 C-203 364 -203 364 -206 365 C-206.24920157 360.32306155 -206.42952201 355.65006167 -206.54931641 350.96801758 C-206.59928673 349.3797673 -206.66729737 347.79196969 -206.75439453 346.20532227 C-207.45588942 333.08736793 -207.45588942 333.08736793 -203.96240234 328.07861328 C-201.42650506 325.77721112 -198.8622585 323.87406603 -196 322 C-194.83163443 321.06910587 -193.67117368 320.12808818 -192.5234375 319.171875 C-191.48445313 318.37265625 -190.44546875 317.5734375 -189.375 316.75 C-184.25049999 312.78086497 -179.20029276 308.73419922 -174.1875 304.625 C-168.72742646 300.15790751 -163.18784146 295.8193056 -157.5625 291.5625 C-150.960215 286.56347568 -144.53615642 281.38366203 -138.16650391 276.09228516 C-133.25287144 272.01482228 -128.27375135 268.03731328 -123.23754883 264.11279297 C-118.77871165 260.63101718 -114.38243134 257.07733451 -110 253.5 C-104.47666343 248.99232786 -98.90815403 244.55157233 -93.2890625 240.1640625 C-88.81563292 236.66223753 -84.40132798 233.09188836 -80 229.5 C-74.47660315 224.99240027 -68.90815564 220.55157358 -63.2890625 216.1640625 C-58.81562945 212.66223482 -54.40145181 209.09174082 -50 205.5 C-44.86556647 201.31246019 -39.70905762 197.15695577 -34.5 193.0625 C-33.96117187 192.63839844 -33.42234375 192.21429688 -32.8671875 191.77734375 C-32.08214844 191.16246094 -32.08214844 191.16246094 -31.28125 190.53515625 C-30.79049988 190.13445923 -30.29974976 189.73376221 -29.79412842 189.32092285 C-28 188 -28 188 -26.02130127 187.03771973 C-22.03057063 184.84550355 -20.30073514 183.00325546 -18.97583008 178.58335876 C-18.16975168 174.0851072 -17.78923025 169.54493029 -17.390625 164.99609375 C-17.21305608 163.27693425 -17.03222254 161.5581092 -16.84832764 159.83961487 C-16.37068001 155.29457972 -15.93655823 150.7464073 -15.51177979 146.19616699 C-15.08627965 141.71219513 -14.62214166 137.23228699 -14.16015625 132.75195312 C-13.43374823 125.66677447 -12.72943307 118.57974081 -12.0390625 111.4909668 C-10.89354651 99.76157896 -9.6249044 88.0463312 -8.33770752 76.33177185 C-7.33168752 67.16394931 -6.39030337 57.99233291 -5.5 48.8125 C-3.89952601 32.51411378 -1.96432574 16.25783426 0 0 Z " fill="#8E3305" transform="translate(462,147)"/>
<path d="M0 0 C6.27 0 12.54 0 19 0 C19.62472466 3.74834795 20.13336795 6.99537428 20.28125 10.71484375 C20.31863281 11.56626953 20.35601562 12.41769531 20.39453125 13.29492188 C20.44673828 14.60299805 20.44673828 14.60299805 20.5 15.9375 C20.56969141 17.67591354 20.64255034 19.41420332 20.71875 21.15234375 C20.74904297 21.91538818 20.77933594 22.67843262 20.81054688 23.46459961 C20.95576019 25.40795052 21.19889069 27.34419214 21.48413086 29.27197266 C22.0487263 33.35212993 22.32314784 37.38570913 22.53515625 41.49609375 C22.57813339 42.28846939 22.62111053 43.08084503 22.66539001 43.89723206 C22.75506293 45.56365124 22.84321996 47.23015262 22.92993164 48.89672852 C23.061943 51.42682459 23.19954647 53.95657127 23.33789062 56.48632812 C23.42481235 58.11456558 23.51141153 59.74282029 23.59765625 61.37109375 C23.65857201 62.490214 23.65857201 62.490214 23.72071838 63.63194275 C23.7575322 64.34951248 23.79434601 65.06708221 23.83227539 65.80639648 C23.86478897 66.42481918 23.89730255 67.04324188 23.93080139 67.68040466 C24.03337677 71.11881743 24 74.56005755 24 78 C37.53 78 51.06 78 65 78 C65 88.23 65 98.46 65 109 C43.55 109 22.1 109 0 109 C0 73.03 0 37.06 0 0 Z " fill="#F89200" transform="translate(256,65)"/>
<path d="M0 0 C0.08075665 2.29109597 0.13907731 4.58299267 0.1875 6.875 C0.22230469 8.15117188 0.25710938 9.42734375 0.29296875 10.7421875 C0.19628906 11.81726563 0.09960938 12.89234375 0 14 C-3.02055789 16.01370526 -5.15025603 16.71278723 -8.62890625 17.62109375 C-9.74716797 17.91693359 -10.86542969 18.21277344 -12.01757812 18.51757812 C-13.18740234 18.82115234 -14.35722656 19.12472656 -15.5625 19.4375 C-23.41824458 21.49780526 -31.24133551 23.59773898 -39 26 C-39.82830322 26.25644287 -40.65660645 26.51288574 -41.51000977 26.77709961 C-42.36264404 27.04143799 -43.21527832 27.30577637 -44.09375 27.578125 C-55.62125623 31.15019329 -67.18675224 34.47615683 -78.8671875 37.51464844 C-83.96931897 38.8548471 -88.99000027 40.29473575 -93.984375 41.99609375 C-100.10797486 44.08122268 -106.30411481 45.7479712 -112.5625 47.375 C-120.27079462 49.41131819 -127.92074817 51.52498915 -135.5 54 C-143.2082284 56.51003236 -150.98574047 58.70196185 -158.8125 60.8125 C-159.92882812 61.11478516 -161.04515625 61.41707031 -162.1953125 61.72851562 C-167.12151505 63.04277113 -171.95715679 64.21706525 -177 65 C-178.62387297 60.12838108 -178.05477832 55.09438371 -178 50 C-160.84704748 44.38502235 -143.49052126 39.47004375 -126.14109278 34.50675631 C-123.61257639 33.78327235 -121.08425593 33.05910766 -118.55599594 32.33472824 C-109.71993625 29.80318711 -100.88303906 27.27459246 -92.04541016 24.74853516 C-83.82568642 22.39899768 -75.60798353 20.04248451 -67.39113533 17.68291247 C-60.30501953 15.6484064 -53.21746565 13.61896605 -46.1287812 11.59342802 C-41.90764126 10.38716169 -37.68712621 9.17880861 -33.46808243 7.96522903 C-29.51496191 6.82830624 -25.56009438 5.69768245 -21.60378647 4.57190323 C-20.15390695 4.1581714 -18.70466955 3.74218169 -17.25613403 3.32376862 C-15.27906207 2.75306405 -13.299834 2.19055594 -11.31985474 1.6300354 C-10.2134923 1.31335718 -9.10712986 0.99667896 -7.96724129 0.67040443 C-5.19086463 0.04312305 -2.83217624 -0.1370703 0 0 Z " fill="#903506" transform="translate(256,36)"/>
<path d="M0 0 C6.27 0 12.54 0 19 0 C19 25.74 19 51.48 19 78 C11.08 78 3.16 78 -5 78 C-4.40234147 62.65626651 -3.6674158 47.33573813 -2.69775391 32.01123047 C-2.49613619 28.81372287 -2.30064614 25.61587528 -2.10546875 22.41796875 C-1.97692382 20.35935241 -1.84803129 18.30075773 -1.71875 16.2421875 C-1.661427 15.29850311 -1.604104 14.35481873 -1.54504395 13.38253784 C-1.4599054 12.05792038 -1.4599054 12.05792038 -1.37304688 10.70654297 C-1.32498901 9.93954071 -1.27693115 9.17253845 -1.22741699 8.3822937 C-0.95906419 5.57117923 -0.46424533 2.78547197 0 0 Z " fill="#F6A02E" transform="translate(237,65)"/>
<path d="M0 0 C6.27 0 12.54 0 19 0 C19.62472466 3.74834795 20.13336795 6.99537428 20.28125 10.71484375 C20.31863281 11.56626953 20.35601562 12.41769531 20.39453125 13.29492188 C20.44673828 14.60299805 20.44673828 14.60299805 20.5 15.9375 C20.56969141 17.67591354 20.64255034 19.41420332 20.71875 21.15234375 C20.74904297 21.91538818 20.77933594 22.67843262 20.81054688 23.46459961 C20.95576019 25.40795052 21.19889069 27.34419214 21.48413086 29.27197266 C22.0487263 33.35212993 22.32314784 37.38570913 22.53515625 41.49609375 C22.57813339 42.28846939 22.62111053 43.08084503 22.66539001 43.89723206 C22.75506293 45.56365124 22.84321996 47.23015262 22.92993164 48.89672852 C23.061943 51.42682459 23.19954647 53.95657127 23.33789062 56.48632812 C23.42481235 58.11456558 23.51141153 59.74282029 23.59765625 61.37109375 C23.65857201 62.490214 23.65857201 62.490214 23.72071838 63.63194275 C23.7575322 64.34951248 23.79434601 65.06708221 23.83227539 65.80639648 C23.86478897 66.42481918 23.89730255 67.04324188 23.93080139 67.68040466 C24.03337677 71.11881743 24 74.56005755 24 78 C16.08 78 8.16 78 0 78 C0 52.26 0 26.52 0 0 Z " fill="#CB6910" transform="translate(256,65)"/>
<path d="M0 0 C0.33 0 0.66 0 1 0 C1.20404202 7.92485951 0.56630366 15.66250448 -0.25341797 23.5402832 C-0.38851381 24.87348843 -0.52318594 26.20673664 -0.6574707 27.5400238 C-1.02054562 31.13106551 -1.39002846 34.72141951 -1.76114416 38.31163812 C-2.07116875 41.31622342 -2.37811812 44.32111983 -2.6851207 47.32601517 C-3.40926522 54.41289754 -4.13874693 61.49921652 -4.87158203 68.58520508 C-5.6266636 75.88723854 -6.37258571 83.19016727 -7.11407363 90.49359256 C-7.75252317 96.7788715 -8.39666362 103.06354951 -9.04536164 109.34777898 C-9.43211178 113.09498083 -9.8167043 116.84237185 -10.19579697 120.59035683 C-10.61817005 124.76335265 -11.05240648 128.93503131 -11.48779297 133.10668945 C-11.61151276 134.34470306 -11.73523254 135.58271667 -11.86270142 136.85824585 C-11.9832489 137.99499252 -12.10379639 139.1317392 -12.22799683 140.30293274 C-12.32939405 141.28824636 -12.43079128 142.27355997 -12.53526115 143.28873158 C-13.01402514 146.08182213 -13.85299894 148.41623926 -15 151 C-15.33 151 -15.66 151 -16 151 C-15.47818194 141.07559567 -14.66979997 131.24656576 -13.44381714 121.37927246 C-12.98794292 117.70340328 -12.54949356 114.02543953 -12.109375 110.34765625 C-12.01764511 109.58347382 -11.92591522 108.81929138 -11.83140564 108.0319519 C-10.80534327 99.44467002 -9.86368565 90.84855124 -8.9375 82.25 C-8.81174088 81.08476807 -8.81174088 81.08476807 -8.68344116 79.89599609 C-7.43987161 68.35034296 -6.28054658 56.79809191 -5.15087891 45.24072266 C-3.65086369 30.13620377 -1.82064204 15.06862937 0 0 Z " fill="#9A3D05" transform="translate(462,147)"/>
</svg>
