<?xml version="1.0" standalone="no"?>
<!DOCTYPE svg PUBLIC "-//W3C//DTD SVG 20010904//EN"
 "http://www.w3.org/TR/2001/REC-SVG-20010904/DTD/svg10.dtd">
<svg version="1.0" xmlns="http://www.w3.org/2000/svg"
 width="512.000000pt" height="512.000000pt" viewBox="0 0 512.000000 512.000000"
 preserveAspectRatio="xMidYMid meet">

<g transform="translate(0.000000,512.000000) scale(0.100000,-0.100000)"
fill="#000000" stroke="none">
<path d="M2061 5104 c-113 -30 -214 -108 -272 -208 -16 -28 -54 -129 -84 -223
l-56 -173 -464 0 c-308 0 -482 -4 -517 -11 -172 -37 -311 -176 -347 -347 -6
-29 -11 -136 -11 -238 0 -165 2 -189 20 -224 31 -61 78 -80 194 -80 l95 0 5
-42 c4 -24 65 -752 136 -1618 85 -1033 135 -1593 145 -1626 31 -104 122 -213
222 -263 105 -53 59 -51 1430 -51 904 0 1287 3 1325 11 108 23 209 90 271 181
75 109 65 21 207 1745 71 868 132 1597 136 1621 l5 42 95 0 c116 0 163 19 194
80 18 35 20 59 20 224 0 102 -5 209 -11 238 -37 172 -176 311 -347 347 -35 7
-214 11 -517 11 l-464 0 -56 173 c-30 94 -68 195 -84 222 -59 102 -161 180
-276 210 -84 22 -912 21 -994 -1z m943 -298 c50 -21 73 -58 111 -181 19 -61
35 -114 35 -118 0 -4 -265 -7 -590 -7 -324 0 -590 3 -590 7 0 27 74 235 92
258 42 53 49 54 496 55 329 0 419 -3 446 -14z m1426 -626 c60 -31 80 -78 80
-190 l0 -90 -1950 0 -1950 0 0 93 c1 109 17 147 76 183 l39 24 1833 0 c1817 0
1833 0 1872 -20z m-236 -612 c-2 -18 -60 -724 -129 -1568 -69 -844 -130 -1555
-136 -1580 -12 -54 -51 -97 -99 -111 -23 -6 -456 -9 -1292 -7 -1251 3 -1257 3
-1284 24 -69 51 -54 -73 -194 1625 -71 855 -131 1575 -133 1602 l-4 47 1638 0
1638 0 -5 -32z"/>
<path d="M1588 3279 c-23 -12 -46 -35 -58 -59 -20 -39 -20 -57 -20 -1270 0
-1214 0 -1231 20 -1270 23 -45 80 -80 130 -80 50 0 107 35 130 80 20 39 20 56
20 1270 0 1214 0 1231 -20 1270 -37 73 -127 99 -202 59z"/>
<path d="M2488 3279 c-23 -12 -46 -35 -58 -59 -20 -39 -20 -57 -20 -1270 0
-1214 0 -1231 20 -1270 23 -45 80 -80 130 -80 50 0 107 35 130 80 20 39 20 56
20 1270 0 1214 0 1231 -20 1270 -37 73 -127 99 -202 59z"/>
<path d="M3388 3279 c-23 -12 -46 -35 -58 -59 -20 -39 -20 -57 -20 -1270 0
-1214 0 -1231 20 -1270 23 -45 80 -80 130 -80 50 0 107 35 130 80 20 39 20 56
20 1270 0 1214 0 1231 -20 1270 -37 73 -127 99 -202 59z"/>
</g>
</svg>
