<?xml version="1.0" encoding="UTF-8"?>
<svg version="1.1" xmlns="http://www.w3.org/2000/svg" width="512" height="512">
<path d="M0 0 C1.4426247 0.00030666 2.88524955 0.00017229 4.32787418 -0.00036526 C8.17700278 -0.00059021 12.02610003 0.00518864 15.87522125 0.01224518 C19.49245803 0.01795718 23.10968734 0.01820923 26.72692871 0.0189209 C37.29264735 0.02415979 47.85836021 0.03812102 58.42407227 0.05102539 C93.84750977 0.08196289 93.84750977 0.08196289 129.98657227 0.11352539 C129.98657227 55.88352539 129.98657227 111.65352539 129.98657227 169.11352539 C133.61657227 169.77352539 137.24657227 170.43352539 140.98657227 171.11352539 C149.82884752 174.06858629 155.16289363 179.46811861 159.92407227 187.30102539 C162.21893738 195.53554137 161.99313819 203.91234535 158.36547852 211.71118164 C151.79916608 223.15107441 141.58147485 231.90599749 128.98657227 236.11352539 C128.32657227 236.11352539 127.66657227 236.11352539 126.98657227 236.11352539 C126.9234082 236.73614258 126.86024414 237.35875977 126.79516602 238.00024414 C122.80926804 268.08328465 106.95451404 294.22422524 85.17407227 314.73852539 C84.67633301 315.21427002 84.17859375 315.69001465 83.66577148 316.18017578 C80.11433847 319.44142935 76.64001542 321.20536907 72.23657227 323.23852539 C68.88721263 325.34295109 67.31333439 326.89716912 66.27758789 330.75268555 C65.03303638 339.08514167 64.41077664 348.76584488 68.82641602 356.21899414 C71.33060955 358.1658634 73.82191969 359.59708742 76.6862793 360.94897461 C79.52322994 362.38521474 82.1673108 364.04755485 84.85766602 365.74243164 C95.56976375 372.46462797 106.12011482 378.68179379 117.98657227 383.11352539 C141.78385645 392.3288629 164.0420772 402.66228112 182.98657227 420.11352539 C183.50203613 420.57984375 184.0175 421.04616211 184.54858398 421.52661133 C200.26478629 435.86955324 209.19612721 452.35493014 213.98657227 473.11352539 C213.98657227 485.98352539 213.98657227 498.85352539 213.98657227 512.11352539 C76.04657227 512.11352539 -61.89342773 512.11352539 -204.01342773 512.11352539 C-204.01342773 463.90797106 -204.01342773 463.90797106 -195.76342773 449.30102539 C-195.3728418 448.58873779 -194.98225586 447.8764502 -194.57983398 447.14257812 C-191.28831801 441.28988458 -187.4907862 436.12121175 -183.01342773 431.11352539 C-182.0021582 429.90696289 -182.0021582 429.90696289 -180.97045898 428.67602539 C-170.70330992 416.70703559 -158.59478956 407.92536133 -145.01342773 400.11352539 C-144.33795898 399.72422852 -143.66249023 399.33493164 -142.96655273 398.93383789 C-132.46877273 392.96372636 -121.61418371 388.4000066 -110.37231445 384.0324707 C-92.56273637 377.09444008 -76.14937319 367.83258764 -61.01342773 356.11352539 C-60.32845215 355.6966748 -59.64347656 355.27982422 -58.93774414 354.8503418 C-55.71252447 351.9393785 -56.18215863 348.61667956 -55.94799805 344.4675293 C-55.40706816 334.96344463 -55.40706816 334.96344463 -58.21166992 326.13842773 C-61.34469784 323.00438851 -65.17223507 321.13084394 -69.10620117 319.17358398 C-72.27034672 317.41491527 -74.78366199 315.03991099 -77.38842773 312.55102539 C-77.88141357 312.08784912 -78.37439941 311.62467285 -78.88232422 311.14746094 C-86.25143936 304.13381332 -92.43063607 296.60677717 -98.01342773 288.11352539 C-98.51616211 287.36844727 -99.01889648 286.62336914 -99.53686523 285.85571289 C-106.16167073 275.51540801 -110.39123682 263.76772043 -113.88842773 252.05102539 C-114.09153564 251.37354248 -114.29464355 250.69605957 -114.50390625 249.99804688 C-115.81672183 245.38586613 -116.51363985 240.88277791 -117.01342773 236.11352539 C-118.27155273 235.76290039 -119.52967773 235.41227539 -120.82592773 235.05102539 C-132.88926137 230.97301166 -142.17115477 223.05107248 -147.95092773 211.73852539 C-151.48483567 204.19153557 -152.58233563 196.42875073 -150.17749023 188.28149414 C-146.10030885 179.37463146 -139.69774911 174.33547457 -130.70092773 170.84008789 C-127.1580675 169.88227975 -123.65876311 169.5459677 -120.01342773 169.11352539 C-120.02897202 168.18296829 -120.0445163 167.25241119 -120.06053162 166.2936554 C-120.20383311 157.42658119 -120.30802562 148.55974855 -120.37611294 139.6917696 C-120.41229748 135.13499671 -120.4611893 130.5791749 -120.54150391 126.02294922 C-121.21243294 86.92499447 -121.21243294 86.92499447 -113.01342773 70.11352539 C-112.6751445 69.39292938 -112.33686127 68.67233337 -111.98832703 67.92990112 C-98.43929365 39.24679559 -74.11841849 17.71700647 -44.45239258 6.92016602 C-29.77369479 2.06546957 -15.3941788 -0.04281998 0 0 Z " fill="#242020" transform="translate(251.013427734375,-0.113525390625)"/>
<path d="M0 0 C3.97308567 0.97046264 7.53993586 2.50315125 11.23291016 4.21777344 C12.00197189 4.56748703 12.77103363 4.91720062 13.56340027 5.2775116 C15.22683291 6.03462558 16.88884123 6.79487513 18.54956055 7.55792236 C22.99988314 9.60233499 27.46073321 11.62355645 31.92041016 13.64746094 C32.84612823 14.06827942 33.77184631 14.4890979 34.72561646 14.92266846 C45.22292042 19.68686331 55.77779648 24.31861606 66.33837891 28.94042969 C68.15454106 29.73592113 69.97070317 30.53141266 71.78686523 31.3269043 C75.96985584 33.15835536 80.15379844 34.98761434 84.33837891 36.81542969 C84.45581987 45.52768476 84.5438581 54.2396549 84.59743977 62.95253754 C84.62319612 67.00120094 84.65794442 71.04931116 84.71557617 75.09765625 C85.03575982 98.22651499 84.67858517 120.86191758 75.08837891 142.44042969 C74.70560791 143.33665039 74.32283691 144.23287109 73.9284668 145.15625 C68.77210063 156.86100114 61.72001206 167.15908983 53.33837891 176.81542969 C52.82275391 177.41484375 52.30712891 178.01425781 51.77587891 178.63183594 C35.88577831 195.75341933 9.99162882 207.64955893 -13.11865234 209.02050781 C-16.76023177 209.11822818 -20.39380943 209.13755657 -24.03662109 209.12792969 C-25.85419922 209.15209961 -25.85419922 209.15209961 -27.70849609 209.17675781 C-54.75346867 209.19117411 -79.55505102 197.35038999 -98.81005859 178.76464844 C-122.77610145 154.61175169 -132.1777644 121.32661519 -132.14797211 88.10019684 C-132.13006061 83.74492978 -132.07205902 79.39069673 -132.00494385 75.03594971 C-131.95272179 71.27378967 -131.93073605 67.5114455 -131.90576172 63.74902344 C-131.85299389 56.43734548 -131.76828663 49.12654199 -131.66162109 41.81542969 C-130.85054901 41.79364655 -130.03947693 41.7718634 -129.2038269 41.74942017 C-126.12862517 41.6637815 -123.05365603 41.5724131 -119.97872925 41.47744751 C-118.01987867 41.41860149 -116.06084154 41.36607219 -114.10180664 41.3137207 C-76.32508855 40.12456487 -33.44978017 27.9243598 -5.14208984 1.45996094 C-2.66162109 -0.18457031 -2.66162109 -0.18457031 0 0 Z " fill="#FEE0B1" transform="translate(279.66162109375,118.1845703125)"/>
<path d="M0 0 C1.22094864 -0.00029205 2.44189728 -0.00058411 3.69984436 -0.00088501 C7.00698076 0.00025921 10.31385895 0.01020147 13.62094975 0.02426291 C17.09224225 0.03687332 20.56353919 0.03794881 24.03485107 0.04031372 C30.58997944 0.04649849 37.14504009 0.06286808 43.70013881 0.0830127 C51.90522271 0.10767375 60.1103179 0.11853338 68.31542969 0.12939453 C82.93136769 0.14880195 97.54715818 0.18887802 112.16308594 0.22705078 C112.16308594 40.48705078 112.16308594 80.74705078 112.16308594 122.22705078 C108.58072687 121.03293109 105.32004698 119.93547454 101.92236328 118.41796875 C100.74407204 117.89423676 100.74407204 117.89423676 99.54197693 117.35992432 C98.70280228 116.98349792 97.86362762 116.60707153 96.99902344 116.21923828 C96.10526505 115.82089783 95.21150665 115.42255737 94.29066467 115.012146 C92.36983723 114.15569514 90.4495505 113.29803075 88.52975464 112.43927002 C85.51747117 111.09283637 82.50283166 109.75181118 79.48754883 108.41210938 C70.61443043 104.46646759 61.7483148 100.5078823 52.91992188 96.46298218 C49.59645456 94.94111943 46.26820352 93.42989454 42.93951416 91.91949463 C41.38473086 91.20992011 39.83256962 90.49457093 38.28314209 89.77337646 C36.14374363 88.77777687 33.99656021 87.80132064 31.84667969 86.82861328 C30.91070702 86.38337311 30.91070702 86.38337311 29.95582581 85.92913818 C26.53981516 84.39996625 26.53981516 84.39996625 22.93969727 84.91015625 C20.01175709 87.08046123 17.21228462 89.39571817 14.41308594 91.72705078 C-15.71240122 116.19940557 -52.28268614 128.5587317 -90.96191406 128.28955078 C-92.82589844 128.2827832 -92.82589844 128.2827832 -94.72753906 128.27587891 C-97.76404908 128.26420002 -100.80045494 128.24782218 -103.83691406 128.22705078 C-103.99052192 120.81155301 -104.09473366 113.39647339 -104.16650391 105.97973633 C-104.19645955 103.46297882 -104.23723904 100.94632374 -104.28955078 98.42993164 C-104.82869916 71.80551597 -104.82869916 71.80551597 -97.83691406 59.22705078 C-97.46373047 58.46932373 -97.09054688 57.71159668 -96.70605469 56.9309082 C-92.96053419 49.45226328 -88.23075085 42.60045793 -82.83691406 36.22705078 C-82.30710938 35.56447266 -81.77730469 34.90189453 -81.23144531 34.21923828 C-61.7250121 10.58911729 -29.84748113 -0.19065475 0 0 Z " fill="#836853" transform="translate(251.8369140625,15.77294921875)"/>
<path d="M0 0 C7.26 0 14.52 0 22 0 C23.16917969 2.82046875 24.33835937 5.6409375 25.54296875 8.546875 C26.69146192 11.31723071 27.83999195 14.08757114 28.98852539 16.85791016 C29.77892841 18.76446974 30.56929387 20.6710449 31.35961914 22.57763672 C32.12733816 24.42967994 32.8953303 26.28160997 33.66360474 28.13342285 C34.41362407 29.94374866 35.16174761 31.75486113 35.90792847 33.56677246 C37.46074151 37.33130046 39.02010588 41.08583735 40.70166016 44.79492188 C41.4004126 46.35823242 41.4004126 46.35823242 42.11328125 47.953125 C42.70749878 49.23171387 42.70749878 49.23171387 43.3137207 50.53613281 C44.83160333 55.98560682 42.58462432 60.28828933 40.0078125 65.04296875 C39.39075439 66.19120117 38.77369629 67.33943359 38.13793945 68.52246094 C37.46827413 69.74486166 36.79726758 70.96652847 36.125 72.1875 C35.78608734 72.80484009 35.44717468 73.42218018 35.09799194 74.05822754 C33.71726379 76.57234428 32.3363158 79.0862918 30.94688416 81.59561157 C28.86107171 85.37556499 26.88636068 89.1913752 24.98046875 93.06640625 C18.74087216 105.4000499 18.74087216 105.4000499 13.65625 107.15234375 C10.52204732 107.18529682 7.99468128 106.8937007 5 106 C-0.93197891 95.57688461 -6.70026136 85.07115224 -12.39331055 74.515625 C-12.91836182 73.54238281 -13.44341309 72.56914062 -13.984375 71.56640625 C-14.48775391 70.6242627 -14.99113281 69.68211914 -15.50976562 68.71142578 C-16.47909939 66.9477592 -17.48676384 65.20444728 -18.53710938 63.48779297 C-19.00439453 62.71709473 -19.47167969 61.94639648 -19.953125 61.15234375 C-20.37239258 60.49097412 -20.79166016 59.82960449 -21.22363281 59.14819336 C-23.42159425 53.06647553 -19.16527704 46.10385242 -16.81640625 40.52734375 C-16.40083969 39.52667374 -15.98527313 38.52600372 -15.55711365 37.49501038 C-14.23150809 34.30666467 -12.89719565 31.12204966 -11.5625 27.9375 C-10.6680313 25.79126079 -9.77414469 23.64477889 -8.88085938 21.49804688 C-6.91106362 16.76548245 -4.93561985 12.0353193 -2.95509338 7.30723572 C-1.95017179 4.87962912 -0.97578553 2.43946383 0 0 Z " fill="#F2651E" transform="translate(245,390)"/>
<path d="M0 0 C3.67327969 1.66403995 6.78734167 3.91003269 10.0625 6.25 C15.80874034 10.30592831 21.73123746 13.79652415 28 17 C26.13142238 23.67423541 23.88776711 30.02017748 21.12890625 36.375 C20.76530502 37.22497559 20.4017038 38.07495117 20.02708435 38.95068359 C18.87727538 41.63599081 17.72022095 44.31809572 16.5625 47 C15.40983937 49.68252044 14.25872962 52.36569816 13.10862732 55.04931641 C12.39694459 56.70862171 11.68358339 58.36720862 10.96815491 60.02490234 C10.30746093 61.56040231 9.65155623 63.09797301 9.00076294 64.63769531 C8.28830975 66.31944375 7.56191818 67.99531644 6.82614136 69.66699219 C6.26239304 70.98812012 6.26239304 70.98812012 5.68725586 72.3359375 C5.34053329 73.13306152 4.99381073 73.93018555 4.63658142 74.75146484 C3.31595673 79.41618006 5.91052644 82.96078922 8.09765625 87.0234375 C8.40803329 87.60216614 8.71841034 88.18089478 9.03819275 88.77716064 C10.04195912 90.64547818 11.05220229 92.51020765 12.0625 94.375 C12.74832591 95.65007782 13.43387272 96.9253058 14.11914062 98.20068359 C18.21435897 105.80347385 22.4068602 113.33551458 26.875 120.7265625 C27.431875 121.85191406 27.431875 121.85191406 28 123 C27.67 123.66 27.34 124.32 27 125 C-0.14552385 111.61763754 -20.53634957 87.55384206 -30.60791016 59.10424805 C-34.46500823 47.58082996 -36.90584289 36.10967817 -38 24 C-37.4016333 23.65332275 -36.8032666 23.30664551 -36.18676758 22.94946289 C-24.82465025 16.34911259 -13.65594791 9.69694089 -3 2 C-2.01 1.34 -1.02 0.68 0 0 Z " fill="#E5EAEB" transform="translate(202,368)"/>
<path d="M0 0 C3.59141828 1.30252142 6.42864189 2.86355481 9.5 5.125 C19.23396201 12.08608262 29.6410619 18.02727893 40 24 C39.43850322 49.11421961 28.90632712 74.74633813 13 94 C12.26136719 94.89460938 11.52273438 95.78921875 10.76171875 96.7109375 C1.04452309 107.92972468 -11.55667882 120.18555961 -26 125 C-24.47086266 120.93136833 -22.56430413 117.12589759 -20.515625 113.30078125 C-20.17754822 112.66569138 -19.83947144 112.0306015 -19.4911499 111.37626648 C-18.77630026 110.03507563 -18.06014867 108.69457799 -17.34277344 107.35473633 C-16.26371589 105.33813302 -15.19016106 103.3186737 -14.1171875 101.29882812 C-13.41719541 99.98669696 -12.71668058 98.67484452 -12.015625 97.36328125 C-11.50437073 96.40411301 -11.50437073 96.40411301 -10.98278809 95.42556763 C-8.51793825 90.84524997 -5.83636146 86.4511324 -2.92480469 82.13745117 C-1.47672008 78.79057136 -2.62154849 76.05933673 -3.81465149 72.71968079 C-4.13789902 71.94376083 -4.46114655 71.16784088 -4.79418945 70.3684082 C-5.16159744 69.48010818 -5.52900543 68.59180817 -5.907547 67.67658997 C-6.3054393 66.72757309 -6.7033316 65.77855621 -7.11328125 64.80078125 C-7.52410446 63.81055466 -7.93492767 62.82032806 -8.35820007 61.8000946 C-9.6720198 58.63576362 -10.99206703 55.47407633 -12.3125 52.3125 C-13.6208638 49.16822582 -14.92794692 46.02342222 -16.23466492 42.87846375 C-17.04705992 40.92450134 -17.86063553 38.97102922 -18.6756134 37.0181427 C-19.42321916 35.22470999 -20.16743866 33.42986103 -20.90786743 31.63345337 C-21.66042472 29.81881603 -22.42706166 28.00997524 -23.20516968 26.20614624 C-23.58114288 25.31593781 -23.95711609 24.42572937 -24.34448242 23.50854492 C-24.68662277 22.71324875 -25.02876312 21.91795258 -25.38127136 21.09855652 C-26 19 -26 19 -25 16 C-22.70403856 14.66389857 -20.44474501 13.47240966 -18.0625 12.3125 C-11.37007195 8.92190436 -5.63837665 4.98830499 0 0 Z " fill="#E5EAEB" transform="translate(308,368)"/>
<path d="M0 0 C14.05310445 4.1505156 26.94238806 12.57161329 38 22 C38.91394531 22.77472656 39.82789063 23.54945313 40.76953125 24.34765625 C52.7158634 34.78950279 61.83462938 46.83631298 67 62 C67.34369629 62.8031665 67.68739258 63.60633301 68.04150391 64.43383789 C69.38740675 69.44137808 69.21152785 74.21660917 69.125 79.375 C69.11597656 80.39722656 69.10695313 81.41945313 69.09765625 82.47265625 C69.0742043 84.98201522 69.04138355 87.49088336 69 90 C61.6463962 90.32659878 54.29438943 90.57419811 46.93496323 90.72537041 C43.51585945 90.79799535 40.10176523 90.8961426 36.68554688 91.05615234 C12.81886933 92.14487204 12.81886933 92.14487204 6.63867188 87.06738281 C3.96685117 84.27085053 1.91492252 81.26006464 0.05822754 77.8760376 C-1.71119937 74.73917782 -3.87611967 71.9048148 -6 69 C3.97316345 63.69752622 13.97435453 58.45595809 24.0625 53.375 C25.35559082 52.71878662 25.35559082 52.71878662 26.67480469 52.04931641 C27.4743457 51.64890137 28.27388672 51.24848633 29.09765625 50.8359375 C29.80414307 50.48063965 30.51062988 50.1253418 31.23852539 49.75927734 C33 49 33 49 35 49 C32.02433403 43.45510049 28.54625481 38.66070483 24.625 33.75 C19.41482714 27.13834124 14.30788831 20.46309659 9.3125 13.6875 C8.72484863 12.89375977 8.13719727 12.10001953 7.53173828 11.28222656 C4.83552843 7.61310867 2.24324814 3.9712626 0 0 Z " fill="#363637" transform="translate(380,406)"/>
<path d="M0 0 C0.99 0.495 0.99 0.495 2 1 C1.58862793 1.53665283 1.17725586 2.07330566 0.75341797 2.6262207 C-7.42334625 13.30225927 -15.54585932 24.01109045 -23.48095703 34.8684082 C-25.71041204 37.91510722 -27.93577523 40.92155095 -30.328125 43.84375 C-32.17914459 45.98510233 -32.17914459 45.98510233 -33 49 C-32.1754834 49.24927246 -31.3509668 49.49854492 -30.50146484 49.75537109 C-26.47827997 51.18545033 -22.77899643 52.98531035 -18.9765625 54.9140625 C-18.23038666 55.28856537 -17.48421082 55.66306824 -16.71542358 56.04891968 C-14.35003203 57.23717966 -11.9874953 58.43099382 -9.625 59.625 C-8.01450873 60.43526526 -6.40383349 61.24516498 -4.79296875 62.0546875 C-0.85983766 64.03223454 3.07074408 66.01476516 7 68 C7 71.51382872 6.5193697 71.91082542 4.26171875 74.43359375 C3.68873047 75.08263672 3.11574219 75.73167969 2.52539062 76.40039062 C1.91888672 77.07263672 1.31238281 77.74488281 0.6875 78.4375 C-0.49721232 79.76853649 -1.68083973 81.10053956 -2.86328125 82.43359375 C-3.39219971 83.02197021 -3.92111816 83.61034668 -4.46606445 84.21655273 C-6.0628071 85.96967646 -6.0628071 85.96967646 -7.24182129 88.08308411 C-9 90 -9 90 -11.56266785 90.48101807 C-12.58636978 90.47213562 -13.61007172 90.46325317 -14.66479492 90.45410156 C-16.40626045 90.45364838 -16.40626045 90.45364838 -18.1829071 90.45318604 C-19.43610245 90.43254089 -20.68929779 90.41189575 -21.98046875 90.390625 C-23.26359451 90.38496521 -24.54672028 90.37930542 -25.86872864 90.37347412 C-29.27700045 90.35821488 -32.68458839 90.31893221 -36.09259033 90.2746582 C-39.5713984 90.23371078 -43.05031718 90.21546434 -46.52929688 90.1953125 C-53.35314518 90.15243703 -60.17653975 90.0841831 -67 90 C-67.05874776 86.66674246 -67.09384467 83.33362062 -67.125 80 C-67.14175781 79.06542969 -67.15851563 78.13085938 -67.17578125 77.16796875 C-67.31127645 57.79215448 -56.12235549 41.48019673 -43 28 C-39.49926387 24.74822768 -35.84212523 21.83685685 -32 19 C-31.03835937 18.27425781 -30.07671875 17.54851562 -29.0859375 16.80078125 C-22.60118021 12.09728008 -15.87433308 8.14135519 -8.8125 4.375 C-7.97396484 3.92455322 -7.13542969 3.47410645 -6.27148438 3.01000977 C-5.48708984 2.60194092 -4.70269531 2.19387207 -3.89453125 1.7734375 C-2.84036011 1.22308838 -2.84036011 1.22308838 -1.76489258 0.66162109 C-0.89127075 0.33411865 -0.89127075 0.33411865 0 0 Z " fill="#363637" transform="translate(130,406)"/>
<path d="M0 0 C0.66 0 1.32 0 2 0 C3.29003906 1.44262695 3.29003906 1.44262695 4.765625 3.48828125 C5.31984131 4.24882812 5.87405762 5.009375 6.44506836 5.79296875 C7.0406958 6.62441406 7.63632324 7.45585937 8.25 8.3125 C9.50592651 10.04859964 10.76245544 11.78426361 12.01953125 13.51953125 C12.67002441 14.42010254 13.32051758 15.32067383 13.99072266 16.24853516 C15.9889532 18.98487272 18.02387707 21.68926418 20.07421875 24.38671875 C20.72165039 25.24418701 21.36908203 26.10165527 22.03613281 26.98510742 C23.28976753 28.64325987 24.55069448 30.29592771 25.81933594 31.94262695 C26.6647998 33.06930786 26.6647998 33.06930786 27.52734375 34.21875 C28.28132446 35.2077832 28.28132446 35.2077832 29.05053711 36.21679688 C29.52052124 37.09948242 29.52052124 37.09948242 30 38 C29 41 29 41 27.45057678 42.08207703 C26.78376389 42.41294815 26.11695099 42.74381927 25.42993164 43.0847168 C24.67567398 43.46488449 23.92141632 43.84505219 23.14430237 44.23674011 C21.91465004 44.83691704 21.91465004 44.83691704 20.66015625 45.44921875 C19.40421913 46.07543877 19.40421913 46.07543877 18.12290955 46.71430969 C16.35062835 47.59557507 14.57593914 48.47201169 12.79907227 49.34399414 C10.07216076 50.6827571 7.3529974 52.03629245 4.63476562 53.39257812 C2.91449744 54.24566928 1.19380808 55.09791179 -0.52734375 55.94921875 C-1.34508774 56.35540939 -2.16283173 56.76160004 -3.00535583 57.18009949 C-3.76276566 57.5508107 -4.52017548 57.92152191 -5.30053711 58.3034668 C-5.9681456 58.63195114 -6.63575409 58.96043549 -7.32359314 59.2988739 C-9 60 -9 60 -11 60 C-8.01199823 64.70466625 -4.66786614 68.87259846 -1 73.0625 C9 84.56002475 9 84.56002475 9 87 C-11.13 87 -31.26 87 -52 87 C-48.74792049 83.74792049 -45.57055978 80.69823674 -42.125 77.6875 C-20.35999214 58.10541328 -4.37073332 28.98750718 0 0 Z " fill="#535152" transform="translate(361,409)"/>
<path d="M0 0 C0.66 0 1.32 0 2 0 C2.29390625 1.36705078 2.29390625 1.36705078 2.59375 2.76171875 C9.48743062 33.20015442 24.52556818 63.05778574 49.8203125 82.23046875 C52 84 52 84 54 87 C33.87 87 13.74 87 -7 87 C-5.01530664 83.03061328 -2.63281086 80.05472074 0.25 76.75 C7.32468725 68.86498672 7.32468725 68.86498672 13 60 C12.1747583 59.74855225 11.3495166 59.49710449 10.49926758 59.23803711 C6.50558536 57.82507663 2.80170924 56.07208041 -0.98828125 54.19140625 C-1.73208542 53.8240184 -2.47588959 53.45663055 -3.24223328 53.07810974 C-4.80392172 52.30448449 -6.36451916 51.52865333 -7.92407227 50.75073242 C-10.31755015 49.55998757 -12.71809588 48.38438096 -15.11914062 47.20898438 C-16.63847746 46.45404328 -18.15737381 45.69821491 -19.67578125 44.94140625 C-20.39550613 44.59130997 -21.11523102 44.24121368 -21.85676575 43.88050842 C-26.88568772 41.34293683 -26.88568772 41.34293683 -28 38 C-27.05053711 36.21679688 -27.05053711 36.21679688 -25.52734375 34.21875 C-24.96370117 33.46762939 -24.40005859 32.71650879 -23.81933594 31.94262695 C-23.19833008 31.13656006 -22.57732422 30.33049316 -21.9375 29.5 C-20.64919235 27.79598651 -19.36144914 26.09154616 -18.07421875 24.38671875 C-17.40438965 23.5054834 -16.73456055 22.62424805 -16.04443359 21.71630859 C-14.00439986 19.00584581 -12.00588329 16.26952421 -10.01953125 13.51953125 C-9.38732666 12.64683594 -8.75512207 11.77414062 -8.10375977 10.875 C-6.88031009 9.18379391 -5.66066017 7.48983165 -4.44506836 5.79296875 C-3.89085205 5.03242188 -3.33663574 4.271875 -2.765625 3.48828125 C-2.27868164 2.81321533 -1.79173828 2.13814941 -1.29003906 1.44262695 C-0.86432617 0.96656006 -0.43861328 0.49049316 0 0 Z " fill="#535152" transform="translate(149,409)"/>
<path d="M0 0 C0.99257812 0.25394531 1.98515625 0.50789063 3.0078125 0.76953125 C4.38017436 1.11732158 5.75257221 1.46496994 7.125 1.8125 C8.09373047 2.0609668 8.09373047 2.0609668 9.08203125 2.31445312 C11.38370582 2.89535194 13.69104708 3.4487215 16 4 C17.05082764 4.26095459 18.10165527 4.52190918 19.18432617 4.79077148 C27.56607378 6.75594873 35.46372012 7.50952247 44.0625 7.4375 C45.94062378 7.42940308 45.94062378 7.42940308 47.85668945 7.42114258 C62.523825 7.18416798 76.05365318 4.34370403 90 0 C91.8028466 16.25900545 91.8028466 16.25900545 87.890625 22.20703125 C84.77341229 24.88193676 81.58846854 27.03506109 78 29 C77.32614258 29.37721191 76.65228516 29.75442383 75.95800781 30.14306641 C61.21060182 38.24832825 47.38012864 41.51914485 30.53515625 38.34765625 C27.85416578 37.4303717 25.48872196 36.35239232 23 35 C22.03320312 34.50242187 21.06640625 34.00484375 20.0703125 33.4921875 C16.95144435 31.78593648 13.98864296 29.92403569 11 28 C9.94296875 27.41089844 8.8859375 26.82179688 7.796875 26.21484375 C4.38878623 24.01706343 2.27015181 22.38117023 0 19 C-1.2977669 12.73580502 -0.63565622 6.31161681 0 0 Z " fill="#FCD5A1" transform="translate(211,335)"/>
<path d="M0 0 C5.28 0 10.56 0 16 0 C16 11.22 16 22.44 16 34 C20.29 34 24.58 34 29 34 C29 39.28 29 44.56 29 50 C25.10300813 50.13499972 21.21069347 50.2341331 17.3125 50.3125 C15.65831055 50.3753418 15.65831055 50.3753418 13.97070312 50.43945312 C12.3706543 50.46362305 12.3706543 50.46362305 10.73828125 50.48828125 C9.75899658 50.51446533 8.77971191 50.54064941 7.77075195 50.56762695 C3.69677249 49.73301578 2.37512146 48.40676145 0 45 C-0.66936479 41.54394504 -0.58275555 38.17697485 -0.48828125 34.66796875 C-0.48120651 33.67622147 -0.47413177 32.68447418 -0.46684265 31.66267395 C-0.43891433 28.50350658 -0.3761772 25.34612918 -0.3125 22.1875 C-0.28741518 20.04234335 -0.26460234 17.89715885 -0.24414062 15.75195312 C-0.18909244 10.50061525 -0.10282908 5.25061082 0 0 Z " fill="#252121" transform="translate(248,198)"/>
<path d="M0 0 C0 10.23 0 20.46 0 31 C-6.81519483 28.27392207 -11.05587328 24.037698 -15 17.875 C-16.1492099 14.57102153 -16.50618296 12.47096888 -16 9 C-12.22653526 1.59820378 -8.13383013 0 0 0 Z " fill="#FAD3A0" transform="translate(132,186)"/>
<path d="M0 0 C9.41176471 1.17647059 9.41176471 1.17647059 14 5 C16.36476281 8.22467656 16.52783706 11.07892472 16 15 C13.35126097 20.80594136 9.04887683 26.10321587 4 30 C2.68 30.33 1.36 30.66 0 31 C0 20.77 0 10.54 0 0 Z " fill="#FBD3A0" transform="translate(380,186)"/>
</svg>
